<ttFont>
          <CharString index="0">
            -14 10 -9 14 vhcurveto
            100 hlineto
            14 9 8 15 hvcurveto
            102 vlineto
            14 -8 11 -15 vhcurveto
            -100 hlineto
            -16 -8 -10 -15 hvcurveto
            return
          </CharString>
          <CharString index="1">
            -85 36.5 -47.5 98 vhcurveto
            101 hlineto
            101 35.5 47.5 85 hvcurveto
            118 vlineto
            85 -36.5 47.5 -98 vhcurveto
            -101 hlineto
            -101 -35.5 -47.5 -85 hvcurveto
            return
          </CharString>
          <CharString index="2">
            73 vlineto
            36.75 14.25 8.25 31 vhcurveto
            63.5 hlineto
            30.5 12.75 -8 -37 hvcurveto
            -73 vlineto
            -27.75 -5.25 -17.25 -40 vhcurveto
            -63.5 hlineto
            -36.5 -6.75 16.25 28.75 hvcurveto
            return
          </CharString>
          <CharString index="3">
            116 0 444.75 732 -110.75 0 rlineto
            return
          </CharString>
          <CharString index="4">
            -85 35.75 -47.5 98 vhcurveto
            101.75 hlineto
            101 35.5 47.5 85 hvcurveto
            118 vlineto
            return
          </CharString>
          <CharString index="5">
            85 -36.5 47.5 -98 vhcurveto
            -101.75 hlineto
            -101 -34.75 -47.5 -85 hvcurveto
            return
          </CharString>
          <CharString index="6">
            73 vlineto
            36.75 14.25 8.25 31 vhcurveto
            62.75 hlineto
            30.5 13.5 -8 -37 hvcurveto
            -73 vlineto
            -27.75 -6 -17.25 -40 vhcurveto
            -62.75 hlineto
            -36.5 -6.75 16.25 28.75 hvcurveto
            return
          </CharString>
          <CharString index="7">
            -376.75 181.5 -159.25 0 vhcurveto
            148.5 hlineto
            0 -166 224 312 285.5 166 248.5 0 hvcurveto
            -148.5 hlineto
            0 -181.5 -191 -343 hvcurveto
            return
          </CharString>
          <CharString index="8">
            148.5 hlineto
            0 181.5 159.25 376.75 343 -181.5 191 0 hvcurveto
            -148.5 hlineto
            0 166 -248.5 -285.5 -312 -166 -224 0 hvcurveto
            return
          </CharString>
          <CharString index="9">
            140 -141 134 141 142 134 -142 141 -134 -141 -140 hlineto
            return
          </CharString>
          <CharString index="10">
            314 134 -314 hlineto
            return
          </CharString>
          <CharString index="11">
            -14 10 -9 14 vhcurveto
            98 hlineto
            14 11 5 18 hvcurveto
            102 vlineto
            16 -7 9 -18 vhcurveto
            -98 hlineto
            -16 -8 -10 -15 hvcurveto
            return
          </CharString>
          <CharString index="12">
            -120 67.5 -64.5 120.25 vhcurveto
            164 hlineto
            114.75 66.5 65.5 119 hvcurveto
            363 vlineto
            99.5 -41.25 85 -139.25 vhcurveto
            -164 hlineto
            -117.5 -71 -67.5 -124.5 hvcurveto
            return
          </CharString>
          <CharString index="13">
            -135.75 0 -81.25 -10.75 -87 -16.75 rrcurveto
            return
          </CharString>
          <CharString index="14">
            88 -31 110.5 3 114 0 rrcurveto
            122 69.5 65 118 hvcurveto
            36.5 vlineto
            0 76 -22 54 -57.5 21.5 55.75 20.5 23.75 50 0 73 rrcurveto
            46.5 vlineto
            0 112.25 -74.5 65.75 -110 2 rrcurveto
            return
          </CharString>
          <CharString index="15">
            -117 2 -120.5 1 -88 -31 rrcurveto
            return
          </CharString>
          <CharString index="16">
            34 -74.5 335 0 0 -147.5 164 0 0 147.5 67.5 26.5 0 126.5 -67.5 0 0 229.5 -134.5 0 -29.5 -77.25 0 -152.25 -143.75 0 191.25 429.5 -178 0 rlineto
            return
          </CharString>
          <CharString index="17">
            134 -23 53.5 -1 124 0 rrcurveto
            89 104.25 48 137 hvcurveto
            99 vlineto
            0 103.75 -50.5 77.25 -116.5 7.5 -17.5 0.75 -44 2.5 -33 -3.25 -17.75 -1.75 -26.5 -4.5 -23 -16.25 rrcurveto
            6 137 294 0 0 149 -452.75 0 -22 -457.5 156 0 rlineto
            36.75 19.75 15.75 33.75 vhcurveto
            71.5 hlineto
            50.75 7.75 -30.25 -33 hvcurveto
            -50.75 vlineto
            -26 -3 -37 -63.75 vhcurveto
            return
          </CharString>
          <CharString index="18">
            0 -315 77.5 -69.75 118.75 -0.25 rrcurveto
            140.75 hlineto
            110.5 73 46 125.5 hvcurveto
            101 vlineto
            101.25 -32.5 77.75 -143.5 vhcurveto
            -81.5 0 -50 -4.25 -49 -16.75 0.5 75.75 4.5 83.75 91 0 rrcurveto
            236.5 124.75 hlineto
            -93.5 18.25 -130.75 14.25 -100.25 -12 -87.5 -10.5 -84.5 -74.75 0 -265 rrcurveto
            return
          </CharString>
          <CharString index="19">
            142.25 hlineto
            39.25 11.25 -12.5 -47.5 hvcurveto
            -46.25 vlineto
            -45.5 -16.75 -9.25 -37.5 vhcurveto
            -50 hlineto
            -76.25 -12.25 58 103 hvcurveto
            return
          </CharString>
          <CharString index="20">
            316 0 -213 -583 176.5 0 238 661.5 -42 70.5 -475.5 0 rlineto
            return
          </CharString>
          <CharString index="21">
            -58.25 5.5 -114.5 185.5 vhcurveto
            152.5 hlineto
            88.75 89.25 22.5 154.75 hvcurveto
            81.5 vlineto
            0.25 43 -10 84 -65.25 12.25 66.75 10.5 8.5 79.75 -0.25 25.75 rrcurveto
            49.25 vlineto
            126.75 -61.75 47 -115.25 vhcurveto
            -153.5 hlineto
            -103 -88 -34.5 -138.5 hvcurveto
            -65 vlineto
            0 -59 5.25 -55.25 71.5 -33.25 -52 -10 -24.75 -48.5 0 -56 rrcurveto
            return
          </CharString>
          <CharString index="22">
            56.25 vlineto
            35.75 15 19.75 43 vhcurveto
            80.25 hlineto
            40.25 15 -21.75 -33.75 hvcurveto
            -56.25 vlineto
            -34.25 -13.75 -19.5 -43.75 vhcurveto
            -75.25 hlineto
            -44.5 -16.25 15.25 38.5 hvcurveto
            return
          </CharString>
          <CharString index="23">
            39.5 vlineto
            57 22.25 5 38.5 vhcurveto
            75.5 hlineto
            32.75 24.5 -7.5 -54.5 hvcurveto
            -39.5 vlineto
            -31.5 -5.5 -22.5 -51.25 vhcurveto
            -78.75 hlineto
            -34 -24 8 46 hvcurveto
            return
          </CharString>
          <CharString index="24">
            46.25 vlineto
            45.5 16.75 9.25 37.5 vhcurveto
            50 hlineto
            76.25 12.25 -58 -103 hvcurveto
            -142.25 hlineto
            -39.25 -11.25 12.5 47.5 hvcurveto
            return
          </CharString>
          <CharString index="25">
            -164.75 103.5 -58.25 117 vhcurveto
            334 hlineto
            144.75 77.25 72.5 165.5 hvcurveto
            437 vlineto
            0 184.25 -116.75 59.5 -112.75 0.5 rrcurveto
            -93.5 hlineto
            return
          </CharString>
          <CharString index="26">
            -126 1 -136.5 -18 -48 -10 rrcurveto
            -99.5 vlineto
            return
          </CharString>
          <CharString index="27">
            172 0 48 147 220.75 0 48 -147 171.25 0 -230.75 732 -190.25 0 rlineto
            return
          </CharString>
          <CharString index="28">
            76 232.25 69.25 -232.25 rlineto
            return
          </CharString>
          <CharString index="29">
            312.75 hlineto
            154 69.25 70.5 148.5 hvcurveto
            0 85.5 -50.5 64 -67.25 11.5 rrcurveto
            return
          </CharString>
          <CharString index="30">
            71.75 10 31.5 79.5 0 65 rrcurveto
            113.5 -59 84 -153.5 vhcurveto
            -309 hlineto
            return
          </CharString>
          <CharString index="31">
            50.25 16.5 -42.75 -46.25 -62.75 -26.25 -22.75 -40.5 hvcurveto
            return
          </CharString>
          <CharString index="32">
            140.5 133.5 vlineto
            return
          </CharString>
          <CharString index="33">
            29.5 33.25 -14.5 -57.25 -41.5 -21.5 -27.25 -41.25 hvcurveto
            return
          </CharString>
          <CharString index="34">
            0 -238.25 65.75 -133.5 185 -2.25 124 -2.25 71 9 64 22.75 rrcurveto
            128 vlineto
            0 -108.25 -8.5 -105 -109 -23.5 59 164 213.75 37.5 11.25 94.25 vhcurveto
            100.25 0 112.75 -15.25 1 0 rrcurveto
            128 vlineto
            -82 27.25 -56 9 -121 0 -199 0 -51.75 -138 0 -234 rrcurveto
            return
          </CharString>
          <CharString index="35">
            325.25 hlineto
            173.5 78.25 129.5 233.5 192.75 -46.25 176.25 -205.5 hvcurveto
            -325.25 hlineto
            return
          </CharString>
          <CharString index="36">
            448.25 146.25 vlineto
            64.25 38.5 -37.25 -189.25 -144.25 -27 -77.5 -75.75 hvcurveto
            return
          </CharString>
          <CharString index="37">
            0 0 237 6.5 77.25 10.5 rrcurveto
            135.75 vlineto
            return
          </CharString>
          <CharString index="38">
            -269.25 hlineto
            -29 0 -32.75 -1 -0.25 53 rrcurveto
            0 83 rlineto
            return
          </CharString>
          <CharString index="39">
            283.75 9.25 0 135.5 rlineto
            return
          </CharString>
          <CharString index="40">
            -283.75 10.75 0 83 rlineto
            27 0 29 52 vhcurveto
            return
          </CharString>
          <CharString index="41">
            279.25 136.75 hlineto
            return
          </CharString>
          <CharString index="42">
            0 -207.5 31 -177.75 207 10.25 82.5 3.75 28.5 17.25 30.5 33 rrcurveto
            45.25 -49 116.75 0 0 423.5 rlineto
            -24 2 -23 1 -21 0 rrcurveto
            return
          </CharString>
          <CharString index="43">
            -69.75 0 -61.25 -4.25 -43.75 -20.75 rrcurveto
            -102.5 vlineto
            return
          </CharString>
          <CharString index="44">
            78.75 -106.25 hlineto
            0 0 -36.5 -46.25 -65.5 0.25 -96.75 0.5 -14.75 42.25 0 178.5 0 172.75 19 57.75 102.75 0 120 0 120.5 -19.5 6 0 rrcurveto
            126.5 vlineto
            -118.75 31 -40.5 3.5 -132.25 0 rrcurveto
            -199 -41.75 -152.75 -217.25 hvcurveto
            return
          </CharString>
          <CharString index="45">
            164 279.5 215 -279.5 164 732 -164 -303.5 -215 303.5 -164 hlineto
            return
          </CharString>
          <CharString index="46">
            164 732 -164 hlineto
            return
          </CharString>
          <CharString index="47">
            52 -34 134 -6 53 34 50 32 3.5 68 0 47 rrcurveto
            567 -164 -483.75 vlineto
            -0.25 -92.5 -30 -7.25 -97.25 4.5 rrcurveto
            return
          </CharString>
          <CharString index="48">
            157.5 292.5 49.5 hlineto
            169.25 -292.5 189.75 0 -213.75 364.75 213.75 367.25 -189.75 0 -169.25 -298 -50.5 0 0 298 -156.5 0 rlineto
            return
          </CharString>
          <CharString index="49">
            -113 73.75 -35.5 84.75 vhcurveto
            298.5 149 -231 hlineto
            -29 -33 -1 53 hvcurveto
            531 -164 vlineto
            return
          </CharString>
          <CharString index="50">
            161.75 0 44.5 448.75 96.5 -448.75 185.5 0 92.75 448.75 48.75 -448.75 161.75 0 -73.25 732 -227.75 0 -96.75 -460.5 -95.25 460.5 -228 0 rlineto
            return
          </CharString>
          <CharString index="51">
            165 421.5 hlineto
            255.25 -421.5 164 0 0 732 -164 0 0 -429 -254.25 429 -166 0 rlineto
            return
          </CharString>
          <CharString index="52">
            -333 118.25 -32 180 180 117.75 42 323 343 -124.75 33 -173 -168 -130.25 -33 -343 vhcurveto
            return
          </CharString>
          <CharString index="53">
            209 35 18 99.25 102.25 31.5 -24.75 -202.25 -178.5 -30.25 -37.5 -103.5 -113 -21.25 37 179 vhcurveto
            return
          </CharString>
          <CharString index="54">
            164 280.5 hlineto
            5 -3 110.75 -14.75 40 -2.25 87.5 -5.25 125.75 17.5 0 228.5 rrcurveto
            203.75 -117 27 -96.25 vhcurveto
            -319.75 hlineto
            return
          </CharString>
          <CharString index="55">
            187.5 140.75 vlineto
            35 0 27.75 -20.25 0.5 -70.25 rrcurveto
            -71.5 -21.75 -25.5 -41.5 vhcurveto
            return
          </CharString>
          <CharString index="56">
            4.75 -138.25 134.25 -38.25 111 20.25 rrcurveto
            125 vlineto
            -59.5 -14.25 -81 -11.25 -20 56.75 rrcurveto
            return
          </CharString>
          <CharString index="57">
            164 283 hlineto
            95 -14 109 -269 185.75 0 -133 283.25 rlineto
            45.25 16 67.5 23.5 0 178 rrcurveto
            178 -89 53.25 -121.25 vhcurveto
            -323.25 hlineto
            return
          </CharString>
          <CharString index="58">
            180.5 139.75 vlineto
            44 20 -23 -65.75 -72.25 -14.25 -19.5 -49.75 hvcurveto
            return
          </CharString>
          <CharString index="59">
            -56.25 10.5 -145.75 182.5 vhcurveto
            102.5 hlineto
            49.25 11 -21.5 -36 hvcurveto
            -29 vlineto
            -44.5 -33.75 -8.75 -42.5 vhcurveto
            -93 0 -123.75 7 -40 4 rrcurveto
            -128.25 vlineto
            86.5 -27.5 55.25 -4.25 152.5 0 rrcurveto
            99 103.75 34 175 hvcurveto
            41.75 vlineto
            80.5 -32 121.5 -147.25 vhcurveto
            -106 hlineto
            -55.5 -15 14.5 46 hvcurveto
            24.75 vlineto
            0 56.5 28.5 3.25 58 -0.75 49.5 0 129 -3.75 64 -6.25 rrcurveto
            128.25 vlineto
            -65 21.5 -105.75 12.25 -124.25 -3 -112 -2.25 -86 -45.75 0 -145 rrcurveto
            return
          </CharString>
          <CharString index="60">
            191.5 -583 164 583 197.5 149 -553 hlineto
            return
          </CharString>
          <CharString index="61">
            -333 150 8 136 121 160 2 323 vhcurveto
            412 -165 -412 vlineto
            -129.75 -24.5 -46.25 -91.5 -100.5 -21.5 41.25 134.75 vhcurveto
            412 -164 vlineto
            return
          </CharString>
          <CharString index="62">
            219.5 -732 194 0 74.5 272.75 84.5 -272.75 194 0 191.5 732 -173.25 0 -115 -522.75 -109.75 350.25 44.75 172.5 -174 0 -113.5 -521.25 -144 521.25 rlineto
            return
          </CharString>
          <CharString index="63">
            219.5 -517 0 -215 164 0 0 215 236.5 517 -178.5 0 -137 -339 -126 339 rlineto
            return
          </CharString>
          <CharString index="64">
            508 149 -291 hlineto
            291 434 0 149 -508 0 0 -149 313.5 0 -313.5 -434 rlineto
            return
          </CharString>
          <CharString index="65">
            118 -140.5 99 0 -84.5 140.5 rlineto
            return
          </CharString>
          <CharString index="66">
            0 -63.25 43.5 -77.75 112.75 -3.75 77.5 -2.25 54.75 49 7.25 15.75 rrcurveto
            33.25 -56.5 130.75 0 0 364.5 rlineto
            0 139.25 -80.5 37.5 -125.75 -0.25 -99 -0.25 -67.25 -7.5 -69.5 -29.75 rrcurveto
            -98.25 vlineto
            24.25 1.75 150 9.5 36.75 0 42.5 0 24.5 -4.5 0 -55 1 -1 -1 -21 0 0 rrcurveto
            -1 -132 1 0 -125 -38.75 -74 -76.25 vhcurveto
            return
          </CharString>
          <CharString index="67">
            17 vlineto
            0 20 2.5 26.75 34.75 3.25 rrcurveto
            94.5 7.75 0 -80.75 rlineto
            0 -34.75 -37.5 -50.75 -22.75 -23.5 0.75 42.75 vhcurveto
            return
          </CharString>
          <CharString index="68">
            137.75 0 26.75 51.5 rlineto
            35.75 -29.5 50.25 -28 61.25 0 rrcurveto
            125.5 47.25 93.75 175.25 175.75 -27 100.25 -145.75 hvcurveto
            -45 0 -60.25 -11.75 -43 -20.75 rrcurveto
            278.5 -163.5 vlineto
            return
          </CharString>
          <CharString index="69">
            240.25 vlineto
            24.75 12.75 35 5 38 0 rrcurveto
            37 21.25 -20.25 -125.5 -114.25 -20.25 -26 -38 hvcurveto
            -43 0 -33.75 9.75 -21 18.25 rrcurveto
            return
          </CharString>
          <CharString index="70">
            -214.25 76 -56.75 99 vhcurveto
            83 1 98 -10.75 76.5 45.5 rrcurveto
            99.5 vlineto
            0 -83.75 -8.75 -92 -72 -20.75 12.25 129.75 144.75 26.75 1.25 66 89 79.75 -6 0 vhcurveto
            99 vlineto
            -94 34 -104.5 -0.5 -52 0 rrcurveto
            -102 -73 -56 -214 hvcurveto
            return
          </CharString>
          <CharString index="71">
            -181.25 47.25 -87.75 125.5 vhcurveto
            61.25 0 50.25 28 35.75 29.5 rrcurveto
            26.75 -51.5 137.75 0 0 785 -163.75 0 0 -278.5 rlineto
            -43 20.75 -60 11.75 -45 0 rrcurveto
            -145.75 -27 -94.25 -181.75 hvcurveto
            return
          </CharString>
          <CharString index="72">
            125.5 21.25 20.25 37 vhcurveto
            38 0 35 -5 24.75 -12.75 rrcurveto
            -240.25 vlineto
            -21 -18.25 -33.75 -9.75 -43 0 rrcurveto
            -38 -20.25 26 114.25 hvcurveto
            return
          </CharString>
          <CharString index="73">
            -190 40 -83 135 vhcurveto
            83 0 124.25 -1.75 72.75 29.75 rrcurveto
            108.5 vlineto
            -75 -11 -23 0.25 -77 0 rrcurveto
            -75 -41 -3.5 85.25 hvcurveto
            149 hlineto
            96 56 36 101 176 -69 19.5 -164 -170 -62 -42 -225 hvcurveto
            return
          </CharString>
          <CharString index="74">
            -1.5 97.5 20.5 5.5 59.75 0 rrcurveto
            52.5 5.75 -13.5 -53.25 -22.5 -13.75 -13.75 -23.75 hvcurveto
            return
          </CharString>
          <CharString index="75">
            78.25 -412 164 412 110.5 119 -110.5 54 hlineto
            0 58.5 -2.5 25 53.5 -1 rrcurveto
            0 84.5 -1 1 vhcurveto
            95.5 vlineto
            -41.5 18.75 -41.25 5.25 -49 0 rrcurveto
            -120 -48.75 -51.75 -104.25 hvcurveto
            0 -99 -78.25 -17 rlineto
            return
          </CharString>
          <CharString index="76">
            0 -59.25 28.5 -37 28 -14 rrcurveto
            return
          </CharString>
          <CharString index="77">
            34 6.5 28.5 47.5 vhcurveto
            40.5 hlineto
            return
          </CharString>
          <CharString index="78">
            164 371.5 hlineto
            28.25 29.5 27.75 12.5 47.75 0 rrcurveto
            29.5 17.75 -15 -48 hvcurveto
            -350.5 164 347.5 vlineto
            106 -26.5 86.5 -130 vhcurveto
            -81 0 -40.5 -33 -37.75 -30.5 rrcurveto
            306 -163.25 vlineto
            return
          </CharString>
          <CharString index="79">
            -14 10 -9 14 vhcurveto
            125 hlineto
            14 8.25 8 15 hvcurveto
            101.25 vlineto
            14 -7.25 11 -15 vhcurveto
            -125 hlineto
            -16 -8 -10 -15 hvcurveto
            return
          </CharString>
          <CharString index="80">
            164 531 -164 hlineto
            return
          </CharString>
          <CharString index="81">
            164 238 25 hlineto
            142.75 -238 193.25 0 -185.75 297.5 185.75 233.5 -204.25 0 -131.75 -174 -25 0 0 425 -164 0 rlineto
            return
          </CharString>
          <CharString index="82">
            -141 49 -48 90.5 vhcurveto
            125.5 98 hlineto
            -7 -52 21 0 hvcurveto
            -25 11 -17 15.5 0 73.5 rrcurveto
            564 -164 vlineto
            return
          </CharString>
          <CharString index="83">
            164 371 hlineto
            28.25 29.5 26.75 12.25 47 0 rrcurveto
            29.5 18 -17 -46.25 hvcurveto
            -349.5 164 347 vlineto
            0 6.75 -0.75 16.5 0 6 27 27.25 34.5 9.25 44.5 0 rrcurveto
            29.5 17.75 -17 -46.25 hvcurveto
            -349.5 164 346.5 vlineto
            109.5 -30 83.25 -126.5 vhcurveto
            -80 0 -56.5 -33.5 -46 -31.75 -21.5 40.75 -44 24.5 -68.75 0 -80.5 0 -34 -29.75 -42.25 -33.5 rrcurveto
            return
          </CharString>
          <CharString index="84">
            -29.5 55 -134.5 0 rlineto
            return
          </CharString>
          <CharString index="85">
            164 371.5 hlineto
            28.25 29.5 27.75 12.5 47.75 0 rrcurveto
            29.25 18 -15 -48 hvcurveto
            -350.5 164 347.5 vlineto
            106 -26.5 86.5 -130 vhcurveto
            -81 0 -37.5 -31.5 -40 -32 rrcurveto
            return
          </CharString>
          <CharString index="86">
            -29.5 54.5 -134.5 0 rlineto
            return
          </CharString>
          <CharString index="87">
            -190 60.25 -73 185 188 57.25 66 197 211 -61 67 -184.25 -181.5 -63.75 -61 -217 vhcurveto
            return
          </CharString>
          <CharString index="88">
            133.25 9 18.25 72.25 71.25 10 -17.75 -133.75 -127 -13 -9.5 -68.25 -64 -17.25 13.5 123 vhcurveto
            return
          </CharString>
          <CharString index="89">
            163.5 294.5 hlineto
            43 -20.75 60.25 -11.75 45 0 rrcurveto
            145.75 27 116 160 173 -47.25 96 -125.5 hvcurveto
            -61.25 0 -50.5 -28 -35.75 -29.5 rrcurveto
            -26.5 51.5 -137.75 0 rlineto
            return
          </CharString>
          <CharString index="90">
            240.25 vlineto
            21 18.25 34 9.75 43 0 rrcurveto
            38 20.25 -26 -114.25 -125.5 -21.25 -20.25 -37 hvcurveto
            -38 0 -35.25 5 -24.75 12.75 rrcurveto
            return
          </CharString>
          <CharString index="91">
            164 314.75 hlineto
            19.25 54.25 42.5 5.25 50 0 30.5 0 32.25 -0.75 15 -0.75 rrcurveto
            157.75 vlineto
            -15 5.25 -18 0.5 -20.75 0 -60.25 0 -47.5 -36.5 -28 -35.75 rrcurveto
            -22 67 -142 0 rlineto
            return
          </CharString>
          <CharString index="92">
            -103 59 -43.75 94 vhcurveto
            111.5 hlineto
            23 4.5 -9.5 -17.75 hvcurveto
            -16 vlineto
            -22.5 -14.75 -3.75 -12.75 vhcurveto
            -242.5 -99.25 hlineto
            36.5 -31.75 148 -0.75 119.5 0 rrcurveto
            64 66 34 109 hvcurveto
            56.5 vlineto
            78 -38.5 62.25 -106.5 vhcurveto
            -114.5 hlineto
            -18.25 -14.25 0.5 25.75 hvcurveto
            16 vlineto
            22 6.75 6.25 25.75 vhcurveto
            233.25 99.75 hlineto
            -37 30.5 -134.5 0.5 -120.25 0 rrcurveto
            -103 -35 -65 -82 hvcurveto
            return
          </CharString>
          <CharString index="93">
            81 -223 hlineto
            -141 50.5 -49.5 79.25 vhcurveto
            134.5 98 hlineto
            -7 -52 21 0 hvcurveto
            -25 11 -16.25 15.5 0 75 rrcurveto
            193 105.5 119 -105.5 148 -138.5 vlineto
            -25.5 -148 -81 -33 rlineto
            return
          </CharString>
          <CharString index="94">
            -106 26.5 -86.5 130 vhcurveto
            81 0 27.75 33 49.75 30.5 rrcurveto
            return
          </CharString>
          <CharString index="95">
            29.5 -54.5 134.5 0 0 531 -164 0 0 -371.5 rlineto
            return
          </CharString>
          <CharString index="96">
            -28.25 -29.5 -27.75 -12.5 -47.75 0 rrcurveto
            -29.25 -18 15 48 hvcurveto
            350.5 -164 vlineto
            return
          </CharString>
          <CharString index="97">
            159.25 -531 188 0 50.25 167.75 65.5 -167.75 186.5 0 160.25 531 -175.5 0 -84 -347 -77.75 213.75 30.75 133.25 -161 0 -79.5 -347 -88 347 rlineto
            return
          </CharString>
          <CharString index="98">
            94.75 -386.5 rlineto
            23.25 -94.5 55.5 -50 93 0 rrcurveto
            -67.75 -270 119.5 0 72 102 165.75 699 -168.5 0 -89.75 -394.75 rlineto
            -11.75 0.75 -28 0.75 -9 37.5 rrcurveto
            -78 355.75 rlineto
            return
          </CharString>
          <CharString index="99">
            235 0 -220 -263.5 0 -132.5 426 0 rlineto
            0 0 1 133 -1 1 rrcurveto
            -206.75 0 206.75 262 0 134 -441 0 rlineto
            return
          </CharString>
          <CharString index="100">
            -34 28.25 -28.25 34 34 27.25 28.25 34 34 -27.25 27.25 -34 -34 -28.25 -27.25 -34 vhcurveto
            return
          </CharString>
          <CharString index="101">
            -199.25 73.75 -168.75 190.75 vhcurveto
            217.5 hlineto
            151 90.5 125.5 242.5 192.25 -40.25 171.75 -201.25 hvcurveto
            -217.5 hlineto
            -219.75 -44.75 -177 -187 hvcurveto
            return
          </CharString>
          <CharString index="102">
            221.75 74 48.25 89 vhcurveto
            217.5 hlineto
            131 9 -150 -120 hvcurveto
            0 -204 -60.5 -69.75 -87 -0.25 rrcurveto
            -210 hlineto
            -114 0.25 -49 118.75 0 155 rrcurveto
            return
          </CharString>
          <CharString index="103">
            211 -208 82.75 86.5 -123.25 121.5 121.25 118.75 -85.75 84.25 rlineto
            return
          </CharString>
          <CharString index="104">
            292 85.5 -292 hlineto
            return
          </CharString>
          <CharString index="105">
            -57 46 -45 56 56 45 45 57 57 -45 46 -56 -56 -46 -46 -57 vhcurveto
            return
          </CharString>
          <CharString index="106">
            99 0 118 140.5 -132.5 0 rlineto
            return
          </CharString>
          <CharString index="107">
            -68.5 58.5 vlineto
            89 27 41.5 102 hvcurveto
            -104.5 hlineto
            0 -38 -1 -10 -28 -12 rrcurveto
            return
          </CharString>
          <CharString index="108">
            91.25 18.5 0 -375.5 125 0 0 484.25 -123.5 0 -92.75 -55 rlineto
            return
          </CharString>
          <CharString index="109">
            -126.5 43.5 -49 134.5 136.75 41.5 45.25 130.25 140.5 -44.5 45 -133.75 -133 -45 -42 -143.5 vhcurveto
            return
          </CharString>
          <CharString index="110">
            77.75 8.5 10.5 44.5 vhcurveto
            44.5 0 9.25 -8.75 -0.5 -79.5 -0.5 -75.75 -10.5 -4 -42.25 0 rrcurveto
            -39.75 -13.25 6.75 73 hvcurveto
            return
          </CharString>
          <CharString index="111">
            82.75 -86.5 211 208 -206 203 -85.75 -84.25 121.25 -118.75 rlineto
            return
          </CharString>
          <CharString index="112">
            114.5 0 436.5 760.5 -114.5 0 rlineto
            return
          </CharString>
          <CharString index="113">
            157 hlineto
            56.5 21.75 -8.25 -32 hvcurveto
            0 -63.5 -173.5 -124.75 -58 -39 rrcurveto
            -109.75 357 113.75 -166.75 vlineto
            45.75 35.75 121.25 95.5 0 97.25 0 86.25 -46.25 62.5 -107.75 0 rrcurveto
            return
          </CharString>
          <CharString index="114">
            -94.5 0 -52.5 -8.5 -60 -11.75 rrcurveto
            -0.25 0.25 -0.25 -93.75 0.5 0 rrcurveto
            return
          </CharString>
          <CharString index="115">
            165 hlineto
            38.25 27.75 -4.5 -28.5 hvcurveto
            -9.25 vlineto
            0 -26.5 -18.75 -5.5 -47.25 -1.25 rrcurveto
            return
          </CharString>
          <CharString index="116">
            -119.5 -7.75 0 -100.25 rlineto
            return
          </CharString>
          <CharString index="117">
            119.5 -5 rlineto
            41.75 -1 22.5 -5.75 0 -28.5 rrcurveto
            -8.75 vlineto
            -27.5 -15 -4.25 -53.25 vhcurveto
            0 -148 -0.25 -8 vhcurveto
            -1 -93.25 rlineto
            61.5 -22.25 73.75 2 79.25 0 rrcurveto
            90 45.75 45.75 77.75 hvcurveto
            21.25 vlineto
            0 50.5 -17.5 36.25 -42 14 41 13.75 18.5 32.5 0 48.5 rrcurveto
            28.25 vlineto
            0 74.25 -50.5 47.25 -80.25 0.75 rrcurveto
            return
          </CharString>
          <CharString index="118">
            -81.25 1.5 -81.5 0.5 -60.75 -22.25 rrcurveto
            return
          </CharString>
          <CharString index="119">
            102 0 57 56 54.5 -56 101 0 -94.25 137.5 -116 0 rlineto
            return
          </CharString>
          <CharString index="120">
            25.5 -60.5 rlineto
            32.5 21.5 20.75 13.25 40.25 0.25 rrcurveto
            return
          </CharString>
          <CharString index="121">
            38.25 0.25 29.25 -34.25 46.25 -0.75 48.75 -0.5 39.25 39.25 24.75 31 rrcurveto
            -25 66 rlineto
            -24.5 -21.5 -32 -19.25 -36 1.75 rrcurveto
            return
          </CharString>
          <CharString index="122">
            -37 0.25 -23.75 34 -45.5 0.75 rrcurveto
            -52.25 0 -40.75 -36.25 -28.75 -35.25 rrcurveto
            return
          </CharString>
          <CharString index="123">
            21.75 17.5 17.5 21.75 21.75 16.5 -17.5 -21.75 -21.75 -16.5 -16.5 -21.75 -21.75 -17.5 16.5 21.75 vhcurveto
            return
          </CharString>
          <CharString index="124">
            0 -143 115.974609375 -14 65.025390625 2.5 rrcurveto
            return
          </CharString>
          <CharString index="125">
            -87.75 12 -236.5 4 0 0 -69.775390625 0.75 -101.224609375 -23.169921875 0 -137.580078125 rrcurveto
            return
          </CharString>
          <CharString index="126">
            65 -338.5 325.5 hlineto
            173.5 78 129.5 233.5 192.75 -46 176.25 -205.5 -15 -310.5 0 -0.25 hvcurveto
            -324.25 -65 vlineto
            return
          </CharString>
          <CharString index="127">
            196.25 101.5 69 -101.5 181.5 vlineto
            146.5 0.25 rlineto
            62.25 39.5 -37 -188.25 -144.25 -26 -77.5 -75.75 hvcurveto
            return
          </CharString>
          <CharString index="128">
            -14 10 -9 14 vhcurveto
            82.25 hlineto
            14 10.5 5.75 17.25 hvcurveto
            71.25 vlineto
            15.5 -7.25 9.5 -17.25 vhcurveto
            -82.25 hlineto
            -16 -8 -10 -15 hvcurveto
            return
          </CharString>
          <CharString index="129">
            -20 13 -12 20 vhcurveto
            126.5 hlineto
            20 15 8 24 hvcurveto
            132.5 vlineto
            22 -10 13 -25 vhcurveto
            -126.5 hlineto
            -22 -11 -14 -21 hvcurveto
            return
          </CharString>
          <CharString index="130">
            -17.5 11.5 -8.25 14.25 vhcurveto
            return
          </CharString>
          <CharString index="131">
            11.25 -18 hlineto
            0 -10.5 -1 -21.75 -30.75 0.25 rrcurveto
            -62.75 vlineto
            0 142.25 -31 125 hvcurveto
            return
          </CharString>
          <CharString index="132">
            144.75 vlineto
            15.25 -6 12.5 -18.5 vhcurveto
            -97.25 hlineto
            -16.5 -9.25 -9.25 -18.5 hvcurveto
            return
          </CharString>
          <CharString index="133">
            11.25 -18 hlineto
            0 -10.5 -1 -21.75 -30.75 0.25 rrcurveto
            -62.75 vlineto
            0 142.25 -31.25 125.25 hvcurveto
            return
          </CharString>
          <CharString index="134">
            -17.5 11.25 -8.25 14.25 vhcurveto
            return
          </CharString>
          <CharString index="135">
            144.75 vlineto
            15.25 -6.25 12.5 -18.5 vhcurveto
            -97.25 hlineto
            -16.5 -9 -9.25 -18.5 hvcurveto
            return
          </CharString>
          <CharString index="136">
            -85 48.25 -38.5 86 vhcurveto
            119.25 hlineto
            81.25 48.25 40.25 83.25 hvcurveto
            237 vlineto
            68.5 -30 55 -99.5 vhcurveto
            -118.5 hlineto
            -86 -49 -42.5 -85.5 hvcurveto
            return
          </CharString>
          <CharString index="137">
            178.75 vlineto
            13.75 -2.75 24.75 42 vhcurveto
            55.75 hlineto
            25.5 12.5 -9.5 -29 hvcurveto
            -179.5 vlineto
            -32.75 -12.5 -5.75 -29.25 vhcurveto
            -48.25 hlineto
            -22.75 -20.25 4.5 34.75 hvcurveto
            return
          </CharString>
          <CharString index="138">
            0 102 44.75 6.25 0 97 -44.75 0 0 145.75 -102.25 0 -22.75 -50.25 rlineto
            return
          </CharString>
          <CharString index="139">
            94.25 hlineto
            26.25 4.25 -6.25 -24.75 hvcurveto
            -22.75 vlineto
            -22.5 -8.75 -6.75 -24.75 vhcurveto
            -34.75 hlineto
            -48.5 -8 35.75 47.25 hvcurveto
            return
          </CharString>
          <CharString index="140">
            226.5 0 -157.5 -370.5 136 0 183.5 432.25 -31.25 52 -357.25 0 rlineto
            return
          </CharString>
          <CharString index="141">
            28.25 vlineto
            20.5 7 10.5 28.5 vhcurveto
            55.75 hlineto
            26.75 7.25 -11.25 -19.75 hvcurveto
            -28.25 vlineto
            -19 -6.25 -10.25 -28.75 vhcurveto
            -54.25 hlineto
            -27.5 -8.5 7.75 21.5 hvcurveto
            return
          </CharString>
          <CharString index="142">
            19.25 vlineto
            28.75 11.5 4 26.25 vhcurveto
            50.5 hlineto
            21.5 15.5 -2.75 -30 hvcurveto
            -19.25 vlineto
            -17 -2.25 -13.25 -33.5 vhcurveto
            -54 hlineto
            -22.75 -12.75 5 25.25 hvcurveto
            return
          </CharString>
          <CharString index="143">
            22.75 vlineto
            24 8.75 7.5 24.75 vhcurveto
            35.5 hlineto
            48.5 7.25 -36.5 -51 hvcurveto
            -93.5 hlineto
            -26.25 -5 7 26.25 hvcurveto
            return
          </CharString>
          <CharString index="144">
            165 hlineto
            38.25 27.75 -4.5 -28.5 hvcurveto
            -8.5 vlineto
            0 -26.5 -18.75 -5.5 -47.25 -1.25 rrcurveto
            return
          </CharString>
          <CharString index="145">
            119.5 -5 rlineto
            41.75 -1 22.5 -5.75 0 -28.5 rrcurveto
            -8.75 vlineto
            -27.5 -15 -4.25 -53.25 vhcurveto
            0 -148 -0.25 -8 vhcurveto
            -1 -93.25 rlineto
            61.5 -22.25 73.75 2 79.25 0 rrcurveto
            90 45.75 45.75 77.75 hvcurveto
            21.25 vlineto
            0 50.5 -17.5 36.25 -42 14 41 13.75 18.5 32.5 0 48.5 rrcurveto
            28.25 vlineto
            0 75 -50.5 46.5 -80.25 0.75 rrcurveto
            return
          </CharString>
          <CharString index="146">
            -81.25 1.5 -81.5 -0.25 -60.75 -22.25 rrcurveto
            return
          </CharString>
          <CharString index="147">
            22.75 -54.75 227.25 0 0 -88.5 125 0 rlineto
            return
          </CharString>
          <CharString index="148">
            -136.75 1.25 -81 -11.75 -86 -17 rrcurveto
            return
          </CharString>
          <CharString index="149">
            -101.25 32.5 -77.75 143.5 vhcurveto
            81.5 0 50 4.25 49 16.75 -0.5 -75.75 -4.5 -83.75 -91 0 rrcurveto
            -236.5 -124.75 hlineto
            94 -19.5 130.25 -13 100.25 12 87.5 10.5 84.5 74.75 0 265 0 315 -77.5 69.75 -118.75 0.25 rrcurveto
            -140.75 hlineto
            -110.5 -73 -46 -125.5 hvcurveto
            return
          </CharString>
          <CharString index="150">
            473 135 -473 hlineto
            return
          </CharString>
          <CharString index="151">
            696 135 -696 hlineto
            return
          </CharString>
          <CharString index="152">
            -69 48.5 -45 65.5 67 49 44 70 vhcurveto
            -62 hlineto
            -31.5 -16 -20.5 -38 -32.25 -19.75 19.75 32.25 vhcurveto
            return
          </CharString>
          <CharString index="153">
            -139.5 -74.5 108.5 -143.5 103 29.5 rrcurveto
            82.5 vlineto
            -46.75 -4 -42.25 53.25 78.5 56.75 rrcurveto
            return
          </CharString>
          <CharString index="154">
            97.5 -137.5 116 0 101 137.5 -101.75 0 -54.75 -56 -56.75 56 rlineto
            return
          </CharString>
          <CharString index="155">
            -14 10 -9 14 vhcurveto
            80 hlineto
            14 9 8 15 hvcurveto
            84 vlineto
            14 -8 11 -15 vhcurveto
            -80 hlineto
            -16 -8 -10 -15 hvcurveto
            return
          </CharString>
          <CharString index="156">
            11 -134 83 0 10 134 0 67 -104 0 rlineto
            return
          </CharString>
          <CharString index="157">
            125.5 21.25 20.25 37 vhcurveto
            38 0 35.75 -5 24.75 -12.75 rrcurveto
            -240.25 vlineto
            -21 -18.25 -34.5 -9.75 -43 0 rrcurveto
            -38 -20.25 26 114.25 hvcurveto
            return
          </CharString>
          <CharString index="158">
            -0.75 1 0 18.25 0.75 1 -0.25 26.75 12 9.25 25.75 2.5 rrcurveto
            101 8.5 0 -63 rlineto
            -22.25 -28.5 -38.25 -10.75 -36.5 0.25 -28.5 -0.25 -13 14 0 21 rrcurveto
            return
          </CharString>
          <CharString index="159">
            -183.5 45.25 -94.5 153 vhcurveto
            45 0 42 10.75 32.5 27.5 rrcurveto
            -84.25 vlineto
            -64 -32 -31 -53 vhcurveto
            -213 -109 hlineto
            235.5 -24 rlineto
            147.25 -15.25 79.25 102.75 0 140.5 rrcurveto
            552.75 vlineto
            -52.25 17.5 -125.25 15.25 -106 0 rrcurveto
            -125 -73.25 -77.75 -183.75 hvcurveto
            return
          </CharString>
          <CharString index="160">
            60.75 1.5 76.5 70.25 vhcurveto
            82 -276.5 hlineto
            -29.75 -16.5 -20.25 -4 -33.5 0 rrcurveto
            -67.5 -2.75 54 105.75 hvcurveto
            return
          </CharString>
          <CharString index="161">
            250.75 hlineto
            52 44.5 -6.5 -54.5 hvcurveto
            -24 vlineto
            0 -49.75 -27.5 -8.75 -69 -3 rrcurveto
            -182.75 -10 0 -133 182.75 -7 rlineto
            61.5 -2.75 33 -8 0 -54 rrcurveto
            -21.5 vlineto
            -56.25 -28.75 -3 -71.75 vhcurveto
            return
          </CharString>
          <CharString index="162">
            -238 0 -0.75 -122 rlineto
            return
          </CharString>
          <CharString index="163">
            88 -31 110.25 3 114 0 rrcurveto
            122 69.5 65 118 hvcurveto
            36.5 vlineto
            0 76 -22 54 -57.5 21.5 55.75 20.5 23.75 50 0 73 rrcurveto
            46.5 vlineto
            0 112.25 -74.25 65.75 -110 2 rrcurveto
            return
          </CharString>
          <CharString index="164">
            34 -74.5 335.25 0 0 -147.5 164 0 0 147.5 67.5 26.5 0 126.5 -67.5 0 0 229.5 -134.75 0 -29.25 -77.25 0 -152.25 -143.75 0 191.25 429.5 -178 0 rlineto
            return
          </CharString>
          <CharString index="165">
            0 -315 77.5 -69.75 118.75 -0.25 rrcurveto
            140.75 hlineto
            110.5 73 46 125.5 hvcurveto
            101 vlineto
            101.25 -32.5 77.75 -143.5 vhcurveto
            -81.5 0 -50 -4.25 -49 -16.75 0.5 75.75 4.5 83.75 91 0 rrcurveto
            236.5 124.75 hlineto
            -94.5 18.25 -129.75 14.25 -100.25 -12 -87.5 -10.5 -84.5 -74.75 0 -265 rrcurveto
            return
          </CharString>
          <CharString index="166">
            60 0 40.25 -38 48.75 0 61.5 0 43.25 38.25 36 36 rrcurveto
            -25.75 69.75 rlineto
            -41.75 -24.75 -24.25 -14.25 -47 0 rrcurveto
            return
          </CharString>
          <CharString index="167">
            -49 -42.5 0 -61 rlineto
            -105.5 73.5 -48.5 94 vhcurveto
            150 hlineto
            131 41.5 71.5 82.5 hvcurveto
            55.5 vlineto
            116 -66.349609375 48.25 -100.900390625 vhcurveto
            -144.75 hlineto
            return
          </CharString>
          <CharString index="168">
            -22.119140625 -18.130859375 2 22.25 22.25 24.25 -1.25 16 hvcurveto
            111 hlineto
            152.5 35 90 82.5 hvcurveto
            0 60.25 -7.25 17.25 -8.75 22.5 rrcurveto
            51 18 0 93.5 -327 0 rlineto
            -124.25 -63.75 -62 -127 hvcurveto
            0 -53 14.75 -66.5 44 -28 rrcurveto
            -44 -15.5 -18.75 -38.25 0 -45 rrcurveto
            return
          </CharString>
          <CharString index="169">
            71.25 vlineto
            0 25.962890625 -2 15.287109375 vhcurveto
            74.5 hlineto
            33.201171875 -0.5693359375 13.048828125 -16.9306640625 0 -23.75 rrcurveto
            -31.75 vlineto
            -25.25 -2 -21.75 -47 vhcurveto
            -58.5 hlineto
            -35 -19.5 5.5 45.25 hvcurveto
            return
          </CharString>
          <CharString index="170">
            38.5 0 18.25 -12.71484375 0.75 -49.78515625 0.5 -48.5 -13.75 -20 -43.25 0 rrcurveto
            -41 hlineto
            -39.5 -15 19.5 49 hvcurveto
            return
          </CharString>
          <CharString index="171">
            -15.2998046875 9.8994140625 -7.2001953125 12.6005859375 vhcurveto
            9.8994140625 -9 hlineto
            0 -9.224609375 -0.8994140625 -12.8251953125 -27 0.8994140625 rrcurveto
            -49.0498046875 vlineto
            0 126 -35.7744140625 105.07421875 hvcurveto
            121.5 vlineto
            13.5 -5.400390625 10.80078125 -16.2001953125 vhcurveto
            -86.3994140625 hlineto
            -14.400390625 -8.099609375 -8.1005859375 -16.2001953125 hvcurveto
            return
          </CharString>
          <CharString index="172">
            -13.5 5.39999389648 -10.800994873 16.1999969482 vhcurveto
            86.3999938965 hlineto
            14.3999938965 8.10000610352 8.1009979248 16.1999969482 hvcurveto
            89.0989990234 vlineto
            15.3000030518 -9.90000915527 7.19999694824 -12.5999908447 vhcurveto
            -9.89999389648 9 hlineto
            -1.52587890625e-05 9.22500610352 0.900009155273 12.8249969482 27 -0.899002075195 rrcurveto
            49.0500030518 vlineto
            0 -1.52587890625e-05 -126 35.7740020752 0 -105.074005127 rrcurveto
            return
          </CharString>
          <CharString index="173">
            -85 36.5 -47.5 98 vhcurveto
            87 hlineto
            101 35.5 47.5 85 hvcurveto
            100.25 vlineto
            85 -36.5 47.5 -98 vhcurveto
            -87 hlineto
            -101 -35.5 -47.5 -85 hvcurveto
            return
          </CharString>
          <CharString index="174">
            55.25 vlineto
            36.75 14.25 8.25 31 vhcurveto
            49.5 hlineto
            30.5 12.75 -8 -37 hvcurveto
            -55.25 vlineto
            -27.75 -5.25 -17.25 -40 vhcurveto
            -49.5 hlineto
            -36.5 -6.75 16.25 28.75 hvcurveto
            return
          </CharString>
          <CharString index="175">
            116 0 275.5 570 -111.5 0 rlineto
            return
          </CharString>
          <CharString index="176">
            -85 37.25 -47.5 98 vhcurveto
            86.25 hlineto
            101 35.5 47.5 85 hvcurveto
            100.25 vlineto
            return
          </CharString>
          <CharString index="177">
            85 -36.5 47.5 -98 vhcurveto
            -86.25 hlineto
            -101 -36.25 -47.5 -85 hvcurveto
            return
          </CharString>
          <CharString index="178">
            55.25 vlineto
            36.75 14.25 8.25 31 vhcurveto
            50.25 hlineto
            30.5 12 -8 -37 hvcurveto
            -55.25 vlineto
            -27.75 -4.5 -17.25 -40 vhcurveto
            -50.25 hlineto
            -36.5 -6.75 16.25 28.75 hvcurveto
            return
          </CharString>
          <CharString index="179">
            171 0 34 103.25 158.5 0 31.5 -103.25 171 0 -176.5 570 -201.5 0 rlineto
            return
          </CharString>
          <CharString index="180">
            46.75 144.25 42.5 -144.25 rlineto
            return
          </CharString>
          <CharString index="181">
            271.5 hlineto
            126 68.5 38 124 hvcurveto
            0 81 -42.75 40 -44.75 8 46.75 5.5 37.75 38.25 0 83.25 rrcurveto
            107.5 -67.5 45.5 -124 vhcurveto
            -271.5 hlineto
            return
          </CharString>
          <CharString index="182">
            104.25 vlineto
            9 -0.5 83.5 0.5 0 0 rrcurveto
            31.25 12 -17.75 -34.75 -46.75 -22.5 -5 -20.75 hvcurveto
            return
          </CharString>
          <CharString index="183">
            86.25 92.5 vlineto
            26 16.5 -10.75 -30.75 -31.25 -9.25 -13.5 -33.25 hvcurveto
            return
          </CharString>
          <CharString index="184">
            -166.5 25.25 -132.5 201.25 vhcurveto
            106.25 0 51.25 3.25 68.5 30.5 rrcurveto
            109.5 vlineto
            0 0 -99.75 -16.25 -81.25 -0.5 -115 2 7.5 80.75 0 89.75 0 105.5 5.5 51 102 0 65 0 101 -14.5 15 -3 rrcurveto
            111.5 vlineto
            -68.25 27 -70.5 5.5 -87.25 0 rrcurveto
            -180.5 -46 -108.75 -174.25 hvcurveto
            return
          </CharString>
          <CharString index="185">
            277 hlineto
            85.5 133.5 -7.25 290.25 hvcurveto
            0 147.75 -37 139.25 -182 2 rrcurveto
            -277 hlineto
            return
          </CharString>
          <CharString index="186">
            289 92 vlineto
            48 28 -39.25 -108.25 -74 -9.25 -67.5 -66.75 hvcurveto
            return
          </CharString>
          <CharString index="187">
            0 -78.25 45.25 -35.25 68.75 -1.5 rrcurveto
            return
          </CharString>
          <CharString index="188">
            0 0 229 -2.5 85.5 19.5 rrcurveto
            124.5 vlineto
            return
          </CharString>
          <CharString index="189">
            -228.5 hlineto
            -21 -15 3 29 hvcurveto
            0 44.75 rlineto
            return
          </CharString>
          <CharString index="190">
            226 7 0 121 rlineto
            return
          </CharString>
          <CharString index="191">
            -226 8 0 45.25 rlineto
            24 2 9 30 vhcurveto
            return
          </CharString>
          <CharString index="192">
            232.5 124.75 hlineto
            return
          </CharString>
          <CharString index="193">
            -69.75 12.75 -224.75 3 0 0 -75.25 -1.5 -58.75 -31.25 0 -87.25 rrcurveto
            return
          </CharString>
          <CharString index="194">
            -226 8 0 61 rlineto
            0.5 23.25 1.5 9.75 30 0 rrcurveto
            return
          </CharString>
          <CharString index="195">
            -69.75 12.75 -224.75 3 0 0 -79 -1.5 -55 -31.25 0 -87.25 rrcurveto
            return
          </CharString>
          <CharString index="196">
            0 -50 -9 -243.25 199.5 0.25 74.25 0 35.75 15.5 29 35.5 rrcurveto
            return
          </CharString>
          <CharString index="197">
            37.5 -44 123.5 0 0 334.25 rlineto
            -24 2 -22 1 -21 0 rrcurveto
            return
          </CharString>
          <CharString index="198">
            -81 0 -49 -6.5 -40 -11 rrcurveto
            -86.5 vlineto
            return
          </CharString>
          <CharString index="199">
            73 -47.75 hlineto
            -5.5 -25.25 -34.5 -19.25 -43.5 0 -83.25 0.75 4.25 86.5 0 59.75 0 153.5 25.25 11 83.75 0 65.5 0 54.25 -2.5 83.75 -10.5 rrcurveto
            114.5 vlineto
            -64.75 22.25 -128.75 7.25 -85 -4.5 rrcurveto
            -155.5 -6.75 -42.5 -102.25 0 -184 rrcurveto
            return
          </CharString>
          <CharString index="200">
            164 201.5 161 -201.5 164 571 -164 -220.5 -161 220.5 -164 hlineto
            return
          </CharString>
          <CharString index="201">
            164 570 -164 hlineto
            return
          </CharString>
          <CharString index="202">
            49 -29 93 -10 70.5 34 55 26.75 6.5 76.25 0 46 rrcurveto
            405 -164 -345 vlineto
            -0.75 -58.75 -12.75 -20.5 -95.5 4.25 rrcurveto
            return
          </CharString>
          <CharString index="203">
            156.5 213 48.5 hlineto
            122.5 -213 183 0 -159.75 281 159.75 290 -183 0 -120.5 -224 -50.5 0 0 224 -156.5 0 rlineto
            return
          </CharString>
          <CharString index="204">
            -91.75 58.5 -39.25 72.5 vhcurveto
            296 149 -195 hlineto
            -41.25 0 -27 -0.5 0.25 57.5 rrcurveto
            364 -164 vlineto
            return
          </CharString>
          <CharString index="205">
            165.25 0 31.25 328.75 73 -328.75 169.75 0 70.25 330 32.75 -330 161.25 0 -52.5 571 -213.5 0 -84.5 -345.75 -85.5 345.75 -214 0 rlineto
            return
          </CharString>
          <CharString index="206">
            164 278.25 hlineto
            184 -278.25 160 0 0 571 -163 0 0 -273.5 -184 273.5 -161 0 rlineto
            return
          </CharString>
          <CharString index="207">
            -249 99.25 -36 161 168 93.25 47 245 256 -98.25 32 -163 -166 -94.25 -51 -244 vhcurveto
            return
          </CharString>
          <CharString index="208">
            131 29.75 10 66.5 76.75 20.5 -11 -128 -124.75 -26.5 -18.25 -70.75 -80 -16.25 22.5 118.5 vhcurveto
            return
          </CharString>
          <CharString index="209">
            164.25 198.5 hlineto
            return
          </CharString>
          <CharString index="210">
            3 -5.25 101.5 -8.5 24.75 0.75 64.25 1.5 102.75 14.25 0 183.25 rrcurveto
            144.5 -77.25 40 -104.75 vhcurveto
            -278.5 hlineto
            return
          </CharString>
          <CharString index="211">
            130.5 88.75 vlineto
            32.25 0 12 -23.5 -0.75 -42.5 rrcurveto
            return
          </CharString>
          <CharString index="212">
            -53 -17.5 -11.5 -26 vhcurveto
            return
          </CharString>
          <CharString index="213">
            164 199.5 hlineto
            0.25 -0.5 61.5 -6 7.5 -0.5 rrcurveto
            80.75 -192.5 174 0 -103 206 rlineto
            47.75 18.25 27.75 52.25 0 108.75 rrcurveto
            149 -87 35.25 -102.75 vhcurveto
            -270.75 hlineto
            return
          </CharString>
          <CharString index="214">
            130.75 88.75 vlineto
            25 18.75 -15.5 -48.5 -53 -17.75 -13.75 -26 hvcurveto
            return
          </CharString>
          <CharString index="215">
            -96 35.75 -61.25 117.25 vhcurveto
            117.5 hlineto
            23 10.5 -7.25 -21.5 hvcurveto
            -28 vlineto
            0 -4.5 -28.5 -29 -102 -146.5 6 0 vhcurveto
            -115 vlineto
            40.75 -24 214.25 -1 46 0 rrcurveto
            82.75 62.25 35.5 122.5 hvcurveto
            40 vlineto
            86.25 -27.25 76.5 -117.75 vhcurveto
            -125 hlineto
            -23.5 -10.5 5.25 25.5 hvcurveto
            23.75 vlineto
            19 9 15.75 25 110 133 -7.75 0 vhcurveto
            117 vlineto
            -83.5 18.75 -145 5 -52 0 rrcurveto
            -127.75 -32.75 -76.75 -87.25 hvcurveto
            return
          </CharString>
          <CharString index="216">
            156 -421 164 421 156 149 -476 hlineto
            return
          </CharString>
          <CharString index="217">
            -1 -239 119 -26 136 0 rrcurveto
            121 128 32 233 hvcurveto
            310 -165 -310 vlineto
            -97.5 -29.25 -18.5 -54.75 vhcurveto
            -56.25 0 -33 15.5 0.25 100.5 rrcurveto
            310 -165 vlineto
            return
          </CharString>
          <CharString index="218">
            161.25 -570 202.5 0 41.5 143.25 44.75 -143.25 201.5 0 152 570 -169.5 0 -83.75 -373.25 -75.5 225.75 40 147.5 -170.75 0 -82.75 -373.25 -90.25 373.25 rlineto
            return
          </CharString>
          <CharString index="219">
            197 -372.5 0 -198.5 164 0 0 198.5 195 372.5 -178.5 0 -97.5 -197 -101.5 197 rlineto
            return
          </CharString>
          <CharString index="220">
            456 149 -234 hlineto
            234 272 0 149 -456 0 0 -149 245.5 0 -245.5 -272 rlineto
            return
          </CharString>
          <CharString index="221">
            -34 28.25 -28.25 34 34 27.25 28.25 34 34 -27.25 27.5 -34 -34 -28.25 -27.5 -34 vhcurveto
            return
          </CharString>
          <CharString index="222">
            -57 45.75 -45.25 56 56 45 45.25 57 57 -45 46 -56 -56 -45.75 -46 -57 vhcurveto
            return
          </CharString>
          <CharString index="223">
            21.75 17.25 17.25 21.75 21.75 16.5 -17.25 -21.75 -21.75 -16.5 -16.5 -21.75 -21.75 -17.25 16.5 21.75 vhcurveto
            return
          </CharString>
          <CharString index="224">
            58 -255.5 273.5 hlineto
            81.75 135.75 -7.5 290.5 hvcurveto
            0 147.75 -36.5 139.5 -179.75 1.5 -6.25 0 -265.5 0.5 -3 -0.25 rrcurveto
            -247.5 -58 vlineto
            return
          </CharString>
          <CharString index="225">
            113.75 73.5 69 -73.5 105 85.25 vlineto
            48 27 -37.5 -109 -75.25 -9.75 -66 -66.75 hvcurveto
            return
          </CharString>
          <CharString index="226">
            -18 11.75 -8.25 14.5 vhcurveto
            return
          </CharString>
          <CharString index="227">
            147.25 vlineto
            16 -6.25 12.5 -19 vhcurveto
            -99 hlineto
            -17 -9.25 -9.5 -19 hvcurveto
            return
          </CharString>
          <CharString index="228">
            -18 12.25 -8.25 14.5 vhcurveto
            return
          </CharString>
          <CharString index="229">
            147.25 vlineto
            16 -6.5 12.5 -19 vhcurveto
            -98.25 hlineto
            -17 -9.75 -9.5 -19 hvcurveto
            return
          </CharString>
          <CharString index="230">
            -18 11.25 -8.25 14.5 vhcurveto
            return
          </CharString>
          <CharString index="231">
            147.25 vlineto
            16 -6.25 12.5 -19 vhcurveto
            -99.5 hlineto
            -17 -8.75 -9.5 -19 hvcurveto
            return
          </CharString>
          <CharString index="232">
            165 582.75 hlineto
            0 17 21.75 5.75 3.25 -15.75 rrcurveto
            101.25 -462.75 rlineto
            27.25 -193 315.25 28.5 0 181 rrcurveto
            588.5 -164 -571.75 vlineto
            0 -15 -20.5 -7.5 -3.5 19.5 rrcurveto
            -100.5 457.5 rlineto
            -25.5 172.25 -319.75 -1.5 0 -195.75 rrcurveto
            return
          </CharString>
          <CharString index="233">
            163 0 21 533.25 rlineto
            1 17 23.75 6.75 1.25 -16.75 rrcurveto
            34.25 -274.75 rlineto
            14.25 -141.75 285 6.25 14.25 133.25 rrcurveto
            30 269 rlineto
            1 16 24.5 3.75 0.75 -17 rrcurveto
            27 -535 165.5 0 -38.5 622 rlineto
            -7.5 152.25 -313 5 -6.75 -172.5 rrcurveto
            -28 -284.25 rlineto
            -1 -15.75 -26.75 -4 -1.5 19.75 rrcurveto
            -31 281 rlineto
            -6.75 175.5 -307.25 -4 -6.75 -162 rrcurveto
            return
          </CharString>
          <CharString index="234">
            164 376.5 hlineto
            34.25 27 32.25 2.5 35.75 0 rrcurveto
            37.5 11.25 -19.5 -46.5 hvcurveto
            -340 164 346 vlineto
            0 5 -0.5 20.75 -1.5 4.75 34.25 27 32.25 2.5 35.75 0 rrcurveto
            37.5 11.25 -19.5 -46.5 hvcurveto
            -340 164 370 vlineto
            94 -50.5 76 -106 vhcurveto
            -76 0 -63.5 -11.5 -63.75 -29.5 -25.5 25.5 -59.25 15.5 -47.5 0 -151.5 0 -53.25 -10 -95.25 -62 rrcurveto
            return
          </CharString>
          <CharString index="235">
            164 376.5 hlineto
            34.25 27 32.25 2.5 35.75 0 rrcurveto
            37.5 11.25 -19.5 -46.5 hvcurveto
            -340 164 370 vlineto
            94 -65.5 76 -106 vhcurveto
            -151.5 0 -60.75 -10 -95.25 -62 rrcurveto
            return
          </CharString>
          <CharString index="236">
            164 384 hlineto
            51 22 73.25 1.5 68 -12 rrcurveto
            142.5 vlineto
            -163 14 -113.25 -12.75 -80 -63.75 rrcurveto
            return
          </CharString>
          <CharString index="237">
            -113 71.5 -33 95.5 vhcurveto
            144 hlineto
            106 49 51.25 119.75 hvcurveto
            91 vlineto
            0 172 -26.25 102.75 -164.75 0.25 -116.25 0.25 -46 -2 -101.75 -35 rrcurveto
            -97.25 vlineto
            87.25 9.5 48.5 2.5 50.25 0 86 0.25 19 -7 0 -83.75 rrcurveto
            -135 hlineto
            -151.5 -15.5 -67.5 -77 hvcurveto
            return
          </CharString>
          <CharString index="238">
            19 vlineto
            0 27 7 12.25 33.5 2.25 rrcurveto
            97.5 7 0 -63.5 rlineto
            -35.5 -11.75 -10.5 -33.25 vhcurveto
            -51.75 hlineto
            -35.25 -6 11 31 hvcurveto
            return
          </CharString>
          <CharString index="239">
            -94 53.5 -76 133 vhcurveto
            151.5 0 70.5 12.25 70.5 52.25 rrcurveto
            475.5 -164 -382.75 vlineto
            -23.75 -20.5 -42.75 -2.75 -35.75 0 rrcurveto
            -37.5 -11.25 19.5 46.5 hvcurveto
            340 -164 vlineto
            return
          </CharString>
          <CharString index="240">
            53.75 -31 133.5 -1.75 96.25 0 rrcurveto
            125 73.25 77 192 183.5 -45.25 94.5 -153 hvcurveto
            -45 0 -42 -10.75 -32.5 -28.25 rrcurveto
            283 -164 vlineto
            return
          </CharString>
          <CharString index="241">
            284 vlineto
            29.75 16.5 20.25 4 33.5 0 rrcurveto
            67.5 2.75 -54 -105.75 -60.75 -1.5 -84 -70.25 hvcurveto
            return
          </CharString>
          <CharString index="242">
            -192 73.25 -77 125 vhcurveto
            96.25 0 133.5 1.75 53.75 31 rrcurveto
            759 -164 -283.75 vlineto
            -32.5 28.25 -42 10.75 -45 0 rrcurveto
            -153 -45.25 -94.5 -183.5 hvcurveto
            return
          </CharString>
          <CharString index="243">
            105.75 2.75 54 67.5 vhcurveto
            33.5 0 20.25 -4 29.75 -16.5 rrcurveto
            -284 -82 vlineto
            -70.25 -1.5 84 60.75 hvcurveto
            return
          </CharString>
          <CharString index="244">
            164 412 112 119 -112 54 hlineto
            67.5 2.25 16.5 49.75 vhcurveto
            0 107 -1 1 vhcurveto
            94 vlineto
            -48.25 18.75 -54 5.25 -60.25 0 rrcurveto
            -145.5 -16 -117 -54 hvcurveto
            return
          </CharString>
          <CharString index="245">
            164 299.5 hlineto
            32.5 -28.25 42 -10.75 45 0 rrcurveto
            153 45.25 94.5 183.5 192 -73.25 77 -125 hvcurveto
            -106 0 -125.25 -15.25 -52.25 -17.5 rrcurveto
            return
          </CharString>
          <CharString index="246">
            284 82 vlineto
            70.25 1.5 -84 -60.75 -105.75 -2.75 -54 -67.5 hvcurveto
            -33.5 0 -20.25 4 -29.75 16.5 rrcurveto
            return
          </CharString>
          <CharString index="247">
            -148.5 55 -42 74.75 vhcurveto
            134.5 98 hlineto
            -7 -52 21 0 hvcurveto
            -25 11 -16.25 15.5 0 75 rrcurveto
            193 102.5 119 -102.5 148 -164 vlineto
            return
          </CharString>
        <CharString name=".notdef">
          185 0 13 505 13 hstem
          67 14 530 14 vstem
          611 506 rmoveto
          0 -481 -252 241 rlineto
          -265 -253 rmoveto
          254 243 253 -243 rlineto
          -520 9 rmoveto
          0 485 256 -241 rlineto
          265 252 rmoveto
          -254 -242 -257 242 rlineto
          -24 -518 rmoveto
          558 531 -558 hlineto
          endchar
        </CharString>
        <CharString name="A">
          193 21 -21 21 -21 147 142.25 442.75 -20 hstemhm
          hintmask 10110000
          30 hmoveto
          -80 callsubr
          20.75 -442.75 rmoveto
          -79 callsubr
          endchar
        </CharString>
        <CharString name="AE">
          459 -3.5 154 -137 136.75 31.75 141.5 -40 155.5 -146.25 135.5 150.75 153 -153 137 hstemhm
          455.25 164 hintmask 10100001
          20.25 hmoveto
          181.5 0 90.75 182 162.75 0 0 -61 rlineto
          0 -113 112 -15.5 69 4 rrcurveto
          hintmask 01000001
          0 0 222.25 6.5 77.25 10.5 rrcurveto
          0 136.75 rlineto
          hintmask 10010001
          -254.5 0.25 rlineto
          -29 -33 -2.25 53 hvcurveto
          0 82.25 rlineto
          hintmask 00001001
          269.25 9.25 0 135.5 rlineto
          hintmask 00010101
          -269.25 10.75 0 84.75 rlineto
          0.5 27 0 28.25 51 0 rrcurveto
          hintmask 00000011
          265.25 137 hlineto
          hintmask 10100101
          -87.75 12 -222.5 4 0 0 -125 5.25 -124 -12.5 -78.75 -159.75 rrcurveto
          62.25 -241.5 rmoveto
          95 201 0 -201 rlineto
          endchar
        </CharString>
        <CharString name="Aacute">
          193 0 21 126 142.25 422.75 20 65 140.5 hstem
          314.625 217 vstem
          314.625 797 rmoveto
          -1 callsubr
          -369.125 -937.5 rmoveto
          -80 callsubr
          20.75 -442.75 rmoveto
          -79 callsubr
          endchar
        </CharString>
        <CharString name="Abreve">
          193 0 21 126 142.25 422.75 20 65 62 hstem
          249.125 62 106 62 vstem
          249.125 911 rmoveto
          45 callsubr
          -281.125 -911 rmoveto
          -80 callsubr
          20.75 -442.75 rmoveto
          -79 callsubr
          endchar
        </CharString>
        <CharString name="Acircumflex">
          193 0 21 126 142.25 422.75 20 65 137.5 hstem
          206.875 314.5 vstem
          206.875 797 rmoveto
          12 callsubr
          0 vmoveto
          116 hmoveto
          -397.125 -934.5 rmoveto
          -80 callsubr
          20.75 -442.75 rmoveto
          -79 callsubr
          endchar
        </CharString>
        <CharString name="Adieresis">
          193 0 21 126 142.25 422.75 20 65 123.5 hstem
          174.875 123.5 131.5 123.5 vstem
          174.875 859.25 rmoveto
          -7 callsubr
          255 hmoveto
          -7 callsubr
          -399.875 -859.25 rmoveto
          -80 callsubr
          20.75 -442.75 rmoveto
          -79 callsubr
          endchar
        </CharString>
        <CharString name="Agrave">
          193 0 21 126 142.25 422.75 20 65 140.5 hstem
          196.625 217 vstem
          196.625 937.5 rmoveto
          -42 callsubr
          -299.125 -937.5 rmoveto
          -80 callsubr
          20.75 -442.75 rmoveto
          -79 callsubr
          endchar
        </CharString>
        <CharString name="Amacron">
          193 0 21 126 142.25 422.75 20 65 85.5 hstem
          218.125 292 vstem
          218.125 797 rmoveto
          -3 callsubr
          -188.125 -882.5 rmoveto
          -80 callsubr
          20.75 -442.75 rmoveto
          -79 callsubr
          endchar
        </CharString>
        <CharString name="Aogonek">
          193 -187.349487305 82.5 86 20 -1.15051269531 21 126 142.25 422.75 20 hstemhm
          hintmask 11000000
          577.333007812 1.150390625 rmoveto
          46 callsubr
          hintmask 00111000
          -608.833007812 -1.150390625 rmoveto
          -80 callsubr
          20.75 -442.75 rmoveto
          -79 callsubr
          endchar
        </CharString>
        <CharString name="Aring">
          193 0 21 126 142.25 422.75 20 -1.83299255371 63.75 77.5 63.75 hstemhm
          262.625 62.75 77.5 62.75 hintmask 00011110
          262.625 832.166992188 rmoveto
          -2 callsubr
          62.75 hmoveto
          16 callsubr
          hintmask 11100000
          -295.375 -832.166992188 rmoveto
          -80 callsubr
          20.75 -442.75 rmoveto
          -79 callsubr
          endchar
        </CharString>
        <CharString name="Atilde">
          193 0 21 126 142.25 422.75 20 65.25 96.75 -62 97 hstemhm
          hintmask 00001000
          191.375 857.5 rmoveto
          13 callsubr
          hintmask 00010000
          14 callsubr
          hintmask 00001000
          15 callsubr
          hintmask 11100000
          -161.375 -857.5 rmoveto
          -80 callsubr
          20.75 -442.75 rmoveto
          -79 callsubr
          endchar
        </CharString>
        <CharString name="B">
          100 0 141.5 174.5 134 140.5 141.5 hstemhm
          53.75 164.25 196.25 161 -149.5 164 hintmask 11110100
          53.75 hmoveto
          -78 callsubr
          hintmask 11111000
          -77 callsubr
          164.25 -590.5 rmoveto
          174.5 141 vlineto
          hintmask 11110100
          -76 callsubr
          -141 308.5 rmoveto
          -75 callsubr
          hintmask 11111000
          -74 callsubr
          endchar
        </CharString>
        <CharString name="C">
          62 -6 149 448 149 hstem
          37 164 vstem
          37 368 rmoveto
          -73 callsubr
          endchar
        </CharString>
        <CharString name="Cacute">
          62 -6 149 448 149 60 140.5 hstem
          37 164 82.25 217 vstem
          283.25 800 rmoveto
          -1 callsubr
          -330.75 -572.5 rmoveto
          -73 callsubr
          endchar
        </CharString>
        <CharString name="Ccaron">
          62 -6 149 448 149 60 137.5 hstemhm
          37 164 -18.25 314.5 hintmask 00101000
          182.75 937.5 rmoveto
          47 callsubr
          -3.75 -137.5 rmoveto
          116 hmoveto
          hintmask 11010000
          -359.25 -432 rmoveto
          -73 callsubr
          endchar
        </CharString>
        <CharString name="Ccedilla">
          62 -180.25 143.5 30.75 149 448 149 hstemhm
          37 164 -55.5 104.5 hintmask 10001000
          75.5 -111.75 rmoveto
          0 callsubr
          hintmask 01110000
          -79.5 464.75 rmoveto
          -73 callsubr
          endchar
        </CharString>
        <CharString name="Ccircumflex">
          62 -6 149 448 149 60 137.5 hstemhm
          37 164 -27 314.5 hintmask 00101000
          174 800 rmoveto
          12 callsubr
          0 vmoveto
          116 hmoveto
          hintmask 11010000
          -357.25 -569.5 rmoveto
          -73 callsubr
          endchar
        </CharString>
        <CharString name="Cdotaccent">
          62 -6 149 448 149 60.5 132 hstem
          37 164 63.5 127 vstem
          264.5 823.5 rmoveto
          48 callsubr
          -227.5 -539.5 rmoveto
          -73 callsubr
          endchar
        </CharString>
        <CharString name="D">
          157 0 142.25 448.25 141.5 hstem
          53.75 164 249 164 vstem
          53.75 hmoveto
          -72 callsubr
          164 -589.75 rmoveto
          -71 callsubr
          endchar
        </CharString>
        <CharString name="Dcaron">
          157 0 142.25 448.25 141.5 63.75 137.5 hstemhm
          53.75 164 -57 314.5 -8.5 164 hintmask 00101000
          160.75 933.25 rmoveto
          47 callsubr
          -3.75 -137.5 rmoveto
          116 hmoveto
          hintmask 11010100
          -320.5 -795.75 rmoveto
          -72 callsubr
          164 -589.75 rmoveto
          -71 callsubr
          endchar
        </CharString>
        <CharString name="Dcroat">
          157 0 142.25 196.25 69 181.5 143 hstem
          53.75 164 248.25 164.75 vstem
          -11.25 338.5 rmoveto
          19 callsubr
          229 -265.25 rmoveto
          20 callsubr
          endchar
        </CharString>
        <CharString name="E">
          60 -3 152.75 -135.75 135.75 135 155.5 -146.25 135.5 149.75 152.75 -152.75 136.75 hstemhm
          50 164 hintmask 10000010
          50 151.5 rmoveto
          0 -143 115.975006104 -14 65.0249938965 2.5 rrcurveto
          hintmask 01000010
          -70 callsubr
          hintmask 10100010
          -69 callsubr
          hintmask 00010010
          -68 callsubr
          hintmask 00101010
          -67 callsubr
          hintmask 00000110
          -66 callsubr
          hintmask 10001010
          -87.75 12 -236.5 4 0 0 -69.7749938965 0.75 -101.225006104 -23.1699981689 0 -137.580001831 rrcurveto
          endchar
        </CharString>
        <CharString name="Eacute">
          60 -3 152.75 -135.75 135.75 135 155.5 -146.25 135.5 149.75 136.75 -136.75 152.75 63.75 140.5 hstemhm
          50 164 57.25 217 hintmask 0000001010000000
          271.25 795.75 rmoveto
          -1 callsubr
          hintmask 1000000100000000
          -305.75 -784.75 rmoveto
          17 callsubr
          hintmask 0100000100000000
          -70 callsubr
          hintmask 1010000100000000
          -69 callsubr
          hintmask 0001000100000000
          -68 callsubr
          hintmask 0010010100000000
          -67 callsubr
          hintmask 0000100100000000
          -66 callsubr
          hintmask 1000010100000000
          18 callsubr
          endchar
        </CharString>
        <CharString name="Ecaron">
          60 -3 152.75 -135.75 135.75 135 155.5 -146.25 135.5 149.75 136.75 -136.75 152.75 63.75 137.5 hstemhm
          50 164 -50.25 314.5 hintmask 0000001010000000
          163.75 933.25 rmoveto
          47 callsubr
          -3.75 -137.5 rmoveto
          116 hmoveto
          hintmask 1000000100000000
          -327.25 -644.25 rmoveto
          17 callsubr
          hintmask 0100000100000000
          -70 callsubr
          hintmask 1010000100000000
          -69 callsubr
          hintmask 0001000100000000
          -68 callsubr
          hintmask 0010010100000000
          -67 callsubr
          hintmask 0000100100000000
          -66 callsubr
          hintmask 1000010100000000
          18 callsubr
          endchar
        </CharString>
        <CharString name="Ecircumflex">
          60 -3 152.75 -135.75 135.75 135 155.5 -146.25 135.5 149.75 136.75 -136.75 152.75 65 137.5 hstemhm
          50 164 -53 314.5 hintmask 0000001010000000
          161 797 rmoveto
          12 callsubr
          0 vmoveto
          116 hmoveto
          hintmask 1000000100000000
          -331.25 -783 rmoveto
          17 callsubr
          hintmask 0100000100000000
          -70 callsubr
          hintmask 1010000100000000
          -69 callsubr
          hintmask 0001000100000000
          -68 callsubr
          hintmask 0010010100000000
          -67 callsubr
          hintmask 0000100100000000
          -66 callsubr
          hintmask 1000010100000000
          18 callsubr
          endchar
        </CharString>
        <CharString name="Edieresis">
          60 -3 152.75 -135.75 135.75 135 155.5 -146.25 135.5 149.75 136.75 -136.75 152.75 63.75 123.5 hstemhm
          50 164 -92.25 123.5 131.5 123.5 hintmask 0000001011000000
          121.75 858 rmoveto
          -7 callsubr
          255 hmoveto
          -7 callsubr
          hintmask 1000000100000000
          -326.75 -706.5 rmoveto
          17 callsubr
          hintmask 0100000100000000
          -70 callsubr
          hintmask 1010000100000000
          -69 callsubr
          hintmask 0001000100000000
          -68 callsubr
          hintmask 0010010100000000
          -67 callsubr
          hintmask 0000100100000000
          -66 callsubr
          hintmask 1000010100000000
          18 callsubr
          endchar
        </CharString>
        <CharString name="Edotaccent">
          60 -3 152.75 -135.75 135.75 135 155.5 -146.25 135.5 149.75 136.75 -136.75 152.75 64.25 132 hstemhm
          50 164 49 127 hintmask 0000001010000000
          263 819.25 rmoveto
          48 callsubr
          hintmask 1000000100000000
          -213 -751.75 rmoveto
          17 callsubr
          hintmask 0100000100000000
          -70 callsubr
          hintmask 1010000100000000
          -69 callsubr
          hintmask 0001000100000000
          -68 callsubr
          hintmask 0010010100000000
          -67 callsubr
          hintmask 0000100100000000
          -66 callsubr
          hintmask 1000010100000000
          18 callsubr
          endchar
        </CharString>
        <CharString name="Egrave">
          60 -3 152.75 -135.75 135.75 135 155.5 -146.25 135.5 149.75 136.75 -136.75 152.75 64.5 140.5 hstemhm
          50 164 -53.75 217 hintmask 0000001010000000
          160.25 937 rmoveto
          -42 callsubr
          hintmask 1000000100000000
          -242.75 -785.5 rmoveto
          17 callsubr
          hintmask 0100000100000000
          -70 callsubr
          hintmask 1010000100000000
          -69 callsubr
          hintmask 0001000100000000
          -68 callsubr
          hintmask 0010010100000000
          -67 callsubr
          hintmask 0000100100000000
          -66 callsubr
          hintmask 1000010100000000
          18 callsubr
          endchar
        </CharString>
        <CharString name="Emacron">
          60 -3 152.75 -135.75 135.75 135 155.5 -146.25 135.5 149.75 136.75 -136.75 152.75 64.5 85.5 hstemhm
          50 164 -50.75 292 hintmask 0000001010000000
          163.25 796.5 rmoveto
          -3 callsubr
          hintmask 1000000100000000
          -113.25 -730.5 rmoveto
          17 callsubr
          hintmask 0100000100000000
          -70 callsubr
          hintmask 1010000100000000
          -69 callsubr
          hintmask 0001000100000000
          -68 callsubr
          hintmask 0010010100000000
          -67 callsubr
          hintmask 0000100100000000
          -66 callsubr
          hintmask 1000010100000000
          18 callsubr
          endchar
        </CharString>
        <CharString name="Eng">
          170 -257 117 161 -21 21 -21 732 -20 hstemhm
          53.75 164.75 255 164 hintmask 11011100
          53.75 hmoveto
          164.75 0 0.5 421.5 rlineto
          hintmask 10111100
          254.5 -421.5 0 -62.5 rlineto
          0 -73.5 -49.75 0.75 -52.75 -4.75 rrcurveto
          -117 vlineto
          119.5 -9.75 147 15 0 182.75 rrcurveto
          0 69 0 732 -164 0 0 -426.5 -253.75 426.5 -166 0 rlineto
          endchar
        </CharString>
        <CharString name="Eogonek">
          60 -173.967803955 82.5 86 20 -17.5321960449 152.75 -135.75 135.75 135 155.5 -146.25 135.5 149.75 136.75 -136.75 152.75 hstemhm
          50 164 hintmask 1100000000000000
          483.708007812 14.5322265625 rmoveto
          46 callsubr
          hintmask 0010000010000000
          -495.208007812 136.967773438 rmoveto
          17 callsubr
          hintmask 0001000010000000
          -70 callsubr
          hintmask 0010100010000000
          -69 callsubr
          hintmask 0000010010000000
          -68 callsubr
          hintmask 0000100110000000
          -67 callsubr
          hintmask 0000001010000000
          -66 callsubr
          hintmask 0010000110000000
          18 callsubr
          endchar
        </CharString>
        <CharString name="Eth">
          157 0 142.25 196.25 69 181.5 143 hstem
          53.75 164 248.25 164.75 vstem
          -11.25 338.5 rmoveto
          19 callsubr
          229 -265.25 rmoveto
          20 callsubr
          endchar
        </CharString>
        <CharString name="Euro">
          113 -6 134 112.5 91 -84 77 63 90 -82 73 130 141.5 hstemhm
          86.25 164 hintmask 10100110
          13.25 247.5 rmoveto
          hintmask 11000110
          73 -7 rlineto
          -226 172 -20.5 77 vhcurveto
          113 0 87.25 7.5 71.25 35 rrcurveto
          116 vlineto
          0 -137.75 -24.5 -88.75 -67 -63 10.75 101.75 vhcurveto
          hintmask 10100110
          -3 2 237 5 0 0 rrcurveto
          0 77 rlineto
          hintmask 11010110
          -234 7 0 56 234 7 0 76 -234 7 rlineto
          79.5 2 41.5 128 82 140.5 -15 0 vhcurveto
          119 vlineto
          -82 27.25 -133.5 10.25 -52 0 rrcurveto
          -244 -5 -190.5 -72 hvcurveto
          hintmask 10001110
          -73 -9 0 -73 rlineto
          hintmask 11010110
          73 -8 0 -56 rlineto
          hintmask 10100110
          -73 -7 rlineto
          endchar
        </CharString>
        <CharString name="Euro.smcp">
          13 -5 137 63.25 69.5 40 66.5 71.75 134 hstem
          63.75 165 vstem
          10.75 195.25 rmoveto
          53 -6 rlineto
          -176 123 -18.25 85 vhcurveto
          65 0 111.25 6.25 50.25 21.75 rrcurveto
          122 vlineto
          0 -115 -13 -74 -39 -41.5 3 54.25 vhcurveto
          -2 2 172 4 0 0 rrcurveto
          0 69.5 -170 5 0 29 170 5 0 68.5 -170 6 rlineto
          47.5 21.5 17.25 59 64 122 -11 0 vhcurveto
          122 vlineto
          -79.75 14.5 -102.75 8.5 -41 0 rrcurveto
          -199 -9 -142.75 -56 hvcurveto
          -53 -7 0 -66.5 53 -6 0 -29 -53 -5 rlineto
          endchar
        </CharString>
        <CharString name="F">
          60 21 -21 21 -21 284.75 155.5 -146.25 135.5 149.75 152.75 -152.75 136.75 hstemhm
          50 164 hintmask 10100010
          50 hmoveto
          164 284.75 hlineto
          hintmask 00010010
          -68 callsubr
          hintmask 00101010
          -67 callsubr
          hintmask 00000110
          -66 callsubr
          hintmask 10101010
          -87.75 12 -236.5 4 0 0 -80.2749938965 1.5 -90.7250061035 -37.25 0 -127.25 rrcurveto
          endchar
        </CharString>
        <CharString name="G">
          107 -5 151.75 152.25 127.5 -127.5 102.5 197 141.5 hstemhm
          37 164 213.5 164 hintmask 11011100
          37 370 rmoveto
          -65 callsubr
          hintmask 10111100
          -64 callsubr
          hintmask 11011100
          -63 callsubr
          endchar
        </CharString>
        <CharString name="Gbreve">
          107 -5 151.75 152.25 102.5 -102.5 127.5 172 141.5 60 62 hstemhm
          37 164 7.25 62 106 62 -23.75 164 hintmask 0000101100000000
          208.25 914 rmoveto
          45 callsubr
          hintmask 1011010010000000
          -233.25 -544 rmoveto
          -65 callsubr
          hintmask 1101010010000000
          -64 callsubr
          hintmask 1011010010000000
          -63 callsubr
          endchar
        </CharString>
        <CharString name="Gcircumflex">
          107 -5 151.75 152.25 102.5 -102.5 127.5 172 141.5 60 137.5 hstemhm
          37 164 -25.25 314.5 -75.75 164 hintmask 00001010
          175.75 800 rmoveto
          12 callsubr
          0 vmoveto
          116 hmoveto
          hintmask 10110101
          -359 -567.5 rmoveto
          -65 callsubr
          hintmask 11010101
          -64 callsubr
          hintmask 10110101
          -63 callsubr
          endchar
        </CharString>
        <CharString name="Gcommaaccent">
          107 -292.699996948 49.0500030518 238.649993896 151.75 152.25 102.5 -102.5 127.5 172 141.5 hstemhm
          37 164 43.7749938965 130.5 39.2250061035 164 hintmask 10000010
          244.775390625 -191 rmoveto
          64 callsubr
          hintmask 01011101
          -207.775390625 471.900390625 rmoveto
          -65 callsubr
          hintmask 01101101
          -64 callsubr
          hintmask 01011101
          -63 callsubr
          endchar
        </CharString>
        <CharString name="Gdotaccent">
          107 -5 151.75 152.25 102.5 -102.5 127.5 172 141.5 60 132 hstemhm
          37 164 60.75 127 25.75 164 hintmask 00001010
          261.75 823 rmoveto
          48 callsubr
          hintmask 10110101
          -224.75 -537 rmoveto
          -65 callsubr
          hintmask 11010101
          -64 callsubr
          hintmask 10110101
          -63 callsubr
          endchar
        </CharString>
        <CharString name="H">
          129 21 -21 21 -21 279.5 149 303.5 -20 hstemhm
          53.75 164 215 164 hintmask 10111100
          53.75 hmoveto
          -62 callsubr
          endchar
        </CharString>
        <CharString name="Hbar">
          190 21 -21 21 -21 279.5 149 87.5 69 147 -20 hstemhm
          77 164 215 164 hintmask 10111110
          13 516 rmoveto
          64 -516 164 279.5 215 -279.5 164 516 63.5 69 -63.5 147 -164 -147 -215 hlineto
          147 -164 -147 -64 vlineto
          228 -156.5 rmoveto
          87.5 215 -87.5 vlineto
          endchar
        </CharString>
        <CharString name="Hcircumflex">
          129 0 21 258.5 149 283.5 20 65 137.5 hstemhm
          53.75 164 -49.75 314.5 -49.75 164 hintmask 00010100
          168 797 rmoveto
          12 callsubr
          0 vmoveto
          116 hmoveto
          hintmask 11101010
          -334.5 -934.5 rmoveto
          -62 callsubr
          endchar
        </CharString>
        <CharString name="I">
          -250 21 -21 21 -21 732 -20 hstemhm
          53.75 164 hintmask 10110000
          53.75 hmoveto
          -61 callsubr
          endchar
        </CharString>
        <CharString name="Iacute">
          -250 0 21 691 20 65 140.5 hstemhm
          53.75 164 -131.5 217 hintmask 00101000
          86.25 797 rmoveto
          -1 callsubr
          hintmask 11010000
          -117 -937.5 rmoveto
          -61 callsubr
          endchar
        </CharString>
        <CharString name="Icircumflex">
          -250 0 21 691 20 65 137.5 hstemhm
          -21.5 314.5 -239.25 164 hintmask 00110000
          -21.5 797 rmoveto
          12 callsubr
          0 vmoveto
          116 hmoveto
          hintmask 11001000
          -145 -934.5 rmoveto
          -61 callsubr
          endchar
        </CharString>
        <CharString name="Idieresis">
          -250 0 21 691 20 65 123.5 hstemhm
          -53.5 123.5 -16.25 164 -16.25 123.5 hintmask 00110100
          -53.5 859.25 rmoveto
          -7 callsubr
          255 hmoveto
          -7 callsubr
          hintmask 11001000
          -147.75 -859.25 rmoveto
          -61 callsubr
          endchar
        </CharString>
        <CharString name="Idotaccent">
          -250 0 21 691 20 65 132 hstemhm
          53.75 164 -145.5 127 hintmask 00101000
          72.25 820 rmoveto
          48 callsubr
          hintmask 11010000
          -18.5 -904 rmoveto
          -61 callsubr
          endchar
        </CharString>
        <CharString name="Idotaccent.smcp">
          -269 21 -21 21 -21 633 132 hstemhm
          36.75 164 -143.75 127 hintmask 10110000
          36.75 hmoveto
          94 callsubr
          hintmask 00101000
          20.25 86 rmoveto
          48 callsubr
          endchar
        </CharString>
        <CharString name="Igrave">
          -250 0 21 691 20 65 140.5 hstemhm
          -31.75 217 -131.5 164 hintmask 00110000
          -31.75 937.5 rmoveto
          -42 callsubr
          hintmask 11001000
          -47 -937.5 rmoveto
          -61 callsubr
          endchar
        </CharString>
        <CharString name="Imacron">
          -250 0 21 691 20 65 85.5 hstemhm
          -10.25 292 -228 164 hintmask 00110000
          -10.25 797 rmoveto
          -3 callsubr
          hintmask 11001000
          64 -882.5 rmoveto
          -61 callsubr
          endchar
        </CharString>
        <CharString name="Iogonek">
          -250 -188.099487305 82.5 86 20 -0.400512695312 21 691 20 hstemhm
          53.75 164 hintmask 11000000
          113.125 0.400390625 rmoveto
          46 callsubr
          hintmask 00111000
          -120.875 -0.400390625 rmoveto
          -61 callsubr
          endchar
        </CharString>
        <CharString name="Itilde">
          -250 0 21 691 20 65.25 96.75 -62 97 hstemhm
          53.75 164 hintmask 00010000
          -37 857.5 rmoveto
          13 callsubr
          hintmask 00100000
          14 callsubr
          hintmask 00010000
          15 callsubr
          hintmask 11001000
          90.75 -857.5 rmoveto
          -61 callsubr
          endchar
        </CharString>
        <CharString name="J">
          -151 732 -20 hstem
          152.25 164 vstem
          23.75 24 rmoveto
          -60 callsubr
          endchar
        </CharString>
        <CharString name="Jcircumflex">
          -151 712 20 65 137.5 hstemhm
          77 314.5 -239.25 164 hintmask 01100000
          77 797 rmoveto
          12 callsubr
          0 vmoveto
          116 hmoveto
          hintmask 10010000
          -273.5 -910.5 rmoveto
          -60 callsubr
          endchar
        </CharString>
        <CharString name="K">
          135 21 -21 21 -21 732 -20 hstemhm
          53.75 156.5 hintmask 10110000
          53.75 hmoveto
          -59 callsubr
          endchar
        </CharString>
        <CharString name="Kcommaaccent">
          135 -287.699996948 49.0500030518 238.649993896 21 691 20 hstem
          53.75 156.5 39.0249938965 130.5 vstem
          hintmask 00000000
          249.275390625 -186 rmoveto
          64 callsubr
          -195.525390625 96.900390625 rmoveto
          -59 callsubr
          endchar
        </CharString>
        <CharString name="L">
          26 0 149 583 -20 hstem
          53.75 164 vstem
          53.75 148.5 rmoveto
          -58 callsubr
          endchar
        </CharString>
        <CharString name="Lacute">
          26 0 149 563 20 65 140.5 hstemhm
          53.75 164 -131.5 217 hintmask 00101000
          86.25 797 rmoveto
          -1 callsubr
          hintmask 11010000
          -117 -789 rmoveto
          -58 callsubr
          endchar
        </CharString>
        <CharString name="Lcaron">
          26 0 149 583 -20 hstem
          53.75 164 56.75 104 vstem
          53.75 148.5 rmoveto
          -113 73.7480010986 -35.5 84.7519989014 vhcurveto
          298.5 149 -231 hlineto
          -29 -33 -1 53 hvcurveto
          531 -164 vlineto
          220.75 -27 rmoveto
          49 callsubr
          endchar
        </CharString>
        <CharString name="Lcommaaccent">
          26 -283.949996948 49.0500030518 234.899993896 149 563 20 hstem
          53.75 164 5.27499389648 130.5 vstem
          hintmask 00000000
          223.025390625 -182.25 rmoveto
          64 callsubr
          -169.275390625 241.650390625 rmoveto
          -58 callsubr
          endchar
        </CharString>
        <CharString name="Lslash">
          68 0 149 583 -20 hstem
          96.5 164 vstem
          20.25 299.75 rmoveto
          76.25 32.25 0 -183.5 rlineto
          -113 73.7480010986 -35.5 84.7519989014 vhcurveto
          298.5 149 -231 hlineto
          -29 -33 -1 53 hvcurveto
          0 201.25 102.25 43.75 0.25 75.75 -102.5 -43.5 0 253.75 -164 0 0 -324 -76.25 -32.25 rlineto
          endchar
        </CharString>
        <CharString name="M">
          357 21 -21 21 -21 732 -20 hstemhm
          hintmask 10100000
          37 hmoveto
          -57 callsubr
          endchar
        </CharString>
        <CharString name="M.salt">
          372 21 -21 21 -21 hstemhm
          37 163 478 165.5 hintmask 10110000
          37 hmoveto
          126 callsubr
          endchar
        </CharString>
        <CharString name="N">
          170 21 -21 21 -21 732 -20 hstemhm
          53.75 165 255.25 164 hintmask 10111000
          53.75 hmoveto
          -56 callsubr
          endchar
        </CharString>
        <CharString name="N.salt">
          220 21 -21 21 -21 732 -20 hstemhm
          53.75 165 304.75 164 hintmask 10111000
          53.75 hmoveto
          125 callsubr
          endchar
        </CharString>
        <CharString name="Nacute">
          170 0 21 691 20 65 140.5 hstemhm
          53.75 165 80.125 217 -41.875 164 hintmask 00101000
          298.875 797 rmoveto
          -1 callsubr
          hintmask 11010100
          -329.625 -937.5 rmoveto
          -56 callsubr
          endchar
        </CharString>
        <CharString name="Nacute.salt">
          220 0 21 691 20 68 140.5 hstemhm
          53.75 165 90 217 -2.25 164 hintmask 00101000
          308.75 800 rmoveto
          -1 callsubr
          hintmask 11010100
          -339.5 -940.5 rmoveto
          125 callsubr
          endchar
        </CharString>
        <CharString name="Ncaron">
          170 0 21 691 20 65 137.5 hstemhm
          53.75 165 -27.625 314.5 -31.625 164 hintmask 00101000
          191.125 934.5 rmoveto
          47 callsubr
          -3.75 -137.5 rmoveto
          116 hmoveto
          hintmask 11010100
          -350.875 -797 rmoveto
          -56 callsubr
          endchar
        </CharString>
        <CharString name="Ncaron.salt">
          220 0 21 691 20 68 137.5 hstemhm
          53.75 165 8.25 314.5 -18 164 hintmask 00101000
          227 937.5 rmoveto
          47 callsubr
          -3.75 -137.5 rmoveto
          116 hmoveto
          hintmask 11010100
          -386.75 -800 rmoveto
          125 callsubr
          endchar
        </CharString>
        <CharString name="Ncommaaccent">
          170 -287.699996948 49.0500030518 238.649993896 21 691 20 hstem
          53.75 165 57.0249938965 130.5 67.7250061035 164 vstem
          hintmask 00000000
          275.775390625 -186 rmoveto
          64 callsubr
          -222.025390625 96.900390625 rmoveto
          -56 callsubr
          endchar
        </CharString>
        <CharString name="Ncommaaccent.salt">
          220 -293.199996948 49.0500030518 244.149993896 21 691 20 hstem
          53.75 165 79.0249938965 130.5 95.2250061035 164 vstem
          hintmask 00000000
          297.775390625 -191.5 rmoveto
          64 callsubr
          -244.025390625 102.400390625 rmoveto
          125 callsubr
          endchar
        </CharString>
        <CharString name="Ntilde">
          170 0 21 691 20 65.25 96.75 -62 97 hstemhm
          53.75 165 255.25 164 hintmask 00010000
          173.125 857.5 rmoveto
          13 callsubr
          hintmask 00100000
          14 callsubr
          hintmask 00010000
          15 callsubr
          hintmask 11001100
          -119.375 -857.5 rmoveto
          -56 callsubr
          endchar
        </CharString>
        <CharString name="Ntilde.salt">
          220 0 21 691 20 68.25 96.75 -62 97 hstemhm
          53.75 165 304.75 164 hintmask 00010000
          207.75 860.5 rmoveto
          13 callsubr
          hintmask 00100000
          14 callsubr
          hintmask 00010000
          15 callsubr
          hintmask 11001100
          -154 -860.5 rmoveto
          125 callsubr
          endchar
        </CharString>
        <CharString name="O">
          162 -4 149 443 149 hstem
          44 164 268 164 vstem
          44 361 rmoveto
          -55 callsubr
          164 hmoveto
          -54 callsubr
          endchar
        </CharString>
        <CharString name="OE">
          485 -4 149 -131 135.75 135 155.5 -146.25 135.5 149.75 152.75 -152.75 136.75 -128 149 hstemhm
          44 164 267.25 164 hintmask 1000001110000000
          208 361 rmoveto
          209 34.75 18 99.25 102.25 31 -24.75 -202.25 -178.5 -29.75 -37.5 -103.5 vhcurveto
          -113 -21 37 179 hvcurveto
          -164 hmoveto
          -333 118 -32 180 vhcurveto
          72.5 0 60.5 6.75 47.25 31 37.25 -35.75 56.5 -3.25 40.25 2.25 rrcurveto
          hintmask 0110000110000000
          0 0 222.25 6.5 77.25 10.5 rrcurveto
          135.75 -254.5 vlineto
          -29 0 -32.75 -1 -0.25 53 rrcurveto
          0 83 rlineto
          hintmask 0001000110000000
          269 9.25 0 135.5 rlineto
          hintmask 0010100110000000
          -269 10.75 0 83 rlineto
          27 0 29 52 vhcurveto
          hintmask 0000010110000000
          264.5 136.75 hlineto
          hintmask 0000100110000000
          -87.75 12 -221.75 4 0 0 -44.25 2.25 -44.5 -9.5 -30.25 -28.75 rrcurveto
          hintmask 1000001110000000
          -49 34.75 -63.25 6.25 -73 0 rrcurveto
          -168 -130 -33 -343 hvcurveto
          endchar
        </CharString>
        <CharString name="Oacute">
          162 -4 149 443 149 60 140.5 hstemhm
          44 164 84.75 217 -33.75 164 hintmask 00101000
          292.75 797 rmoveto
          -1 callsubr
          hintmask 11010100
          -333.25 -576.5 rmoveto
          -55 callsubr
          164 hmoveto
          -54 callsubr
          endchar
        </CharString>
        <CharString name="Ocircumflex">
          162 -4 149 443 149 60 137.5 hstemhm
          44 164 -23 314.5 -23.5 164 hintmask 00101000
          185 797 rmoveto
          12 callsubr
          0 vmoveto
          116 hmoveto
          hintmask 11010100
          -361.25 -573.5 rmoveto
          -55 callsubr
          164 hmoveto
          -54 callsubr
          endchar
        </CharString>
        <CharString name="Odieresis">
          162 -4 149 443 149 60 123.5 hstemhm
          44 164 -55 123.5 131.5 123.5 -55.5 164 hintmask 00101100
          153 859.25 rmoveto
          -7 callsubr
          255 hmoveto
          -7 callsubr
          hintmask 11010010
          -364 -498.25 rmoveto
          -55 callsubr
          164 hmoveto
          -54 callsubr
          endchar
        </CharString>
        <CharString name="Ograve">
          162 -4 149 443 149 60 140.5 hstemhm
          44 164 -33.25 217 84.25 164 hintmask 00101000
          174.75 937.5 rmoveto
          -42 callsubr
          hintmask 11010100
          -263.25 -576.5 rmoveto
          -55 callsubr
          164 hmoveto
          -54 callsubr
          endchar
        </CharString>
        <CharString name="Ohungarumlaut">
          162 -4 149 443 149 60 140.5 hstem
          44 164 268 164 vstem
          211 797 rmoveto
          -1 callsubr
          79 -140.5 rmoveto
          -1 callsubr
          -415 -576.5 rmoveto
          -55 callsubr
          164 hmoveto
          -54 callsubr
          endchar
        </CharString>
        <CharString name="Omacron">
          162 -4 149 443 149 60 85.5 hstemhm
          44 164 -11.75 292 -12.25 164 hintmask 00101000
          196.25 797 rmoveto
          -3 callsubr
          hintmask 11010100
          -152.25 -521.5 rmoveto
          -55 callsubr
          164 hmoveto
          -54 callsubr
          endchar
        </CharString>
        <CharString name="Omega">
          251 0 134.5 455.5 149 hstem
          43.25 164 338.5 164 vstem
          43.25 395.5 rmoveto
          0 -112 24.75 -81.75 84.25 -56.25 rrcurveto
          -103 -10 0 -135.5 250 0 0 145.5 rlineto
          -83.5 75.5 -8.5 60.75 0 98.25 rrcurveto
          89.5 24.75 120.5 147.5 140 26.25 -120 -85 vhcurveto
          0 -100 -11.5 -74 -77.5 -65.5 rrcurveto
          -145.5 258 134.5 vlineto
          -98 10 rlineto
          65.5 65 27.5 64 0 117 rrcurveto
          182 -82.25 166.5 -248 -262 -74.25 -189.5 -154 vhcurveto
          endchar
        </CharString>
        <CharString name="Oslash">
          173 -4 149 443 149 hstem
          50.75 164 268 164 vstem
          50.75 361 rmoveto
          0 -134.75 19.25 -85 34.5 -53.75 rrcurveto
          -61.5 -87.5 79.75 0 27.25 38.5 rlineto
          50.75 -36.5 68 -6 80 0 180 0 118 42 0 323 0 150.25 -24.5 90.5 -41.25 54.75 rrcurveto
          53 75.5 -79.75 0 -21.75 -31.25 rlineto
          -49.25 30.5 -63.25 5.75 -71.25 0 -169 0 -129 -33 0 -343 rrcurveto
          164 hmoveto
          209 34.75 18 99.25 vhcurveto
          39.5 0 29.75 -3 20.5 -16.75 rrcurveto
          -215.25 -313 rlineto
          -6.25 25.75 -2.25 33.5 0 46.5 rrcurveto
          32.75 -184.5 rmoveto
          223 324.25 rlineto
          8.75 -32 3.5 -44.25 0 -63.5 0 -178.5 -30.5 -37.5 -103.5 0 -50 0 -31 7.5 -20.25 24 rrcurveto
          endchar
        </CharString>
        <CharString name="Otilde">
          162 -4 149 443 149 60.25 96.75 -62 97 hstemhm
          44 164 268 164 hintmask 00010000
          169.5 857.5 rmoveto
          13 callsubr
          hintmask 00100000
          14 callsubr
          hintmask 00010000
          15 callsubr
          hintmask 11001100
          -125.5 -496.5 rmoveto
          -55 callsubr
          164 hmoveto
          -54 callsubr
          endchar
        </CharString>
        <CharString name="P">
          103 21 -21 21 -21 280.5 121.5 187.5 142.5 hstemhm
          48 164 204 165 hintmask 10111100
          48 hmoveto
          -53 callsubr
          164 -330 rmoveto
          -52 callsubr
          endchar
        </CharString>
        <CharString name="Q">
          162 -189.25 125 60.25 149 443 149 hstem
          44 164 268 164 vstem
          44 361 rmoveto
          -333 117.75 -32 180 vhcurveto
          180 1.5 118.25 40.5 0 323 rrcurveto
          343 -125.25 33 -173 -169 -128.75 -33 -343 vhcurveto
          164 hmoveto
          209 34.5 18 99.25 102.25 32 -24.75 -202.25 -178.5 -30.75 -37.5 -103.5 -113 -20.75 37 179 vhcurveto
          85.75 -394 rmoveto
          -51 callsubr
          endchar
        </CharString>
        <CharString name="R">
          105 21 -21 21 -21 589.5 142.5 hstemhm
          48 164 204.5 165 hintmask 10111000
          48 hmoveto
          -50 callsubr
          164.75 -323 rmoveto
          -49 callsubr
          endchar
        </CharString>
        <CharString name="Racute">
          105 0 21 568.5 142.5 63.75 140.5 hstemhm
          48 164 47.75 217 -60.25 165 hintmask 00101000
          259.75 795.75 rmoveto
          -1 callsubr
          hintmask 11010100
          -296.25 -936.25 rmoveto
          -50 callsubr
          164.75 -323 rmoveto
          -49 callsubr
          endchar
        </CharString>
        <CharString name="Rcaron">
          105 0 21 568.5 142.5 65 137.5 hstemhm
          48 164 -57.5 314.5 -52.5 165 hintmask 00101000
          154.5 934.5 rmoveto
          47 callsubr
          -3.75 -137.5 rmoveto
          116 hmoveto
          hintmask 11010100
          -320 -797 rmoveto
          -50 callsubr
          164.75 -323 rmoveto
          -49 callsubr
          endchar
        </CharString>
        <CharString name="Rcommaaccent">
          105 -282.449996948 49.0500030518 233.399993896 21 568.5 142.5 hstem
          48 164 21.2749938965 130.5 52.7250061035 165 vstem
          hintmask 00000000
          233.275390625 -180.75 rmoveto
          64 callsubr
          -185.275390625 91.650390625 rmoveto
          -50 callsubr
          164.75 -323 rmoveto
          -49 callsubr
          endchar
        </CharString>
        <CharString name="S">
          86 -8 149 139.75 164 144.25 149 hstem
          44 164 191.75 164 vstem
          44 482.75 rmoveto
          -48 callsubr
          endchar
        </CharString>
        <CharString name="Sacute">
          86 -8 149 139.75 164 144.25 149 60.6369934082 140.5 hstemhm
          44 164 49.0079956055 217 -74.2579956055 164 hintmask 00010100
          257.0078125 798.63671875 rmoveto
          -1 callsubr
          hintmask 11101010
          -297.5078125 -456.38671875 rmoveto
          -48 callsubr
          endchar
        </CharString>
        <CharString name="Scaron">
          86 -8 149 139.75 164 144.25 149 60.6369934082 137.5 hstemhm
          44 164 -53.8670043945 314.5 -68.8829956055 164 hintmask 00010100
          154.1328125 936.13671875 rmoveto
          47 callsubr
          -3.75 -137.5 rmoveto
          116 hmoveto
          hintmask 11101010
          -323.6328125 -315.88671875 rmoveto
          -48 callsubr
          endchar
        </CharString>
        <CharString name="Scedilla">
          86 -187 143.5 35.5 149 139.75 164 144.25 149 hstem
          44 164 58 104.5 29.25 164 vstem
          196 -118.5 rmoveto
          0 callsubr
          -193 586.25 rmoveto
          -48 callsubr
          endchar
        </CharString>
        <CharString name="Scircumflex">
          86 -8 149 139.75 164 144.25 149 60.6369934082 137.5 hstemhm
          44 164 -57.1170043945 314.5 -65.6329956055 164 hintmask 00010100
          150.8828125 798.63671875 rmoveto
          12 callsubr
          0 vmoveto
          116 hmoveto
          hintmask 11101010
          -327.1328125 -453.38671875 rmoveto
          -48 callsubr
          endchar
        </CharString>
        <CharString name="T">
          92 21 -21 21 -21 583 149 hstemhm
          217.75 164 hintmask 10110000
          26.25 583 rmoveto
          -47 callsubr
          endchar
        </CharString>
        <CharString name="Tbar">
          80 21 -21 21 -21 360 69 154 149 hstemhm
          208.5 164 hintmask 10111000
          17 583 rmoveto
          191.5 -154 -90 -69 90 -360 164 360 90 69 -90 154 197.5 149 -553 hlineto
          endchar
        </CharString>
        <CharString name="Tcaron">
          92 0 21 562 149 65 137.5 hstemhm
          143 314.5 -239.75 164 hintmask 00110000
          143 934.5 rmoveto
          47 callsubr
          -3.75 -137.5 rmoveto
          116 hmoveto
          hintmask 11001000
          -330.25 -214 rmoveto
          -47 callsubr
          endchar
        </CharString>
        <CharString name="Tcommaaccent">
          92 -183.5 143.5 40 21 562 149 hstemhm
          135 104.5 -21.75 164 hintmask 10010000
          65 -115 rmoveto
          0 callsubr
          hintmask 01101000
          -79.75 683 rmoveto
          -47 callsubr
          endchar
        </CharString>
        <CharString name="Thorn">
          35 21 -21 21 -21 149 141.5 155.75 141.75 hstemhm
          40.5 164 140.5 165 hintmask 10111100
          40.5 hmoveto
          164 168 hlineto
          64.25 -21.75 17.5 1.25 47.75 1.5 74 2.25 102 19.75 0 204 0 179 -97 33.75 -79 0.25 rrcurveto
          -129.5 141 -164 hlineto
          164 -438.5 rmoveto
          155.75 69.5 vlineto
          38.75 0 31.75 -2 0.5 -71 0 -74.5 -19 -8.5 -52 0.25 rrcurveto
          endchar
        </CharString>
        <CharString name="U">
          153 -5 149 588 -20 hstem
          53.75 164 238 165 vstem
          53.75 320 rmoveto
          -46 callsubr
          endchar
        </CharString>
        <CharString name="Uacute">
          153 -5 149 568 20 65 140.5 hstemhm
          53.75 164 70 217 -49 165 hintmask 00101000
          287.75 797 rmoveto
          -1 callsubr
          hintmask 11010100
          -318.5 -617.5 rmoveto
          -46 callsubr
          endchar
        </CharString>
        <CharString name="Ubreve">
          153 -5 149 568 20 65 62 hstem
          53.75 164 4.5 62 106 62 3.5 165 vstem
          222.25 911 rmoveto
          45 callsubr
          -230.5 -591 rmoveto
          -46 callsubr
          endchar
        </CharString>
        <CharString name="Ucircumflex">
          153 -5 149 568 20 65 137.5 hstemhm
          53.75 164 -37.75 314.5 -38.75 165 hintmask 00101000
          180 797 rmoveto
          12 callsubr
          0 vmoveto
          116 hmoveto
          hintmask 11010100
          -346.5 -614.5 rmoveto
          -46 callsubr
          endchar
        </CharString>
        <CharString name="Udieresis">
          153 -5 149 568 20 65 123.5 hstemhm
          53.75 164 -69.75 123.5 131.5 123.5 -70.75 165 hintmask 00101100
          148 859.25 rmoveto
          -7 callsubr
          255 hmoveto
          -7 callsubr
          hintmask 11010010
          -349.25 -539.25 rmoveto
          -46 callsubr
          endchar
        </CharString>
        <CharString name="Ugrave">
          153 -5 149 568 20 65 140.5 hstemhm
          53.75 164 -48 217 69 165 hintmask 00101000
          169.75 937.5 rmoveto
          -42 callsubr
          hintmask 11010100
          -248.5 -617.5 rmoveto
          -46 callsubr
          endchar
        </CharString>
        <CharString name="Uhungarumlaut">
          153 -5 149 568 20 65 140.5 hstem
          53.75 164 238 165 vstem
          206 797 rmoveto
          -1 callsubr
          79 -140.5 rmoveto
          -1 callsubr
          -400.25 -617.5 rmoveto
          -46 callsubr
          endchar
        </CharString>
        <CharString name="Umacron">
          153 -5 149 568 20 65 85.5 hstemhm
          53.75 164 -26.5 292 -27.5 165 hintmask 00101000
          191.25 797 rmoveto
          -3 callsubr
          hintmask 11010100
          -137.5 -562.5 rmoveto
          -46 callsubr
          endchar
        </CharString>
        <CharString name="Uogonek">
          153 -189.5 82.5 86 20 -4 149 568 20 hstemhm
          53.75 164 238 165 hintmask 11000000
          309.5 -1 rmoveto
          46 callsubr
          hintmask 00111100
          -317.25 321 rmoveto
          -46 callsubr
          endchar
        </CharString>
        <CharString name="Uring">
          153 -5 149 568 20 65 63.75 77.5 63.75 hstem
          53.75 164 18 62.75 77.5 62.75 17 165 vstem
          235.75 899 rmoveto
          -2 callsubr
          62.75 hmoveto
          16 callsubr
          -244.75 -579 rmoveto
          -46 callsubr
          endchar
        </CharString>
        <CharString name="Utilde">
          153 -5 149 568 20 64 96.75 -62 97 hstemhm
          53.75 164 238 165 hintmask 00010000
          164.375 856.25 rmoveto
          13 callsubr
          hintmask 00100000
          14 callsubr
          hintmask 00010000
          15 callsubr
          hintmask 11001100
          -110.625 -536.25 rmoveto
          -46 callsubr
          endchar
        </CharString>
        <CharString name="V">
          184 21 -21 21 -21 732 -20 hstemhm
          hintmask 10100000
          30 732 rmoveto
          219.5 -732 194 0 231.5 732 -173.25 0 -154.25 -524 -144.25 524 rlineto
          endchar
        </CharString>
        <CharString name="W">
          497 21 -21 21 -21 732 -20 hstemhm
          hintmask 10100000
          30 732 rmoveto
          -45 callsubr
          endchar
        </CharString>
        <CharString name="Wacute">
          497 0 21 691 20 63.75 140.5 hstem
          462.125 217 vstem
          462.125 795.75 rmoveto
          -1 callsubr
          -516.625 -204.25 rmoveto
          -45 callsubr
          endchar
        </CharString>
        <CharString name="Wcircumflex">
          497 0 21 691 20 63.75 137.5 hstem
          360.25 314.5 vstem
          360.25 795.75 rmoveto
          12 callsubr
          0 vmoveto
          116 hmoveto
          -550.5 -201.25 rmoveto
          -45 callsubr
          endchar
        </CharString>
        <CharString name="Wdieresis">
          497 0 21 691 20 63.75 123.5 hstem
          317 123.5 131.5 123.5 vstem
          317 858 rmoveto
          -7 callsubr
          255 hmoveto
          -7 callsubr
          -542 -126 rmoveto
          -45 callsubr
          endchar
        </CharString>
        <CharString name="Wgrave">
          497 0 21 691 20 63.75 140.5 hstem
          343.875 217 vstem
          343.875 936.25 rmoveto
          -42 callsubr
          -446.375 -204.25 rmoveto
          -45 callsubr
          endchar
        </CharString>
        <CharString name="X">
          151 21 -21 21 -21 732 -20 hstemhm
          hintmask 10100000
          30 732 rmoveto
          219.5 -367 -216.5 -365 181.5 0 120.75 224 119.75 -224 181.5 0 -216.25 365 221.25 367 -181.5 0 -124.75 -229 -123.75 229 rlineto
          endchar
        </CharString>
        <CharString name="X.salt">
          165 21 -21 21 -21 732 -20 hstemhm
          hintmask 10100000
          13.25 hmoveto
          178.5 0 125 266.75 rlineto
          10 16.75 -3.75 184.5 -11.25 19 rrcurveto
          -127.5 245 -171 0 130.5 -275 rlineto
          31.5 -67.5 7 -22 -28.5 -62.5 rrcurveto
          201.5 -38.25 rmoveto
          125.75 -266.75 178.5 0 -140.5 305 rlineto
          -28.5 62.5 7 22 31.5 67.5 rrcurveto
          130.5 275 -171 0 -128.25 -245 rlineto
          -10.5 -17.5 -4.5 -186 10 -16.75 rrcurveto
          endchar
        </CharString>
        <CharString name="Y">
          159 21 -21 21 -21 732 -20 hstemhm
          249.5 164 hintmask 10110000
          30 732 rmoveto
          -44 callsubr
          endchar
        </CharString>
        <CharString name="Yacute">
          159 0 21 691 20 65 140.5 hstemhm
          249.5 164 -123 217 hintmask 00101000
          290.5 797 rmoveto
          -1 callsubr
          hintmask 11010000
          -345 -205.5 rmoveto
          -44 callsubr
          endchar
        </CharString>
        <CharString name="Ycircumflex">
          159 0 21 691 20 63.75 137.5 hstemhm
          180.25 314.5 -245.25 164 hintmask 00110000
          180.25 795.75 rmoveto
          12 callsubr
          0 vmoveto
          116 hmoveto
          hintmask 11001000
          -370.5 -201.25 rmoveto
          -44 callsubr
          endchar
        </CharString>
        <CharString name="Ydieresis">
          159 0 21 691 20 65 123.5 hstemhm
          150.75 123.5 -24.75 164 -7.75 123.5 hintmask 00110100
          150.75 859.25 rmoveto
          -7 callsubr
          255 hmoveto
          -7 callsubr
          hintmask 11001000
          -375.75 -127.25 rmoveto
          -44 callsubr
          endchar
        </CharString>
        <CharString name="Ygrave">
          159 0 21 691 20 65 140.5 hstemhm
          172.5 217 -140 164 hintmask 00110000
          172.5 937.5 rmoveto
          -42 callsubr
          hintmask 11001000
          -275 -205.5 rmoveto
          -44 callsubr
          endchar
        </CharString>
        <CharString name="Z">
          47 0 149 434 149 hstem
          23.75 hmoveto
          -43 callsubr
          endchar
        </CharString>
        <CharString name="Zacute">
          47 0 149 434 149 65 140.5 hstem
          228.25 217 vstem
          228.25 797 rmoveto
          -1 callsubr
          -289 -937.5 rmoveto
          -43 callsubr
          endchar
        </CharString>
        <CharString name="Zcaron">
          47 0 149 434 149 65 137.5 hstem
          120.5 314.5 vstem
          120.5 934.5 rmoveto
          47 callsubr
          -3.75 -137.5 rmoveto
          116 hmoveto
          -310.25 -797 rmoveto
          -43 callsubr
          endchar
        </CharString>
        <CharString name="Zdotaccent">
          47 0 149 434 149 65 132 hstem
          214.25 127 vstem
          214.25 820 rmoveto
          48 callsubr
          -190.5 -904 rmoveto
          -43 callsubr
          endchar
        </CharString>
        <CharString name="a">
          12 -6 126.5 296 124.5 hstem
          26.5 164 131.75 164 vstem
          26.5 138.75 rmoveto
          -41 callsubr
          164 -20.75 rmoveto
          -40 callsubr
          endchar
        </CharString>
        <CharString name="a.salt">
          26 0 119 109.5 96 90.5 122 hstem
          33.5 164 138 164 vstem
          33.5 146 rmoveto
          130 callsubr
          164 -19 rmoveto
          131 callsubr
          endchar
        </CharString>
        <CharString name="a.smcp">
          105 21 -21 21 -21 103.25 126.5 hstemhm
          hintmask 10100000
          23.75 hmoveto
          72 callsubr
          53 -340.25 rmoveto
          73 callsubr
          endchar
        </CharString>
        <CharString name="a.superior">
          -134 374 87.5 182 94.75 hstem
          20.5 116 85.75 125 vstem
          20.5 467.5 rmoveto
          0 -41.5 31.5 -49.75 78.25 -2.25 51.5 -1.5 35.75 36.5 5 12 rrcurveto
          27.75 -43 97 0 0 243 rlineto
          0 92.5 -59.75 25 -94.25 -0.25 -68.75 -0.75 -42 -4.75 -50 -22.75 rrcurveto
          -75 vlineto
          18.75 1.25 79.25 7.25 44.25 0 30.5 0 17 -1.75 0 -35.5 1 -1 -1 -9.75 0 0 rrcurveto
          -1 -86.75 0.75 0 -87.5 -27.5 -47.25 -49.5 vhcurveto
          116 -10.5 rmoveto
          9.75 vlineto
          0 12.5 1.5 15.75 23.75 2.25 rrcurveto
          60.5 5.5 0 -48.5 rlineto
          0 -17 -23.75 -37.5 -16.25 -15 2.5 24 vhcurveto
          endchar
        </CharString>
        <CharString name="aacute">
          12 -6 126.5 296 124.5 60 140.5 hstemhm
          26.5 164 26.375 217 -111.625 164 hintmask 00101000
          216.875 601 rmoveto
          -1 callsubr
          hintmask 11010100
          -274.875 -602.75 rmoveto
          -41 callsubr
          164 -20.75 rmoveto
          -40 callsubr
          endchar
        </CharString>
        <CharString name="aacute.salt">
          26 0 119 109.5 96 90.5 122 60.0738067627 140.5 hstemhm
          33.5 164 30.9929962158 217 -109.992996216 164 hintmask 00010100
          228.493164062 597.07421875 rmoveto
          -1 callsubr
          hintmask 11101010
          -279.493164062 -591.57421875 rmoveto
          130 callsubr
          164 -19 rmoveto
          131 callsubr
          endchar
        </CharString>
        <CharString name="aacute.smcp">
          105 0 21 82.25 126.5 400.25 140.5 hstem
          263 217 vstem
          263 630 rmoveto
          -1 callsubr
          -323.75 -770.5 rmoveto
          72 callsubr
          53 -340.25 rmoveto
          73 callsubr
          endchar
        </CharString>
        <CharString name="abreve">
          12 -6 126.5 296 124.5 60 62 hstemhm
          26.5 164 -36.25 62 106 62 -62 164 hintmask 00101100
          154.25 715 rmoveto
          45 callsubr
          hintmask 11010010
          -189.75 -576.25 rmoveto
          -41 callsubr
          164 -20.75 rmoveto
          -40 callsubr
          endchar
        </CharString>
        <CharString name="abreve.salt">
          26 0 119 109.5 96 90.5 122 60.0738067627 62 hstemhm
          33.5 164 -33.6320037842 62 106 62 -58.3679962158 164 hintmask 00010110
          163.868164062 711.07421875 rmoveto
          45 callsubr
          hintmask 11101001
          -192.368164062 -565.07421875 rmoveto
          130 callsubr
          164 -19 rmoveto
          131 callsubr
          endchar
        </CharString>
        <CharString name="abreve.smcp">
          105 0 21 82.25 126.5 400.25 62 hstem
          197.5 62 106 62 vstem
          197.5 744 rmoveto
          45 callsubr
          -235.75 -744 rmoveto
          72 callsubr
          53 -340.25 rmoveto
          73 callsubr
          endchar
        </CharString>
        <CharString name="acircumflex">
          12 -6 126.5 296 124.5 60 137.5 hstemhm
          26.5 164 -81 314.5 -101.75 164 hintmask 00101000
          109.5 601 rmoveto
          12 callsubr
          0 vmoveto
          116 hmoveto
          hintmask 11010100
          -303.25 -599.75 rmoveto
          -41 callsubr
          164 -20.75 rmoveto
          -40 callsubr
          endchar
        </CharString>
        <CharString name="acircumflex.salt">
          26 0 119 109.5 96 90.5 122 60.0738067627 137.5 hstemhm
          33.5 164 -76.6318054199 314.5 -99.8681945801 164 hintmask 00010100
          120.868164062 597.07421875 rmoveto
          12 callsubr
          0 vmoveto
          116 hmoveto
          hintmask 11101010
          -307.618164062 -588.57421875 rmoveto
          130 callsubr
          164 -19 rmoveto
          131 callsubr
          endchar
        </CharString>
        <CharString name="acircumflex.smcp">
          105 0 21 82.25 126.5 400.25 137.5 hstem
          155.25 314.5 vstem
          155.25 630 rmoveto
          12 callsubr
          0 vmoveto
          116 hmoveto
          -351.75 -767.5 rmoveto
          72 callsubr
          53 -340.25 rmoveto
          73 callsubr
          endchar
        </CharString>
        <CharString name="acute">
          -264 531 140.5 hstem
          13.25 217 vstem
          13.25 531 rmoveto
          -1 callsubr
          endchar
        </CharString>
        <CharString name="acute.smcp">
          -264 531 140.5 hstem
          13.25 217 vstem
          13.25 531 rmoveto
          -1 callsubr
          endchar
        </CharString>
        <CharString name="adieresis">
          12 -6 126.5 296 124.5 60.0041046143 123.5 hstemhm
          26.5 164 -113.412994385 123.5 121.662994385 164 -154.162994385 123.5 hintmask 00101010
          77.0869140625 663.25390625 rmoveto
          -7 callsubr
          255 hmoveto
          -7 callsubr
          hintmask 11010100
          -305.586914062 -524.50390625 rmoveto
          -41 callsubr
          164 -20.75 rmoveto
          -40 callsubr
          endchar
        </CharString>
        <CharString name="adieresis.salt">
          26 0 119 109.5 96 90.5 122 60.0738067627 123.5 hstemhm
          33.5 164 -106.13180542 123.5 120.63180542 164 -153.13180542 123.5 hintmask 00010101
          91.3681640625 659.32421875 rmoveto
          -7 callsubr
          255 hmoveto
          -7 callsubr
          hintmask 11101010
          -312.868164062 -513.32421875 rmoveto
          130 callsubr
          164 -19 rmoveto
          131 callsubr
          endchar
        </CharString>
        <CharString name="adieresis.smcp">
          105 0 21 82.25 126.5 400.25 123.5 hstem
          123.25 123.5 131.5 123.5 vstem
          123.25 692.25 rmoveto
          -7 callsubr
          255 hmoveto
          -7 callsubr
          -354.5 -692.25 rmoveto
          72 callsubr
          53 -340.25 rmoveto
          73 callsubr
          endchar
        </CharString>
        <CharString name="ae">
          325 -3.5 125.75 98.25 103 94.5 124.5 hstem
          26.5 164 131.75 183 137 164 vstem
          26.5 140.25 rmoveto
          0 -63.25 43.5 -77.75 112.75 -3.75 70.75 -1.5 106.75 40.25 14 30.75 29.25 -44.25 40 -24.25 72.75 0 83 0 124.25 -1.75 72.75 29.75 rrcurveto
          108.5 vlineto
          -75 -11 -23 0.25 -77 0 rrcurveto
          -75 -41 13 85.25 hvcurveto
          148.25 hlineto
          96 56.75 28.5 101 162.5 -69.75 24 -164 hvcurveto
          -60.75 0 -45.25 -5 -42.25 -26 -30.25 25.25 -58.75 10.5 -55.25 1.25 -99 -0.25 -68.5 -7 -68.25 -30.25 rrcurveto
          -99 vlineto
          25 1.75 138 10.25 48 0 42.5 0 24.5 -4.5 0 -55 1 -1 -1 -33.75 0 0 rrcurveto
          -1 -132 1 0 -125 -38.75 -74 -76.25 vhcurveto
          164 -11.75 rmoveto
          9.5 vlineto
          0 20 2.5 26.75 34.75 3.25 rrcurveto
          94.5 7.75 0 -69.5 rlineto
          0 -34.75 -37.5 -50.75 -22.75 -23.5 -3 42.75 vhcurveto
          314.75 161.75 rmoveto
          -1.5 97.5 19.75 -3.5 59.75 0 rrcurveto
          52.5 6.5 -4.5 -53.25 -22.5 -14.5 -13.75 -23.75 hvcurveto
          endchar
        </CharString>
        <CharString name="ae.smcp">
          306 -2.75 141.5 -124.75 124.5 -10.5 111.5 -25.25 136 -128.75 121 87 140.5 -140.5 124.75 hstemhm
          hintmask 00100000
          15.5 hmoveto
          176.75 0 54 128 112.25 0 0 -24.5 rlineto
          hintmask 10000000
          0 -81 59 -26.5 57 1.25 rrcurveto
          hintmask 01000000
          0 0 225.5 -2.75 85.5 19.5 rrcurveto
          0 124.5 rlineto
          hintmask 10010000
          -226.25 0.25 rlineto
          -21.25 -15.25 2.5 29.25 hvcurveto
          0 43.75 rlineto
          hintmask 00001000
          224.25 7.25 0 121 rlineto
          hintmask 00010100
          -224.25 7.75 0 46.5 rlineto
          0.5 23.25 1.75 9.5 30.25 0 rrcurveto
          hintmask 00000010
          230.25 124.75 hlineto
          hintmask 00100100
          -69.75 12.75 -222.5 3 0 0 -94 -1 -146.75 7 -48.5 -121.75 rrcurveto
          87.25 -214.75 rmoveto
          67.25 157 0 -157 rlineto
          endchar
        </CharString>
        <CharString name="afii61289">
          -18 0.75 98 -77 -21 hstemhm
          77.25 164 66 141 hintmask 01110000
          20.25 255.5 rmoveto
          23.75 -77.75 rlineto
          11 6 12.25 6.75 10 7 rrcurveto
          -17.5 vlineto
          0 -135 57.5 -44 97 -0.25 rrcurveto
          hintmask 10110000
          0 0 178.25 -0.25 -0.25 0.25 rrcurveto
          98 vlineto
          -5.5 -0.25 -61.75 13.5 0 0.25 -95.75 16 -5.25 41.25 -0.25 65.25 rrcurveto
          29.25 vlineto
          79 52.5 128.25 113 -0.25 131 -0.25 126.75 -84 51.75 -83.75 0 -133 0 -69.75 -58.75 -0.25 -108.25 rrcurveto
          -260.5 vlineto
          -19 -20 -19 -19 -19 -17 rrcurveto
          221 170.5 rmoveto
          149.75 vlineto
          0 57 71.25 -17.75 -5.25 -42.5 0.25 -41 -20.75 -50 -45.5 -55.5 rrcurveto
          endchar
        </CharString>
        <CharString name="afii61352">
          615 21 -21 21 -21 381 114.5 122 116.75 hstemhm
          48 164.75 304.25 164 69.25 122 101 122 hintmask 10111111
          48 hmoveto
          164.75 582.75 hlineto
          0 17 21.75 5.75 3.25 -15.75 rrcurveto
          100.75 -462.75 rlineto
          27.25 -193 315.25 28.5 0 181 rrcurveto
          397.25 vlineto
          69.25 34.5 7.5 80 60.75 68 -1 0 vhcurveto
          43.25 -0.5 5.75 -6 0 -57 rrcurveto
          -55.5 -9.5 -2 -29 vhcurveto
          -24 hlineto
          -29 -9.5 4.5 85 hvcurveto
          -122 hlineto
          0 -176 41 -24.25 113.5 -3.75 rrcurveto
          36 hlineto
          116.5 3.75 38 47 0 121.25 0 134.5 -37.5 45.75 -102 0.75 rrcurveto
          0 -252.25 0.25 -18.5 -92.75 -75.25 -44.25 -124.25 vhcurveto
          -405.5 vlineto
          0 -15 -20.5 -7.5 -3.5 19.5 rrcurveto
          -99.25 457.5 rlineto
          -25.25 172.25 -320.5 -1.5 0 -195.75 rrcurveto
          endchar
        </CharString>
        <CharString name="agrave">
          12 -6 126.5 296 124.5 60 140.5 hstemhm
          26.5 164 -90.375 217 5.125 164 hintmask 00101000
          100.125 741.5 rmoveto
          -42 callsubr
          hintmask 11010100
          -206.125 -602.75 rmoveto
          -41 callsubr
          164 -20.75 rmoveto
          -40 callsubr
          endchar
        </CharString>
        <CharString name="agrave.salt">
          26 0 119 109.5 96 90.5 122 60.0738067627 140.5 hstemhm
          33.5 164 -81.5070037842 217 2.50700378418 164 hintmask 00010100
          115.993164062 737.57421875 rmoveto
          -42 callsubr
          hintmask 11101010
          -214.993164062 -591.57421875 rmoveto
          130 callsubr
          164 -19 rmoveto
          131 callsubr
          endchar
        </CharString>
        <CharString name="agrave.smcp">
          105 0 21 82.25 126.5 400.25 140.5 hstem
          141.125 217 vstem
          141.125 770.5 rmoveto
          -42 callsubr
          -249.875 -770.5 rmoveto
          72 callsubr
          53 -340.25 rmoveto
          73 callsubr
          endchar
        </CharString>
        <CharString name="amacron">
          12 -6 126.5 296 124.5 60 85.5 hstemhm
          26.5 164 -67.25 292 -93 164 hintmask 00101000
          123.25 601 rmoveto
          -3 callsubr
          hintmask 11010100
          -96.75 -547.75 rmoveto
          -41 callsubr
          164 -20.75 rmoveto
          -40 callsubr
          endchar
        </CharString>
        <CharString name="amacron.salt">
          26 0 119 109.5 96 90.5 122 60.0738067627 85.5 hstemhm
          33.5 164 -64.1315002441 292 -89.8684997559 164 hintmask 00010100
          133.368164062 597.07421875 rmoveto
          -3 callsubr
          hintmask 11101010
          -99.8681640625 -536.57421875 rmoveto
          130 callsubr
          164 -19 rmoveto
          131 callsubr
          endchar
        </CharString>
        <CharString name="amacron.smcp">
          105 0 21 82.25 126.5 400.25 85.5 hstem
          166.5 292 vstem
          166.5 630 rmoveto
          -3 callsubr
          -142.75 -715.5 rmoveto
          72 callsubr
          53 -340.25 rmoveto
          73 callsubr
          endchar
        </CharString>
        <CharString name="ampersand">
          188 21 -21 21 -21 589.5 120.5 hstemhm
          hintmask 10100000
          60.75 82 rmoveto
          75.5 -113 158.25 11.25 63.75 55.5 rrcurveto
          63 55 66.25 -90.75 193 0 -144 190 36.5 43.5 63 107.75 -58.25 72 -124.5 -112.25 -144.25 199.5 rlineto
          -42.75 59.25 -1.25 29.75 72.5 0 rrcurveto
          150.5 120.5 hlineto
          -72 17 -88.5 22.25 -120.5 -19.25 -82.75 -13 -79 -113.75 79 -107 rrcurveto
          47.25 -70 -63.5 -55.75 rlineto
          -85.5 -75.5 -31.5 -112 69.75 -101 rrcurveto
          133.5 94 rmoveto
          -20.5 26 -8.75 33 44 39 rrcurveto
          42 38 81 -106.75 -39.5 -39 rlineto
          -38.25 -38.25 -38 21 -22 27 rrcurveto
          endchar
        </CharString>
        <CharString name="ampersand.salt">
          484 -1.5 131.75 40 115.75 50 116 45 131.75 hstem
          29.75 164 525.5 164 vstem
          29.75 331.75 rmoveto
          -135.5 96 -31 112.5 vhcurveto
          0 -121.25 104 -44.75 106.5 -0.75 rrcurveto
          164 hlineto
          140.5 130 44.75 186.5 hvcurveto
          0 268 95 19.25 0 109.75 -95 0 0 117.75 -146 0 -18 -115.75 -426 0 rlineto
          -175.25 -1.5 -88.25 -35.75 0 -175.25 rrcurveto
          164 -77.75 rmoveto
          77.75 vlineto
          60.75 10 20 97 vhcurveto
          418.5 -265 hlineto
          -63.75 -23.5 -38 -83 vhcurveto
          -160.25 hlineto
          -33.5 0.75 -16.5 8.75 -0.25 30.5 rrcurveto
          85.75 hlineto
          104.5 87.25 1.75 123.75 126.25 -88 30 -101.5 hvcurveto
          -54 hlineto
          -122.25 -75.75 -41.5 -123 hvcurveto
          -31 -13.5 13.75 37.25 hvcurveto
          208.5 -52.5 rmoveto
          49.25 14.75 0.75 26.75 vhcurveto
          42.75 hlineto
          21 8.25 -3.25 -20.5 -23.75 -8.25 -2.5 -21 hvcurveto
          endchar
        </CharString>
        <CharString name="ampersand.smcp">
          98 21 -21 21 -21 436.5 113 hstemhm
          hintmask 10100000
          56.25 68 rmoveto
          71 -105 141.25 25.75 49.5 43.75 rrcurveto
          41.75 38.5 56.25 -71 173.5 0 -124.75 164.75 26 25.25 58.5 89 -61.5 69.5 -102.5 -78.5 -98.25 130 rlineto
          -18.5 23.5 6 13 34.5 0 rrcurveto
          107 113 hlineto
          -48.75 15.5 -112.5 18 -74.5 -12.5 -64 -10.5 -56.25 -89.25 61.5 -81.5 rrcurveto
          26 -34.5 -49.75 -42.75 rlineto
          -72.5 -63.75 -33.75 -85.75 64.75 -94.5 rrcurveto
          118 82.5 rmoveto
          -13.25 17.25 -0.25 23 25 19.5 rrcurveto
          41.5 33.25 47.75 -62.5 -39.75 -35.75 rlineto
          -24.75 -22 -21.75 8.5 -14.5 18.75 rrcurveto
          endchar
        </CharString>
        <CharString name="aogonek">
          12 -188.213897705 82.5 86 20 -6.28610229492 126.5 296 124.5 hstemhm
          26.5 164 131.75 164 hintmask 11000000
          393.700195312 0.2861328125 rmoveto
          46 callsubr
          hintmask 00111100
          -428.700195312 138.463867188 rmoveto
          -41 callsubr
          164 -20.75 rmoveto
          -40 callsubr
          endchar
        </CharString>
        <CharString name="aogonek.salt">
          30 -171.099502563 82.5 86 20 -17.4004974365 119 109.5 96 90.5 122 hstemhm
          33.5 164 138 164 hintmask 11000000
          367.25 17.400390625 rmoveto
          46 callsubr
          hintmask 00111110
          -395.25 128.599609375 rmoveto
          130 callsubr
          164 -19 rmoveto
          131 callsubr
          endchar
        </CharString>
        <CharString name="aogonek.smcp">
          109 -187.349487305 82.5 86 20 -1.15051269531 21 82.25 126.5 hstemhm
          hintmask 11000000
          477.25 1.150390625 rmoveto
          46 callsubr
          hintmask 00110000
          -515 -1.150390625 rmoveto
          72 callsubr
          53 -340.25 rmoveto
          73 callsubr
          endchar
        </CharString>
        <CharString name="approxequal">
          -6 192.5 105 -67 104 40.25 105 -67 104 hstemhm
          hintmask 10000000
          33.5 263.5 rmoveto
          21 -71 rlineto
          hintmask 01000000
          48 15 25 23 51 0 rrcurveto
          hintmask 10000000
          59 callsubr
          hintmask 01000000
          -60 0 -29 37 -60 0 rrcurveto
          -64 0 -48.25 -38.75 -34.75 -32.25 rrcurveto
          182.25 vmoveto
          hintmask 00100000
          21 -71 rlineto
          hintmask 00010000
          48 15 25 23 51 0 rrcurveto
          hintmask 00100000
          59 callsubr
          hintmask 00010000
          -60 0 -29 37 -60 0 -64 0 -48.25 -38.75 -34.75 -32.25 rrcurveto
          endchar
        </CharString>
        <CharString name="aring">
          12 -6 126.5 296 124.5 52.5 63.75 77.5 63.75 hstemhm
          26.5 164 -23.875 62.75 77.5 62.75 -47.375 164 hintmask 00110110
          166.625 695.5 rmoveto
          -2 callsubr
          62.75 hmoveto
          16 callsubr
          hintmask 11001001
          -202.875 -556.75 rmoveto
          -41 callsubr
          164 -20.75 rmoveto
          -40 callsubr
          endchar
        </CharString>
        <CharString name="aring.salt">
          26 0 119 109.5 96 90.5 122 60.0827941895 63.75 77.5 63.75 hstemhm
          33.5 164 -20.7760009766 62.75 77.5 62.75 -44.2239990234 164 hintmask 0001101100000000
          176.723632812 699.083007812 rmoveto
          -2 callsubr
          62.75 hmoveto
          16 callsubr
          hintmask 1110010010000000
          -205.973632812 -553.083007812 rmoveto
          130 callsubr
          164 -19 rmoveto
          131 callsubr
          endchar
        </CharString>
        <CharString name="aring.smcp">
          105 0 21 82.25 126.5 338 63.75 77.5 63.75 hstem
          211.375 62.75 77.5 62.75 vstem
          211.375 669.75 rmoveto
          -2 callsubr
          62.75 hmoveto
          16 callsubr
          -250.375 -669.75 rmoveto
          72 callsubr
          53 -340.25 rmoveto
          73 callsubr
          endchar
        </CharString>
        <CharString name="asciicircum">
          -126 531 137.5 hstem
          33.5 314.5 vstem
          33.5 531 rmoveto
          102 0 57.25 56 54.25 -56 101 0 -94.25 137.5 -116 0 rlineto
          0 vmoveto
          116 hmoveto
          endchar
        </CharString>
        <CharString name="asciitilde">
          -95 531 98 -63 98 hstemhm
          hintmask 10000000
          33.5 591.5 rmoveto
          25.5 -60.5 rlineto
          hintmask 01000000
          32.25 21.5 21.75 13.5 39 0 rrcurveto
          hintmask 10000000
          39 0 31.75 -35 43.5 0 51.5 0 38 41 23.25 31 rrcurveto
          -25 66 rlineto
          -23 -21.25 -30.25 -20.25 -39.75 1.5 rrcurveto
          hintmask 01000000
          -40 0 -22 35 -44 0 rrcurveto
          -55.25 0 -37.5 -37.25 -28.75 -35.25 rrcurveto
          endchar
        </CharString>
        <CharString name="asterisk">
          -84 566 62.5 hstem
          33.5 566 rmoveto
          144 -5 -5 89 -139 -21.5 rlineto
          53 -211.5 rmoveto
          59.5 -18.75 51.5 133.75 -86.25 22.25 rlineto
          50.5 166.5 rmoveto
          41.5 -136.75 83 33.25 -64.5 124 rlineto
          -37.75 -278 rmoveto
          124.75 -64.75 36.75 50 -113 89.5 rlineto
          2.75 33 rmoveto
          56.25 -68.75 98.5 97 -35.5 51.5 rlineto
          endchar
        </CharString>
        <CharString name="asterisk.smcp">
          -85 396.75 62.5 hstem
          33.5 396.75 rmoveto
          143.75 -5 -4.75 89 -139 -21.5 rlineto
          52.75 -211.5 rmoveto
          59.5 -18.75 51.75 133.75 -86.25 22.25 rlineto
          50.5 166.5 rmoveto
          41.5 -136.5 83 33 -64.5 124 rlineto
          -37.75 -278 rmoveto
          124.75 -64.75 36.75 50 -113 89.75 rlineto
          2.75 33 rmoveto
          56.25 -69 98.5 97 -35.75 51.5 rlineto
          endchar
        </CharString>
        <CharString name="at">
          370 -208 127.5 71.5 126.5 -96.5 -21 21 -21 385.5 126.5 72.75 126.5 -126.5 99.5 hstemhm
          44 126.5 62 134 138.5 126 63 126.5 hintmask 1000110111100000
          44 15 rmoveto
          -82 callsubr
          hintmask 1000101111100000
          -81 callsubr
          hintmask 1100110111100000
          404 hlineto
          61 42 -40.75 -77 hvcurveto
          -437 vlineto
          -68 -21 -42.5 -82 vhcurveto
          -326.5 hlineto
          -40 -54 20.5 90 hvcurveto
          265.5 vlineto
          80 46 10 48 vhcurveto
          186.5 hlineto
          36.75 17.25 -6.75 -38.75 hvcurveto
          1 -0.75 -1 -30.25 0 0 rrcurveto
          -1 -76.25 1 -44.75 -95.75 -55.75 -47 -93.5 vhcurveto
          -38 vlineto
          -0.25 -68 39.25 -72 89 0.5 91 0 53.5 65.5 2 0 rrcurveto
          hintmask 1010110111100000
          21.5 -56.5 102.5 0 0 349.5 rlineto
          146 -93.25 16.5 -89.75 vhcurveto
          -183.5 hlineto
          -173.5 -47 -105.5 -103.5 hvcurveto
          322.5 -150.75 rmoveto
          -0.75 1 0 18.25 0.75 1 -0.25 26.75 12 9.25 25.75 2.5 rrcurveto
          101 8.5 0 -63 rlineto
          hintmask 1100100111100000
          -22.25 -28.5 -38.25 -10.75 -36.5 0.25 -28.5 -0.25 -13 14 0 21 rrcurveto
          endchar
        </CharString>
        <CharString name="at.alt">
          370 -95.5 127.5 71.5 126.5 268 126.5 72.75 126.5 -126.5 99.5 hstemhm
          44.25 126.5 62 134 138.5 126 63 126.5 hintmask 1111011110000000
          44 415.5 rmoveto
          0.25 -288 rlineto
          -164.75 103.5 -58.25 117 vhcurveto
          334 hlineto
          144.75 77.25 72.5 165.5 hvcurveto
          437 vlineto
          0 184.25 -116.75 59.25 -112.75 0.5 rrcurveto
          -93.5 0.25 rlineto
          hintmask 1110111110000000
          -81 callsubr
          hintmask 1111011110000000
          404 hlineto
          61 42 -40.75 -77 hvcurveto
          -437 vlineto
          -68 -21 -42.5 -82 vhcurveto
          -326.5 hlineto
          -40 -54 20.5 90 hvcurveto
          265.5 vlineto
          80 46 10 48 vhcurveto
          186.5 hlineto
          36.75 17.25 -6.75 -38.75 hvcurveto
          1 -0.75 -1 -30.25 0 0 rrcurveto
          -1 -76.25 1 -44.75 -95.75 -55.75 -47 -93.5 vhcurveto
          -38 vlineto
          -0.25 -68 39.25 -72 89 0.5 91 0 53.5 65.5 2 0 rrcurveto
          21.5 -56.5 102.5 0 0 349.5 rlineto
          146 -93.25 16.5 -89.75 vhcurveto
          -183.5 hlineto
          -173.5 -47.25 -105.5 -103.5 hvcurveto
          322.75 -150.75 rmoveto
          51 callsubr
          endchar
        </CharString>
        <CharString name="at.smcp">
          370 -167.5 127.5 71.5 126.5 268 126.5 72.75 126.5 -126.5 99.5 hstemhm
          44 126.5 62 134 138.5 126 63 126.5 hintmask 1111011110000000
          44 55.5 rmoveto
          -82 callsubr
          hintmask 1110111110000000
          -81 callsubr
          hintmask 1111011110000000
          404 hlineto
          61 42 -40.75 -77 hvcurveto
          -437 vlineto
          -68 -21 -42.5 -82 vhcurveto
          -326.5 hlineto
          -40 -54 20.5 90 hvcurveto
          265.5 vlineto
          80 46 10 48 vhcurveto
          186.5 hlineto
          36.75 17.25 -6.75 -38.75 hvcurveto
          1 -0.75 -1 -30.25 0 0 rrcurveto
          -1 -76.25 1 -44.75 -95.75 -55.75 -47 -93.5 vhcurveto
          -38 vlineto
          -0.25 -68 39.25 -72 89 0.5 91 0 53.5 65.5 2 0 rrcurveto
          21.5 -56.5 102.5 0 0 349.5 rlineto
          146 -93.25 16.5 -89.75 vhcurveto
          -183.5 hlineto
          -173.5 -47 -105.5 -103.5 hvcurveto
          322.5 -150.75 rmoveto
          51 callsubr
          endchar
        </CharString>
        <CharString name="atilde">
          12 -6 126.5 296 124.5 60.25 96.75 -62 97 hstemhm
          26.5 164 131.75 164 hintmask 00010000
          92.75 661.5 rmoveto
          13 callsubr
          hintmask 00100000
          14 callsubr
          hintmask 00010000
          15 callsubr
          hintmask 11001100
          -66.25 -522.75 rmoveto
          -41 callsubr
          164 -20.75 rmoveto
          -40 callsubr
          endchar
        </CharString>
        <CharString name="atilde.salt">
          26 0 119 109.5 96 90.5 122 60.3327941895 96.75 -62 97 hstemhm
          33.5 164 138 164 hintmask 00001000
          107.223632812 657.583007812 rmoveto
          13 callsubr
          hintmask 00010000
          14 callsubr
          hintmask 00001000
          15 callsubr
          hintmask 11100110
          -73.7236328125 -511.583007812 rmoveto
          130 callsubr
          164 -19 rmoveto
          131 callsubr
          endchar
        </CharString>
        <CharString name="atilde.smcp">
          105 0 21 82.25 126.5 400.5 96.75 -62 97 hstemhm
          hintmask 00010000
          139.75 690.5 rmoveto
          13 callsubr
          hintmask 00100000
          14 callsubr
          hintmask 00010000
          15 callsubr
          hintmask 11000000
          -116 -690.5 rmoveto
          72 callsubr
          53 -340.25 rmoveto
          73 callsubr
          endchar
        </CharString>
        <CharString name="b">
          50 -6 136.25 286 122.75 hstem
          40.5 163.5 157 164 vstem
          40.5 hmoveto
          -39 callsubr
          164.5 -626.75 rmoveto
          -38 callsubr
          endchar
        </CharString>
        <CharString name="b.salt">
          48 -9.25 119 304.5 123.5 hstem
          40.5 164 153.75 164 vstem
          40.5 23.5 rmoveto
          133 callsubr
          164 -672 rmoveto
          134 callsubr
          endchar
        </CharString>
        <CharString name="b.smcp">
          42 0 135 104.25 111.5 86.25 134 hstem
          53.75 164 135.75 166.25 vstem
          53.75 hmoveto
          74 callsubr
          164 -436 rmoveto
          75 callsubr
          -92.5 215.75 rmoveto
          76 callsubr
          endchar
        </CharString>
        <CharString name="b.superior">
          -103 374 104 172 94.25 hstem
          25.25 125 104.75 125 vstem
          25.25 378 rmoveto
          103.75 0 22 39 rlineto
          26 -22.25 32.75 -20.75 44.25 0 rrcurveto
          91 35 63.5 119.5 119.5 -19.5 67.75 -106.5 hvcurveto
          -32.5 0 -39.75 -9.25 -31.5 -15.5 rrcurveto
          181.75 -125 vlineto
          125.75 -406.25 rmoveto
          142.5 vlineto
          18.25 8.75 17 3.75 26.5 0 rrcurveto
          27 15.25 -10.75 -77 -69.5 -14.25 -14.75 -26.5 hvcurveto
          -30.5 0 -17.25 6 -15.5 11 rrcurveto
          endchar
        </CharString>
        <CharString name="backslash">
          -31 13.25 770 rmoveto
          281 -842 169 0 -281 842 rlineto
          endchar
        </CharString>
        <CharString name="bar">
          -259 57.5 134 vstem
          57.5 -72 rmoveto
          134 842 -134 hlineto
          endchar
        </CharString>
        <CharString name="braceleft">
          -186 79.75 164 vstem
          13.25 273.75 rmoveto
          40 3 26.5 -20 0 -36 rrcurveto
          -258.75 vlineto
          -112.5 59.25 -59.5 169.25 vhcurveto
          126.5 vlineto
          -52 -1 -12.5 34 0 65 rrcurveto
          221.5 vlineto
          0 53.25 -38.25 33.25 -60.75 11.5 60.75 6 39.25 27.5 0 67.5 rrcurveto
          161 vlineto
          91 16.25 21 47.25 vhcurveto
          134 vlineto
          -156.25 -71.25 -72 -114 hvcurveto
          -209.75 vlineto
          0 -41.25 -34.5 -8.75 -33 -3 rrcurveto
          endchar
        </CharString>
        <CharString name="braceright">
          -186 77.75 164 vstem
          13.25 -83.5 rmoveto
          -126.5 vlineto
          169.25 59.25 59.5 112.5 hvcurveto
          258.75 vlineto
          0 36 26.5 20 40 -3 rrcurveto
          119.5 vlineto
          -33 3 -34.5 8.75 0 41.25 rrcurveto
          209.75 vlineto
          114 -71.25 72 -156.25 vhcurveto
          -134 vlineto
          47.25 16.25 -21 -91 hvcurveto
          -161 vlineto
          0 -67.5 39.25 -27.5 60.75 -6 -60.75 -11.5 -38.25 -33.25 0 -53.25 rrcurveto
          -221.5 vlineto
          0 -65 -12.5 -34 -52 1 rrcurveto
          endchar
        </CharString>
        <CharString name="bracketleft">
          -169 -210 134 784 134 hstem
          57.25 164 vstem
          57.25 -0.5 rmoveto
          -88.5 24 -121 157 vhcurveto
          87.5 134 -42.5 hlineto
          -38 -24 23 60 hvcurveto
          618 vlineto
          60 24 23 38 vhcurveto
          42.5 134 -87.5 hlineto
          -134.5 -46.5 -80.5 -114 hvcurveto
          endchar
        </CharString>
        <CharString name="bracketright">
          -169 -210 134 784 134 hstem
          117.75 164 vstem
          13.25 -76 rmoveto
          -134 87.5 vlineto
          157 24 121 88.5 hvcurveto
          648 vlineto
          114 -46.5 80.5 -134.5 vhcurveto
          -87.5 -134 42.5 hlineto
          38 24 -23 -60 hvcurveto
          -618 vlineto
          -60 -24 -23 -38 vhcurveto
          endchar
        </CharString>
        <CharString name="breve">
          -211 530 62 hstem
          33.5 62 106 62 vstem
          33.5 644 rmoveto
          45 callsubr
          endchar
        </CharString>
        <CharString name="brokenbar">
          -258 57.5 134 vstem
          57.5 -72 rmoveto
          134 328 -134 hlineto
          173 vmoveto
          134 341 -134 hlineto
          endchar
        </CharString>
        <CharString name="bullet">
          -199 282.75 199.5 hstem
          57.25 194.5 vstem
          57.25 314.75 rmoveto
          22 callsubr
          endchar
        </CharString>
        <CharString name="bullet.smcp">
          -199 223.5 199.5 hstem
          57.25 194.5 vstem
          57.25 255.5 rmoveto
          22 callsubr
          endchar
        </CharString>
        <CharString name="c">
          -15 -5 126.5 288 126.5 hstem
          33.5 164 vstem
          33.5 266 rmoveto
          -37 callsubr
          endchar
        </CharString>
        <CharString name="c.smcp">
          5 -4 126.5 329 126.5 hstem
          37 164 vstem
          37 295 rmoveto
          77 callsubr
          endchar
        </CharString>
        <CharString name="c.superior">
          -157 374.5 96.5 168 96.5 hstem
          20.5 125 vstem
          20.5 555 rmoveto
          -142.5 54 -38 71 vhcurveto
          59 1 68 -8 55 34.25 rrcurveto
          74 vlineto
          0 -55 -4.75 -63 -49.5 -14.5 13.5 69.25 88.5 19 -3.25 45 61 52 -4.25 0 vhcurveto
          75.25 vlineto
          -67.25 25.75 -72.25 -0.25 -37.5 0 rrcurveto
          -73.25 -51.75 -38.25 -142.25 hvcurveto
          endchar
        </CharString>
        <CharString name="c_h">
          554 -7 126.5 -98.5 -21 21 -21 410 126.5 246 -20 hstemhm
          26.5 164 359.25 163.25 151.75 164 hintmask 10011111
          26.5 266 rmoveto
          -233 114.25 -40 99 vhcurveto
          184.25 1.75 289.75 -51.25 0 287.25 rrcurveto
          140.75 vlineto
          24.75 27.75 29.25 14.25 49.75 0 rrcurveto
          29.25 18 -15 -48 hvcurveto
          hintmask 01011111
          -350.5 164 347.5 vlineto
          106 -26.5 86.5 -130 vhcurveto
          -81.5 0 -43.5 -33.75 -34.25 -29.75 rrcurveto
          306 -163.25 -537.5 vlineto
          hintmask 10011111
          -123.75 -68.5 -1.75 -189 -72 -29.75 18 124.5 146.25 26.75 1.75 66 89 80.5 -6.5 0 vhcurveto
          99 vlineto
          -94 34 -104.5 0 -52 0 rrcurveto
          -102 -73.75 -56.5 -214 hvcurveto
          endchar
        </CharString>
        <CharString name="c_k">
          582 -7 126.5 -98.5 -21 21 -21 412.25 126.5 -6.75 -20 270 -20 hstemhm
          26.5 164 354.5 164 hintmask 10000111
          26.5 268.25 rmoveto
          -235.25 103 -40 162.75 vhcurveto
          79.25 0 83.75 28.5 89.75 55.5 rrcurveto
          hintmask 01001111
          -77 164 185 vlineto
          9.75 7.5 16.5 14.25 9 7.5 rrcurveto
          140.5 -214.25 191 0 -212.5 319 rlineto
          41.25 44.25 123.5 117.5 48 50.25 rrcurveto
          -212.75 1 rlineto
          0 0 -98 -96.25 -56.25 -53.25 rrcurveto
          399.5 -164 -538.25 vlineto
          hintmask 10010111
          -80.25 -61.5 -98.5 -62.75 -74 0 rrcurveto
          -93 -8.75 39.75 106.5 144.75 26.75 1.75 66 89 80.5 -6.5 0 hvcurveto
          99 vlineto
          -94 34 -104.5 0 -52 0 rrcurveto
          -102 -73.75 -56.5 -214 hvcurveto
          endchar
        </CharString>
        <CharString name="c_t">
          348 -7 126.5 -120.75 98.75 314.25 119.75 hstemhm
          26.5 164 382.5 164 hintmask 10111000
          26.5 261 rmoveto
          -233 76 -35 101.25 vhcurveto
          118.25 0.25 62 6.5 78 29 rrcurveto
          99.5 vlineto
          0 -83.75 -8.75 -92 -72 -23.75 3.25 134.25 161.25 41.75 -7.25 60 vhcurveto
          280.75 0.75 0 -222.5 rlineto
          hintmask 01111000
          -140.75 46.25 -49.75 83.75 vhcurveto
          132 98.75 hlineto
          -5.5 -50.75 20.25 0 hvcurveto
          -27.75 11.5 -14 12 0 78 rrcurveto
          192.5 105.5 119.5 -105.5 148 -138.5 vlineto
          -25.5 -147.75 -363.25 1.5 rlineto
          -102 -81.25 -40 -232 hvcurveto
          endchar
        </CharString>
        <CharString name="cacute">
          -15 -5 126.5 288 126.5 60.6441955566 140.5 hstem
          33.5 164 29.5090026855 217 vstem
          227.008789062 596.64453125 rmoveto
          -1 callsubr
          -278.008789062 -471.14453125 rmoveto
          -37 callsubr
          endchar
        </CharString>
        <CharString name="cacute.smcp">
          5 -4 126.5 329 126.5 65 140.5 hstem
          37 164 18.875 217 vstem
          219.875 643 rmoveto
          -1 callsubr
          -267.375 -488.5 rmoveto
          77 callsubr
          endchar
        </CharString>
        <CharString name="caron">
          -126 531 137.5 hstem
          33.5 314.5 vstem
          33.5 668.5 rmoveto
          47 callsubr
          -3.75 -137.5 rmoveto
          116 hmoveto
          endchar
        </CharString>
        <CharString name="caron.smcp">
          -126 531 145 hstem
          33.5 314.5 vstem
          33.5 676 rmoveto
          94.25 -145 116 0 104.25 145 -99.5 0 -59.5 -61 -57.25 61 rlineto
          -4 -145 rmoveto
          116 hmoveto
          endchar
        </CharString>
        <CharString name="ccaron">
          -15 -5 126.5 288 126.5 60.6441955566 137.5 hstemhm
          33.5 164 -82.8659057617 314.5 hintmask 00101000
          114.633789062 734.14453125 rmoveto
          47 callsubr
          -3.75 -137.5 rmoveto
          116 hmoveto
          hintmask 11010000
          -294.633789062 -330.64453125 rmoveto
          -37 callsubr
          endchar
        </CharString>
        <CharString name="ccaron.smcp">
          5 -4 126.5 329 126.5 65 137.5 hstemhm
          37 164 -66 314.5 hintmask 00101000
          135 780.5 rmoveto
          47 callsubr
          -3.75 -137.5 rmoveto
          116 hmoveto
          hintmask 11010000
          -311.5 -348 rmoveto
          77 callsubr
          endchar
        </CharString>
        <CharString name="ccedilla">
          -15 -5.5 126.5 289 126.5 hstem
          33.5 164 24.25 104.5 vstem
          33.5 266 rmoveto
          -214.25 76 -57.25 99 vhcurveto
          83 1 98 -10.75 76.5 45.5 rrcurveto
          99.5 vlineto
          0 -83.75 -8.75 -92 -72 -20.75 12.75 129.75 144.75 26.75 1.75 66 89 79.75 -6.5 0 vhcurveto
          99 vlineto
          -94 34 -104.5 0 -52 0 rrcurveto
          -102 -73 -56.5 -214 hvcurveto
          118.25 -378.75 rmoveto
          0 callsubr
          endchar
        </CharString>
        <CharString name="ccedilla.smcp">
          5 -176.25 143.5 28.75 126.5 329 126.5 hstem
          37 164 42.5 104.5 vstem
          173.5 -107.75 rmoveto
          0 callsubr
          -177.5 387.75 rmoveto
          77 callsubr
          endchar
        </CharString>
        <CharString name="ccircumflex">
          -15 -5 126.5 288 126.5 60.5 137.5 hstemhm
          33.5 164 -89.75 314.5 hintmask 00101000
          107.75 596.5 rmoveto
          12 callsubr
          0 vmoveto
          116 hmoveto
          hintmask 11010000
          -294.5 -468 rmoveto
          -37 callsubr
          endchar
        </CharString>
        <CharString name="ccircumflex.smcp">
          5 -4 126.5 329 126.5 65 137.5 hstemhm
          37 164 -70.25 314.5 hintmask 00101000
          130.75 643 rmoveto
          12 callsubr
          0 vmoveto
          116 hmoveto
          hintmask 11010000
          -314 -485.5 rmoveto
          77 callsubr
          endchar
        </CharString>
        <CharString name="cdotaccent">
          -15 -5 126.5 288 126.5 61 132 hstem
          33.5 164 19.75 127 vstem
          217.25 620 rmoveto
          48 callsubr
          -183.75 -438 rmoveto
          -37 callsubr
          endchar
        </CharString>
        <CharString name="cdotaccent.smcp">
          5 -4 126.5 329 126.5 65 132 hstem
          37 164 32 127 vstem
          233 666 rmoveto
          48 callsubr
          -196 -455 rmoveto
          77 callsubr
          endchar
        </CharString>
        <CharString name="cedilla">
          -266 -180.5 143.5 hstem
          103.5 104.5 vstem
          33.5 -112 rmoveto
          0 callsubr
          endchar
        </CharString>
        <CharString name="cent">
          -21 -5.5 126.5 289 224 hstem
          26.5 164 15.75 96 vstem
          26.5 266 rmoveto
          0 -214.25 75.5 -56.25 101.25 -1 rrcurveto
          -89.75 96 89.75 vlineto
          56 0.75 55.5 7 48.25 28 rrcurveto
          99.5 vlineto
          0 -83.75 -8.75 -92 -72 -20.75 12.75 129.75 144.75 26.75 1.75 66 89 80.5 -6.5 0 vhcurveto
          99 vlineto
          -50 17.75 -53.5 9 -47 4.5 rrcurveto
          100.25 -96 -97.5 vlineto
          -105.5 1.25 -74.25 -56 0 -215.75 rrcurveto
          endchar
        </CharString>
        <CharString name="circumflex">
          -126 531 137.5 hstem
          33.5 314.5 vstem
          33.5 531 rmoveto
          12 callsubr
          0 vmoveto
          116 hmoveto
          endchar
        </CharString>
        <CharString name="circumflex.smcp">
          -126 531 137.5 hstem
          33.5 314.5 vstem
          33.5 531 rmoveto
          12 callsubr
          0 vmoveto
          116 hmoveto
          endchar
        </CharString>
        <CharString name="colon">
          -247 0 150 231.25 150 hstem
          57.25 147 vstem
          57.25 23 rmoveto
          -96 callsubr
          279.25 vmoveto
          -96 callsubr
          endchar
        </CharString>
        <CharString name="comma">
          -249 -88 54.5 hstem
          57.25 145 vstem
          57.25 25 rmoveto
          -17 11 -8 14 vhcurveto
          11 -10 hlineto
          0 -10.25 -1 -14.25 -30 1 rrcurveto
          -54.5 vlineto
          0 140 -39.75 116.75 hvcurveto
          135 vlineto
          15 -6 12 -18 vhcurveto
          -96 hlineto
          -16 -9 -9 -18 hvcurveto
          endchar
        </CharString>
        <CharString name="copyright">
          289 0 94 53 94 248 94 55 94 hstem
          37 101.5 82 101.5 337 101.5 vstem
          37 368 rmoveto
          -6 callsubr
          101.5 hmoveto
          -5 callsubr
          82 -3 rmoveto
          -177 71.75 -41 79 vhcurveto
          67 0 62.75 2.5 55 25.5 rrcurveto
          82 vlineto
          -38.75 -7.25 -56 -8.75 -61.5 0 rrcurveto
          -56.5 -21.25 37 84 97.5 18.5 29.5 54 hvcurveto
          33 0 59.5 -3 63 -9 rrcurveto
          82 vlineto
          -57.5 19 -87 5 -41 0 rrcurveto
          -87.75 -56.25 -57 -161 hvcurveto
          endchar
        </CharString>
        <CharString name="currency">
          -65 150 85.75 147.75 85.75 hstem
          63.75 85.25 145.75 85.25 vstem
          34.5 434 rmoveto
          49 -47 rlineto
          -12.75 -22.25 -7 -26.25 0 -28 0 -30.25 8.75 -27.5 14 -24.25 rrcurveto
          -48.75 -49.25 53.5 -52.5 46.25 48.5 rlineto
          24.25 -15.75 29.25 -9.5 30.75 0 26 0 24.5 6.75 21.5 11.75 rrcurveto
          54.25 -52 49.5 55 -47 45.5 rlineto
          18.75 26.25 10.75 32.25 0 35 0 28.75 -7.5 27.5 -13.5 23.25 rrcurveto
          49.25 50.75 -54.5 49.75 -45.75 -47.75 rlineto
          -24.75 16.5 -29.5 10 -32 0 -32.5 0 -31.25 -10.25 -25.25 -17.5 rrcurveto
          -47 45.75 rlineto
          63.25 -177.25 rmoveto
          40.25 32.5 33.25 40.25 40.5 32.5 -33 -40.5 -40.75 -32.25 -33.5 -40.75 -40.75 -32 33.5 40.75 vhcurveto
          endchar
        </CharString>
        <CharString name="d">
          50 -6 136.25 286 122.75 hstem
          33.5 164 156.75 163.75 vstem
          33.5 263 rmoveto
          -36 callsubr
          164 7.5 rmoveto
          -35 callsubr
          endchar
        </CharString>
        <CharString name="d.salt">
          48 -9.25 119 304.5 123.5 hstem
          33.5 164 153.75 164 vstem
          33.5 259.75 rmoveto
          135 callsubr
          164 -5.25 rmoveto
          136 callsubr
          endchar
        </CharString>
        <CharString name="d.smcp">
          79 0 141.5 289 141.5 hstem
          53.75 164 168 164 vstem
          53.75 hmoveto
          78 callsubr
          164 -430.5 rmoveto
          79 callsubr
          endchar
        </CharString>
        <CharString name="d.superior">
          -105 374 104 172.25 94.25 hstem
          20.5 125 104.75 124.5 vstem
          20.5 557.25 rmoveto
          -123.25 34.75 -60 91 vhcurveto
          44.25 0 32.75 20.75 26 22.25 rrcurveto
          21.75 -39 103.75 0 0 523.75 -124.5 0 0 -182 rlineto
          -31.5 15.5 -40 9.25 -32.5 0 rrcurveto
          -106.5 -19.25 -64 -123.25 hvcurveto
          125 5.25 rmoveto
          77 14.5 10.75 26.25 vhcurveto
          27.25 0 17.5 -3.5 18.25 -9 rrcurveto
          -142.75 vlineto
          -15.5 -11 -17 -6 -30.5 0 rrcurveto
          -26.5 -14.25 15 69.5 hvcurveto
          endchar
        </CharString>
        <CharString name="dagger">
          -47 440.25 126.5 hstemhm
          146.25 169 -158.25 145.5 hintmask 11000000
          13.25 440.25 rmoveto
          133 -13.75 rlineto
          hintmask 10100000
          10.75 -498.5 145.5 0 rlineto
          hintmask 11000000
          12.75 498.5 132 13.75 0 126.5 -132 13.75 -11.75 189.5 -145.5 0 -11.75 -189.5 -133 -13.75 rlineto
          endchar
        </CharString>
        <CharString name="daggerdbl">
          -34 136.5 126.5 177.25 126.5 hstemhm
          148.75 163.5 -155.25 145.5 hintmask 11010000
          13.25 136.5 rmoveto
          139.75 -16.75 4 -191.75 145.5 0 4.75 193.25 140 15.25 0 126.5 rlineto
          hintmask 11100000
          -135 16 3 147.5 132 13.75 0 126.5 -132 13.75 -11.75 189.5 -145.25 0 -12 -189.5 -133 -13.75 0 -126.5 133 -13.75 2.5 -146.75 -135.5 -16.75 rlineto
          endchar
        </CharString>
        <CharString name="dcaron">
          120 -6 136.25 286 122.75 hstem
          33.5 164 156.75 163.75 52.5 104 vstem
          33.5 263 rmoveto
          -181.25 47.25 -87.75 125.5 vhcurveto
          61.25 0 51 28 35.75 29.5 rrcurveto
          26 -51.5 137.75 0 0 785 -163.75 0 0 -278.5 rlineto
          -43 20.75 -60 11.75 -45 0 rrcurveto
          -145.75 -27 -94.25 -181.75 hvcurveto
          164 7.5 rmoveto
          50 callsubr
          372.75 511 rmoveto
          0.25 -67 10 -134 83.75 0 10.25 134 0 67 rlineto
          endchar
        </CharString>
        <CharString name="dcaron.salt">
          146 -9.25 119 304.5 123.5 hstem
          33.5 164 153.75 164 43.25 104 vstem
          33.5 259.75 rmoveto
          135 callsubr
          164 -5.25 rmoveto
          136 callsubr
          361 461 rmoveto
          49 callsubr
          endchar
        </CharString>
        <CharString name="dcaron.smcp">
          80 0 141.5 289 141.5 59.25 137.5 hstemhm
          75.75 164 -85.25 314.5 -61.25 164 hintmask 00101000
          154.5 768.75 rmoveto
          47 callsubr
          -3.75 -137.5 rmoveto
          116 hmoveto
          hintmask 11010100
          -292.25 -631.25 rmoveto
          78 callsubr
          164 -430.5 rmoveto
          79 callsubr
          endchar
        </CharString>
        <CharString name="dcroat">
          60 -6 136.25 286 122.75 62 69 hstem
          29 164 156.75 163.75 vstem
          29 263 rmoveto
          -181.25 47.25 -87.75 125.5 vhcurveto
          61.25 0 51 28 35.75 29.5 rrcurveto
          26 -51.5 137.75 0 0 601 63 0 0 69 -63 0 0 115 -163.75 0 0 -115 -101 0 0 -69 101 0 0 -94.5 rlineto
          -43 20.75 -60 11.75 -45 0 rrcurveto
          -145.75 -27 -94.25 -181.75 hvcurveto
          164 7.5 rmoveto
          50 callsubr
          endchar
        </CharString>
        <CharString name="dcroat.salt">
          64 -9.25 119 304.5 123.5 70.75 69 105 -20 hstem
          33.5 164 153.75 164 vstem
          33.5 259.75 rmoveto
          -192 73.25 -77 125 vhcurveto
          96.25 0 133.5 1.75 53.75 31 rrcurveto
          585 57 69 -57 105 -164 -105 -91 -69 91 -109.75 vlineto
          -32.5 28.25 -42 10.75 -45 0 rrcurveto
          -153 -45.25 -94.5 -183.5 hvcurveto
          164 -5.25 rmoveto
          136 callsubr
          endchar
        </CharString>
        <CharString name="dcroat.smcp">
          95 0 141.75 113.75 69 105 142.25 hstem
          71.25 165 160.25 165.75 vstem
          13.25 255.5 rmoveto
          117 callsubr
          223 -182.75 rmoveto
          118 callsubr
          endchar
        </CharString>
        <CharString name="degree">
          -237 530 62.25 80.5 62.25 hstem
          33.5 61.25 80.5 61.25 vstem
          33.5 632 rmoveto
          -2 callsubr
          61.25 hmoveto
          22.5 18.25 18.25 22.5 22.5 17.25 -18.25 -22.5 -22.5 -17.25 -17.25 -22.5 -22.5 -18.25 17.25 22.5 vhcurveto
          endchar
        </CharString>
        <CharString name="degree.smcp">
          -238 364.75 64 77.25 64 hstem
          33.5 62.75 77.25 62.75 vstem
          33.5 467 rmoveto
          115 callsubr
          62.75 hmoveto
          116 callsubr
          endchar
        </CharString>
        <CharString name="dieresis">
          -62 519.75 123.5 hstem
          33.5 123.5 131.5 123.5 vstem
          33.5 582 rmoveto
          -7 callsubr
          255 hmoveto
          -7 callsubr
          endchar
        </CharString>
        <CharString name="dieresis.smcp">
          -62 519.5 123.75 hstem
          33.5 123.5 131.5 123.5 vstem
          33.5 581.75 rmoveto
          114 callsubr
          255 hmoveto
          114 callsubr
          endchar
        </CharString>
        <CharString name="divide">
          -16 125.25 119.25 41.5 134 37.25 119.25 hstem
          176.75 130.75 vstem
          33.5 286 rmoveto
          424.25 134 -424.25 hlineto
          143.25 -271.75 rmoveto
          21 callsubr
          260.75 vmoveto
          21 callsubr
          endchar
        </CharString>
        <CharString name="dollar">
          61 280.75 164 hstem
          37 164 34.75 95.5 36.75 164 vstem
          37 482.75 rmoveto
          -55 13.75 -147 179.25 vhcurveto
          77.5 hlineto
          49.25 11.25 -21.5 -36 hvcurveto
          -29 vlineto
          -43.25 -34 -10 -42.5 vhcurveto
          -93 0 -98.5 6.75 -40 3 rrcurveto
          -127 vlineto
          65 -20.25 29 -7.75 81.75 -2.5 rrcurveto
          -83.25 95.5 82 vlineto
          99.5 101.25 38.75 170.25 hvcurveto
          41.75 vlineto
          80.5 -31 121.5 -148.5 vhcurveto
          -80.5 hlineto
          -53 -18 17.25 43.25 hvcurveto
          24.75 vlineto
          0 55.25 28.5 4.75 58 -0.75 49.5 0 107.5 -4.5 60.5 -5.25 rrcurveto
          127.75 vlineto
          -49.75 15.25 -53.5 11.25 -70.5 3.5 rrcurveto
          86.75 -95.5 -86 vlineto
          -110 -3.5 -88.25 -46.25 -0.5 -143.25 rrcurveto
          endchar
        </CharString>
        <CharString name="dollar.smcp">
          19 210.75 140.75 hstem
          198.75 97 31.75 164.25 vstem
          33.5 370 rmoveto
          -91 35.5 -68.25 123.5 vhcurveto
          95.5 hlineto
          24.25 15.25 -9.5 -23.5 hvcurveto
          -20 vlineto
          -15.5 -14.75 -17.25 -26.5 vhcurveto
          -95.5 0 -128.75 5 -7.5 0 rrcurveto
          -115.25 vlineto
          19.75 -10.25 66.25 -7 58.25 -3.5 rrcurveto
          -78.75 97 75.5 vlineto
          116.75 -1 79.25 20 0 143.5 rrcurveto
          32 vlineto
          83.75 -28.75 82.5 -122.5 vhcurveto
          -103 hlineto
          -28 -12 11.25 22.25 hvcurveto
          16.75 vlineto
          28.75 17.25 9.5 25.25 85.5 141 -6.75 0 vhcurveto
          117 vlineto
          -46.5 8.25 -68.25 7.5 -56 4 rrcurveto
          82 -97 -78.5 vlineto
          -119.25 -1.75 -46 -66.75 0 -99.5 rrcurveto
          endchar
        </CharString>
        <CharString name="dotaccent">
          -313 518 132 hstem
          33.5 127 vstem
          33.5 541 rmoveto
          48 callsubr
          endchar
        </CharString>
        <CharString name="dotlessi">
          -263 21 -21 21 -21 531 -20 hstemhm
          40.5 164 hintmask 10110000
          40.5 hmoveto
          -27 callsubr
          endchar
        </CharString>
        <CharString name="e">
          18 -5 125.75 81.75 110.5 103 119 hstem
          33.5 164 137 164 vstem
          33.5 268 rmoveto
          -34 callsubr
          164 45 rmoveto
          -33 callsubr
          endchar
        </CharString>
        <CharString name="e.smcp">
          4 -2 141.5 -124.5 124.5 76.75 136 -129 121 86.25 140.5 -140.5 124.75 hstemhm
          53.75 164 hintmask 10000010
          53.75 113 rmoveto
          80 callsubr
          hintmask 01000010
          81 callsubr
          hintmask 10100010
          82 callsubr
          hintmask 00010010
          83 callsubr
          hintmask 00101010
          84 callsubr
          hintmask 00000110
          85 callsubr
          hintmask 10001010
          86 callsubr
          endchar
        </CharString>
        <CharString name="e.superior">
          -120 374.5 95.75 38.25 84.5 50.25 91.25 hstem
          20.5 125 vstem
          20.5 556.25 rmoveto
          -128 32.75 -53.75 97 vhcurveto
          61.25 0 91 -0.75 54.25 22.25 rrcurveto
          78.75 vlineto
          -54.5 -5 -37.25 0.5 -56.25 0 rrcurveto
          -55.75 -7.5 3.25 35 hvcurveto
          107.5 hlineto
          69.25 42.5 24.25 69 119.25 -56 13.5 -119.25 -131.25 -37.75 -42.25 -136 hvcurveto
          125 36.75 rmoveto
          -1.5 43.5 14 6.75 39 0 rrcurveto
          37.25 5.5 -7.25 -25 -11 -9.5 -7 -16.5 hvcurveto
          endchar
        </CharString>
        <CharString name="eacute">
          18 -5 125.75 81.75 110.5 103 119 61 140.5 hstemhm
          33.5 164 21.25 217 -101.25 164 hintmask 00010100
          218.75 596 rmoveto
          -1 callsubr
          hintmask 11101010
          -269.75 -468.5 rmoveto
          -34 callsubr
          164 45 rmoveto
          -33 callsubr
          endchar
        </CharString>
        <CharString name="eacute.smcp">
          4 -2 141.5 -124.5 124.5 76.75 136 -129 121 86.25 124.75 -124.75 140.5 60.25 140.5 hstemhm
          53.75 164 14.375 217 hintmask 0000001010000000
          232.125 631.25 rmoveto
          -1 callsubr
          hintmask 1000000100000000
          -262.875 -658.75 rmoveto
          80 callsubr
          hintmask 0100000100000000
          81 callsubr
          hintmask 1010000100000000
          82 callsubr
          hintmask 0001000100000000
          83 callsubr
          hintmask 0010010100000000
          84 callsubr
          hintmask 0000100100000000
          85 callsubr
          hintmask 1000010100000000
          86 callsubr
          endchar
        </CharString>
        <CharString name="ecaron">
          18 -5 125.75 81.75 110.5 103 119 59.75 137.5 hstemhm
          33.5 164 -79.5 314.5 -98 164 hintmask 00010100
          118 732.25 rmoveto
          47 callsubr
          -3.75 -137.5 rmoveto
          116 hmoveto
          hintmask 11101010
          -298 -326.75 rmoveto
          -34 callsubr
          164 45 rmoveto
          -33 callsubr
          endchar
        </CharString>
        <CharString name="ecaron.smcp">
          4 -2 141.5 -124.5 124.5 76.75 136 -129 121 86.25 124.75 -124.75 140.5 60 137.5 hstemhm
          53.75 164 -96.5 314.5 hintmask 0000001010000000
          121.25 768.5 rmoveto
          47 callsubr
          -3.75 -137.5 rmoveto
          116 hmoveto
          hintmask 1000000100000000
          -281 -518 rmoveto
          80 callsubr
          hintmask 0100000100000000
          81 callsubr
          hintmask 1010000100000000
          82 callsubr
          hintmask 0001000100000000
          83 callsubr
          hintmask 0010010100000000
          84 callsubr
          hintmask 0000100100000000
          85 callsubr
          hintmask 1000010100000000
          86 callsubr
          endchar
        </CharString>
        <CharString name="ecircumflex">
          18 -5 125.75 81.75 110.5 103 119 61 137.5 hstemhm
          33.5 164 -91.25 314.5 -86.25 164 hintmask 00010100
          106.25 596 rmoveto
          12 callsubr
          0 vmoveto
          116 hmoveto
          hintmask 11101010
          -293 -465.5 rmoveto
          -34 callsubr
          164 45 rmoveto
          -33 callsubr
          endchar
        </CharString>
        <CharString name="ecircumflex.smcp">
          4 -2 141.5 -124.5 124.5 76.75 136 -129 121 86.25 124.75 -124.75 140.5 60.25 137.5 hstemhm
          53.75 164 -97.25 314.5 hintmask 0000001010000000
          120.5 631.25 rmoveto
          12 callsubr
          0 vmoveto
          116 hmoveto
          hintmask 1000000100000000
          -287 -655.75 rmoveto
          80 callsubr
          hintmask 0100000100000000
          81 callsubr
          hintmask 1010000100000000
          82 callsubr
          hintmask 0001000100000000
          83 callsubr
          hintmask 0010010100000000
          84 callsubr
          hintmask 0000100100000000
          85 callsubr
          hintmask 1000010100000000
          86 callsubr
          endchar
        </CharString>
        <CharString name="edieresis">
          18 -5 125.75 81.75 110.5 103 119 61 123.5 hstemhm
          33.5 164 -124 123.5 131.5 123.5 -117.5 164 hintmask 00010110
          73.5 658.25 rmoveto
          -7 callsubr
          255 hmoveto
          -7 callsubr
          hintmask 11101001
          -295 -390.25 rmoveto
          -34 callsubr
          164 45 rmoveto
          -33 callsubr
          endchar
        </CharString>
        <CharString name="edieresis.smcp">
          4 -2 141.5 -124.5 124.5 76.75 136 -129 121 86.25 124.75 -124.75 140.5 60.25 123.5 hstemhm
          53.75 164 -137 123.5 131.5 123.5 hintmask 0000001011000000
          80.75 693.5 rmoveto
          -7 callsubr
          255 hmoveto
          -7 callsubr
          hintmask 1000000100000000
          -282 -580.5 rmoveto
          80 callsubr
          hintmask 0100000100000000
          81 callsubr
          hintmask 1010000100000000
          82 callsubr
          hintmask 0001000100000000
          83 callsubr
          hintmask 0010010100000000
          84 callsubr
          hintmask 0000100100000000
          85 callsubr
          hintmask 1000010100000000
          86 callsubr
          endchar
        </CharString>
        <CharString name="edotaccent">
          18 -5 125.75 81.75 110.5 103 119 61 132 hstem
          33.5 164 9.75 127 0.25 164 vstem
          207.25 619 rmoveto
          48 callsubr
          -173.75 -435 rmoveto
          -34 callsubr
          164 45 rmoveto
          -33 callsubr
          endchar
        </CharString>
        <CharString name="edotaccent.smcp">
          4 -2 141.5 -124.5 124.5 76.75 136 -129 121 86.25 124.75 -124.75 140.5 60.25 132 hstemhm
          53.75 164 1.875 127 hintmask 0000001010000000
          219.625 654.25 rmoveto
          48 callsubr
          hintmask 1000000100000000
          -165.875 -625.25 rmoveto
          80 callsubr
          hintmask 0100000100000000
          81 callsubr
          hintmask 1010000100000000
          82 callsubr
          hintmask 0001000100000000
          83 callsubr
          hintmask 0010010100000000
          84 callsubr
          hintmask 0000100100000000
          85 callsubr
          hintmask 1000010100000000
          86 callsubr
          endchar
        </CharString>
        <CharString name="egrave">
          18 -5 125.75 81.75 110.5 103 119 61 140.5 hstemhm
          33.5 164 -94.25 217 14.25 164 hintmask 00010100
          103.25 736.5 rmoveto
          -42 callsubr
          hintmask 11101010
          -202.25 -468.5 rmoveto
          -34 callsubr
          164 45 rmoveto
          -33 callsubr
          endchar
        </CharString>
        <CharString name="egrave.smcp">
          4 -2 141.5 -124.5 124.5 76.75 136 -129 121 86.25 124.75 -124.75 140.5 60.25 140.5 hstemhm
          53.75 164 -92 217 hintmask 0000001010000000
          125.75 771.75 rmoveto
          -42 callsubr
          hintmask 1000000100000000
          -204.5 -658.75 rmoveto
          80 callsubr
          hintmask 0100000100000000
          81 callsubr
          hintmask 1010000100000000
          82 callsubr
          hintmask 0001000100000000
          83 callsubr
          hintmask 0010010100000000
          84 callsubr
          hintmask 0000100100000000
          85 callsubr
          hintmask 1000010100000000
          86 callsubr
          endchar
        </CharString>
        <CharString name="eight">
          114 0 141.5 165.5 133 155.5 141.5 hstem
          50.25 164 193.5 164 vstem
          50.25 172.75 rmoveto
          -86 callsubr
          164 -41.75 rmoveto
          -85 callsubr
          298.75 vmoveto
          -84 callsubr
          endchar
        </CharString>
        <CharString name="eight.denominator">
          -44 -0.25 108 88.5 102 82.25 107.75 hstem
          44.25 125 125.25 125 vstem
          44.25 115 rmoveto
          -45 7.25 -70.25 127.25 vhcurveto
          114.75 hlineto
          66.25 59.75 16.25 103.5 hvcurveto
          53.5 vlineto
          0 28.75 -7 56.75 -47 8.25 47.75 7 6.5 51 -0.25 17 rrcurveto
          31.75 vlineto
          84.5 -44.75 30.25 -82 vhcurveto
          -112.25 hlineto
          -73 -63.25 -22.75 -93.5 hvcurveto
          -42.25 vlineto
          0 -39.25 3.25 -36 52.5 -22.25 -38.75 -6.5 -17 -33.25 0 -36.75 rrcurveto
          125 -18.75 rmoveto
          34 callsubr
          191.5 vmoveto
          35 callsubr
          endchar
        </CharString>
        <CharString name="eight.numerator">
          -44 254.75 108 88.5 102 82.25 107.75 hstem
          44.25 125 125.25 125 vstem
          44.25 370 rmoveto
          -45 7.25 -70.25 127.25 vhcurveto
          114.75 hlineto
          66.25 59.75 16.25 103.5 hvcurveto
          52.75 vlineto
          0 28.75 -7 56.75 -47 8.25 47.75 7 6.5 51.75 -0.25 17 rrcurveto
          31.75 vlineto
          84.5 -44.75 30.25 -82 vhcurveto
          -112.25 hlineto
          -73 -63.25 -22.75 -93.5 hvcurveto
          -42.25 vlineto
          0 -39.25 3.25 -36.75 52.5 -22.25 -38.75 -6.5 -17 -32.5 0 -36.75 rrcurveto
          125 -18.75 rmoveto
          34 callsubr
          191.5 vmoveto
          35 callsubr
          endchar
        </CharString>
        <CharString name="eight.oldstyle">
          114 0 141.5 165.5 133 155.5 141.5 hstem
          50.25 164 193.5 164 vstem
          50.25 172.75 rmoveto
          -86 callsubr
          164 -41.75 rmoveto
          -85 callsubr
          298.75 vmoveto
          -84 callsubr
          endchar
        </CharString>
        <CharString name="eight.smcp">
          50 0 135 93.75 118.5 92.75 135 hstem
          50.25 164 130 164 vstem
          50.25 130 rmoveto
          -55.25 11 -74.75 129.5 vhcurveto
          178.5 hlineto
          54.5 84.5 18.5 111.5 hvcurveto
          70 vlineto
          0 34 -16 55 -42 8 56 12 2 64 0 17 rrcurveto
          43 vlineto
          117.5 -58.75 24.5 -85.25 vhcurveto
          -166 hlineto
          -90 -58 -20.25 -121.75 hvcurveto
          -43 vlineto
          0 -41 17.75 -54 50 -17 -31 -10 -36.75 -10 0 -58 rrcurveto
          164 -30 rmoveto
          27.5 vlineto
          27 13.5 4.25 21 vhcurveto
          61.5 hlineto
          25.75 8.25 -7.5 -26 hvcurveto
          -27.5 vlineto
          -27.5 -8 -5.25 -28 vhcurveto
          -53.5 hlineto
          -31.5 -9 3.75 31.25 hvcurveto
          210.75 vmoveto
          27.75 vlineto
          28.75 12.25 2.75 23.75 vhcurveto
          60.5 hlineto
          23.5 9.5 -5.75 -25.75 hvcurveto
          -30 vlineto
          -14.5 0.25 -16.75 -31.5 vhcurveto
          -64.5 hlineto
          -25.5 -8.25 11.5 22 hvcurveto
          endchar
        </CharString>
        <CharString name="eight.tnum">
          104 0 141.5 165.5 133 155.5 141.5 hstem
          45.5 164 193.5 164 vstem
          45.5 172.75 rmoveto
          -86 callsubr
          164 -41.75 rmoveto
          -85 callsubr
          298.75 vmoveto
          -84 callsubr
          endchar
        </CharString>
        <CharString name="eight.tosf">
          104 0 141.5 165.5 133 155.5 141.5 hstem
          45.5 164 193.5 164 vstem
          45.5 172.75 rmoveto
          -86 callsubr
          164 -41.75 rmoveto
          -85 callsubr
          298.75 vmoveto
          -84 callsubr
          endchar
        </CharString>
        <CharString name="eightinferior">
          -44 -200.25 108 88.5 102 82.25 107.75 hstem
          44.25 125 125.25 125 vstem
          44.25 -44.25 rmoveto
          -40.75 vlineto
          -45 7.25 -70.25 127.25 vhcurveto
          114.75 hlineto
          66.25 59.75 16.25 103.5 hvcurveto
          52.75 vlineto
          0 28.75 -7 56.75 -47 8.25 47.75 7 6.5 51.75 -0.25 17 rrcurveto
          31.75 vlineto
          84.5 -44.75 30.25 -82 vhcurveto
          -112.25 hlineto
          -73 -63.25 -22.75 -93.5 hvcurveto
          -42.25 vlineto
          0 -39.25 3.25 -36.75 52.5 -22.25 -38.75 -6.5 -17 -32.5 0 -36.75 rrcurveto
          125 9.5 rmoveto
          20.5 7 10.5 28.5 vhcurveto
          55.75 hlineto
          26.75 7.25 -11.25 -19.75 hvcurveto
          -28.25 vlineto
          -19 -6.25 -10.25 -28.75 vhcurveto
          -54.25 hlineto
          -27.5 -8.5 7.75 21.5 hvcurveto
          191.5 vmoveto
          35 callsubr
          endchar
        </CharString>
        <CharString name="eightsuperior">
          -44 367.25 108 88.5 102 82.25 107.75 hstem
          44.25 125 125.25 125 vstem
          44.25 482.5 rmoveto
          -45 7.25 -70.25 127.25 vhcurveto
          114.75 hlineto
          66.25 59.75 16.25 103.5 hvcurveto
          52.75 vlineto
          0 28.75 -6.25 56.75 -47.75 8.25 48.5 7 5.75 51.75 -0.25 17 rrcurveto
          31.75 vlineto
          84.5 -44.75 30.25 -82 vhcurveto
          -112.25 hlineto
          -73 -63.25 -22.75 -93.5 hvcurveto
          -42.25 vlineto
          0 -39.25 3.25 -36.75 52.5 -22.25 -38 -6.5 -17.75 -32.5 0 -36.75 rrcurveto
          125 -18.75 rmoveto
          34 callsubr
          191.5 vmoveto
          35 callsubr
          endchar
        </CharString>
        <CharString name="ellipsis">
          297 0 150 hstemhm
          175.25 147 -11 147 -11 147 hintmask 11000000
          175.25 23 rmoveto
          -96 callsubr
          hintmask 10100000
          136 -102 rmoveto
          -96 callsubr
          hintmask 10010000
          136 -102 rmoveto
          -96 callsubr
          endchar
        </CharString>
        <CharString name="emacron">
          18 -5 125.75 81.75 110.5 103 119 60.75 85.5 hstemhm
          33.5 164 -72.25 292 -82.75 164 hintmask 00010100
          125.25 595.75 rmoveto
          -3 callsubr
          hintmask 11101010
          -91.75 -413.25 rmoveto
          -34 callsubr
          164 45 rmoveto
          -33 callsubr
          endchar
        </CharString>
        <CharString name="emacron.smcp">
          4 -2 141.5 -124.5 124.5 76.75 136 -129 121 86.25 124.75 -124.75 140.5 60.25 85.5 hstemhm
          53.75 164 -89.75 292 hintmask 0000001010000000
          128 631.25 rmoveto
          -3 callsubr
          hintmask 1000000100000000
          -74.25 -603.75 rmoveto
          80 callsubr
          hintmask 0100000100000000
          81 callsubr
          hintmask 1010000100000000
          82 callsubr
          hintmask 0001000100000000
          83 callsubr
          hintmask 0010010100000000
          84 callsubr
          hintmask 0000100100000000
          85 callsubr
          hintmask 1000010100000000
          86 callsubr
          endchar
        </CharString>
        <CharString name="emdash">
          229 222 135 hstem
          20 222 rmoveto
          44 callsubr
          endchar
        </CharString>
        <CharString name="emdash.alt">
          229 292 135 hstem
          20 292 rmoveto
          44 callsubr
          endchar
        </CharString>
        <CharString name="emdash.smcp">
          229 209 135 hstem
          20 209 rmoveto
          44 callsubr
          endchar
        </CharString>
        <CharString name="endash">
          6 220 135 hstem
          20 220 rmoveto
          43 callsubr
          endchar
        </CharString>
        <CharString name="endash.alt">
          6 290 135 hstem
          20 290 rmoveto
          43 callsubr
          endchar
        </CharString>
        <CharString name="endash.smcp">
          6 205 135 hstem
          20 205 rmoveto
          43 callsubr
          endchar
        </CharString>
        <CharString name="eng">
          52 21 -21 21 -21 413.5 126.5 -9 -20 hstemhm
          40.5 164 151 164 hintmask 10101100
          40.5 hmoveto
          164 371.5 hlineto
          28.25 29.5 27.75 12.5 47.75 0 rrcurveto
          29.25 18 -15 -48 hvcurveto
          hintmask 01101100
          0 -350.5 0 -64 rlineto
          -2 -84 -29 -12.5 -51.5 -17 rrcurveto
          37.5 -90.5 rlineto
          65.25 3.5 140.75 37.75 2 166.75 rrcurveto
          1 60 0 347.5 rlineto
          106 -26.5 86.5 -130 vhcurveto
          -81 0 -27.75 -33 -49.75 -30.5 rrcurveto
          hintmask 10011100
          -21 callsubr
          endchar
        </CharString>
        <CharString name="eng.smcp">
          94 -212 110.75 122.25 -21 21 -21 hstemhm
          49.25 164 181 163 hintmask 11011000
          49.25 hmoveto
          164 278.25 hlineto
          182 -275.25 0 -35.75 rlineto
          -59 -30.5 -9.5 -47 vhcurveto
          -110.75 vlineto
          157 -6 81.75 37 0.75 134 rrcurveto
          hintmask 10111000
          0 47 0 571 -163 0 0 -273.5 -184 273.5 -161 0 rlineto
          endchar
        </CharString>
        <CharString name="eogonek">
          18 -165.5 82.5 78 125.75 -117.75 20 179.5 110.5 103 119 hstemhm
          33.5 164 137 164 hintmask 10100000
          427 23 rmoveto
          46 callsubr
          hintmask 01011110
          -455 245 rmoveto
          -34 callsubr
          164 45 rmoveto
          -33 callsubr
          endchar
        </CharString>
        <CharString name="eogonek.smcp">
          4 -173.5 82.5 86 20 -17 141.5 -124.5 124.5 76.75 136 -129 121 86.25 124.75 -124.75 140.5 hstemhm
          53.75 164 hintmask 1100000000000000
          420.75 15 rmoveto
          46 callsubr
          hintmask 0010000010000000
          -428.5 98 rmoveto
          80 callsubr
          hintmask 0001000010000000
          81 callsubr
          hintmask 0010100010000000
          82 callsubr
          hintmask 0000010010000000
          83 callsubr
          hintmask 0000100110000000
          84 callsubr
          hintmask 0000001010000000
          85 callsubr
          hintmask 0010000110000000
          86 callsubr
          endchar
        </CharString>
        <CharString name="equal">
          -40 174.5 134 82.5 134 hstem
          20 174.5 rmoveto
          427 134 -427 hlineto
          82.5 vmoveto
          427 134 -427 hlineto
          endchar
        </CharString>
        <CharString name="estimated">
          175 0 21 237 17 239 19 hstem
          40.5 111 379 112 vstem
          40.5 266 rmoveto
          0 -78 28 -63 55 -51 55 -51 67 -23 96 0 62 0 30 6 42 16 40 16 35 27 38 40 rrcurveto
          -56 hlineto
          -43 -48 -72 -36 -76 0 rrcurveto
          -114 -76 66 27 hvcurveto
          133 vlineto
          13 5 -2 7 vhcurveto
          479 hlineto
          -4 89 -31 75 -58 45 -58 45 -61 21 -89 0 -97 0 -64 -25 -56 -50 -55 -52 -29 -62 0 -78 rrcurveto
          111 18 rmoveto
          137 vlineto
          23 81 70 108 86 104 -57 -42 vhcurveto
          -133 vlineto
          -10 -1 3 -12 vhcurveto
          -357 hlineto
          -5 -4 0 9 hvcurveto
          endchar
        </CharString>
        <CharString name="eth">
          34 0 151 231 149 119.5 132.5 hstem
          26.5 164 160 164 vstem
          26.5 264 rmoveto
          -179 53 -85 137 vhcurveto
          107.5 hlineto
          107 83.5 65 199 hvcurveto
          0 167.25 -15.25 152.25 -86.5 94.5 rrcurveto
          58.75 29.25 -30.25 57 -83.5 -41.75 rlineto
          -63.25 40 -86 20.5 -123.5 0 rrcurveto
          -132.5 vlineto
          45.25 1.25 43.25 -0.75 35.5 -9.5 rrcurveto
          -58.75 -29 30 -57 102.25 52 rlineto
          24.25 -21.25 17 -28 10.25 -34.75 -18.5 7.5 -53 0 -6 0 rrcurveto
          -40 hlineto
          -135 -55 -97 -170 hvcurveto
          164 hmoveto
          99.5 15.5 18.5 42 vhcurveto
          46 hlineto
          51 5.5 -14.5 -103.5 -89.5 -5.25 -23.5 -51.25 hvcurveto
          -46 hlineto
          -46 -11.5 14.25 98.75 hvcurveto
          endchar
        </CharString>
        <CharString name="eth.smcp">
          95 0 141.75 113.75 69 105 142.25 hstem
          71.25 165 160.25 165.75 vstem
          13.25 255.5 rmoveto
          117 callsubr
          223 -182.75 rmoveto
          118 callsubr
          endchar
        </CharString>
        <CharString name="exclam">
          -232 0 150 581 -20 hstemhm
          56.5 160.25 -155.75 147 -137 128.25 hintmask 11010000
          61 23 rmoveto
          -107 callsubr
          hintmask 11100000
          -4.5 606 rmoveto
          hintmask 11001000
          14.5 -535 128.25 0 rlineto
          hintmask 11100000
          17.5 535 rlineto
          endchar
        </CharString>
        <CharString name="exclam.smcp">
          -233 0 150 hstemhm
          56.5 159.5 -155.75 147 -137 127.5 hintmask 10100000
          60.25 23 rmoveto
          -107 callsubr
          hintmask 11000000
          -3.75 445 rmoveto
          hintmask 10010000
          13.75 -380.5 127.5 0 rlineto
          hintmask 11000000
          18.25 380.5 rlineto
          endchar
        </CharString>
        <CharString name="exclamdown">
          -229 311.75 149.25 hstemhm
          57.25 161.75 -154 145.75 -137 129 hintmask 10100000
          65 338.5 rmoveto
          -18 10.25 -8.75 13.75 vhcurveto
          99.5 hlineto
          17.25 0 4.75 14.25 0.25 12.75 rrcurveto
          96.25 vlineto
          0 14 -12 11 -12 1 rrcurveto
          -97.75 hlineto
          -14 -1 -10 -8 0 -14 rrcurveto
          hintmask 11000000
          -7.75 -708 rmoveto
          161.75 0 rlineto
          hintmask 10010000
          -16.25 534 -129 0 rlineto
          endchar
        </CharString>
        <CharString name="exclamdown.alt">
          -232 21 -21 21 -21 535 -20 66 150 hstemhm
          56.75 160.25 -151.5 147 -138.25 128.25 hintmask 00110100
          65.5 606 rmoveto
          -14 8 -11 15 vhcurveto
          100 hlineto
          16 8 10 15 hvcurveto
          102 vlineto
          14 -10 9 -14 vhcurveto
          -100 hlineto
          -14 -9 -8 -15 hvcurveto
          hintmask 10111000
          -8.75 -708 rmoveto
          160.25 0 rlineto
          hintmask 10110010
          -14.5 535 -128.25 0 rlineto
          endchar
        </CharString>
        <CharString name="exclamdown.smcp">
          -233 21 -21 21 -21 420 150 hstemhm
          56.75 159.5 -152.25 146.25 -137.5 127.5 hintmask 00101000
          64 445 rmoveto
          -14 8 -11 15 vhcurveto
          99.25 hlineto
          16 8 10 15 hvcurveto
          102 vlineto
          14 -10 9 -14 vhcurveto
          -99.25 hlineto
          -14 -9 -8 -15 hvcurveto
          hintmask 10110000
          -7.25 -547 rmoveto
          159.5 0 rlineto
          hintmask 10100100
          -16 380.5 -127.5 0 rlineto
          endchar
        </CharString>
        <CharString name="f">
          -102 21 -21 21 -21 412 119 136.5 118.5 hstemhm
          91.5 164 hintmask 10111000
          13.25 412 rmoveto
          -32 callsubr
          endchar
        </CharString>
        <CharString name="f.salt">
          -130 21 -21 21 -21 412 119 138 117 hstemhm
          40.5 164 hintmask 10111000
          40.5 hmoveto
          137 callsubr
          endchar
        </CharString>
        <CharString name="f.smcp">
          4 21 -21 21 -21 200.5 136 -129 121 102 140.5 -140.5 124.75 hstemhm
          53.75 164 hintmask 10100010
          53.75 hmoveto
          164 200.5 hlineto
          hintmask 00010010
          83 callsubr
          hintmask 00101010
          87 callsubr
          hintmask 00000110
          85 callsubr
          hintmask 10101010
          88 callsubr
          endchar
        </CharString>
        <CharString name="f.superior">
          -199 642.75 91.25 -91.25 78.25 91 90.25 hstemhm
          72 125 hintmask 01110000
          17.75 642.75 rmoveto
          54.25 -264.75 125 264.75 hlineto
          hintmask 10110000
          74.5 91.25 -74 30.75 hlineto
          0 33.25 0.25 15 35.25 -1 rrcurveto
          0 57.5 -1.25 1 vhcurveto
          73.75 vlineto
          -30.25 13.75 -29.5 4 -35.5 0 rrcurveto
          -87 -36.75 -36 -73.5 hvcurveto
          0 -69 rlineto
          hintmask 01110000
          -54.75 -2.75 rlineto
          endchar
        </CharString>
        <CharString name="f_f">
          293 21 -21 21 -21 412 119 -119 102 142.75 119.25 -108.5 118.5 hstemhm
          110.25 164 212.25 164 hintmask 00010011
          13.25 412 rmoveto
          hintmask 10100011
          97 -412 164 hlineto
          hintmask 00010011
          412 vlineto
          hintmask 10100011
          212.25 -412 164 hlineto
          hintmask 00010011
          412 vlineto
          hintmask 00100111
          110.5 119 -110 54 hlineto
          0 58.5 -2.5 25 53.5 -1 rrcurveto
          0 84.5 -1 1 vhcurveto
          95.5 vlineto
          -41.5 18.75 -41.25 5.25 -49 0 rrcurveto
          -120 -48.75 -51.75 -104.25 hvcurveto
          -99 -210.75 49.25 vlineto
          hintmask 00101011
          0 48 1.25 29.5 49.75 -1 rrcurveto
          0 77 -1 1 vhcurveto
          96.25 vlineto
          -40.75 17.25 -50.25 6.75 -49 0 rrcurveto
          -120 -33 -88.5 -67.5 hvcurveto
          0 -89 rlineto
          hintmask 00010011
          -99 -17 rlineto
          endchar
        </CharString>
        <CharString name="f_f_i">
          513 21 -21 21 -21 412 119 -119 109 -109 102 142.75 119.25 -108.5 118.5 hstemhm
          110.25 164.75 199.75 164 178 164.25 hintmask 0000100111000000
          13.25 412 rmoveto
          hintmask 1010000111000000
          97 -412 164.75 412 199.75 -412 164 hlineto
          hintmask 0000100111000000
          412 vlineto
          hintmask 1010000111000000
          178 -412 164.25 hlineto
          hintmask 0001000111000000
          0 521 rlineto
          hintmask 0010001111000000
          -341.75 10 0 27.5 rlineto
          0 96 68.25 14 53.5 -1 rrcurveto
          0 186.5 -3.5 1 vhcurveto
          95.5 vlineto
          -41.5 18.75 -158.25 8.5 -49 -0.75 -139.5 -3 -85 -96.75 0 -120.25 rrcurveto
          -35 -200.25 vlineto
          0.5 49.25 rlineto
          hintmask 0010010111000000
          2.5 48 -0.5 29.5 49.75 -1 rrcurveto
          0 77 -1 1 vhcurveto
          96.25 vlineto
          -40.75 17.25 -50.25 6.75 -49 0 rrcurveto
          -120 -33 -88.5 -67.5 hvcurveto
          0 -89 rlineto
          hintmask 0000100111000000
          -99 -17 rlineto
          endchar
        </CharString>
        <CharString name="f_t">
          251 -0.5 98.75 314.75 119 135.5 118.5 hstem
          91.5 164 221 164 vstem
          13.25 412 rmoveto
          78.25 -412 164 413 221 -223 hlineto
          -140.75 46.25 -49.75 83.75 vhcurveto
          132 98.75 hlineto
          -5.5 -50.75 20.25 0 hvcurveto
          -27.75 11.75 -13.75 11.75 -0.25 78 rrcurveto
          193 105.5 119 -105.5 148 -138.5 vlineto
          -25.5 -148 -220.5 0 0 53 rlineto
          0 58.5 -2.5 25 53.5 -1 rrcurveto
          0 84.5 -1 1 vhcurveto
          95.5 vlineto
          -41.5 18.75 -41.25 5.25 -49 0 rrcurveto
          -120 -48.75 -51.75 -104.25 hvcurveto
          0 -99 -78.75 -17 rlineto
          endchar
        </CharString>
        <CharString name="f_y">
          478 21 -21 21 -21 412 119 136.5 118.5 hstemhm
          91.5 164 hintmask 10111000
          13.25 412 rmoveto
          78.25 -412 164 412 101.75 hlineto
          60 0.75 23.75 -16.25 15 -60.75 rrcurveto
          54 -191 rlineto
          23.75 -92.5 56.5 -52 93.25 0 rrcurveto
          -69.75 -270 120.5 0 72.5 102 165.5 699 -168.75 0 -90.25 -394.75 rlineto
          -11.75 0.75 -28.25 3 -8.75 35.25 rrcurveto
          -56.75 223.25 rlineto
          -20 85.5 -54.25 47.5 -123 -0.75 rrcurveto
          -154.5 54 hlineto
          0 58.5 -2.5 26.25 53.5 -2.25 rrcurveto
          0 84.5 -3.5 1 vhcurveto
          95.5 vlineto
          -41.5 18.75 -41.25 7.75 -49 0 rrcurveto
          -120 -48.75 -51.75 -104.25 hvcurveto
          0 -99 -78.75 -17 rlineto
          endchar
        </CharString>
        <CharString name="ffl">
          603 0 98 314 119 -119 102 142.75 119.25 -108.5 118 hstemhm
          110.25 164.75 203.5 164 190 164 hintmask 10100111
          13.25 412 rmoveto
          hintmask 11000111
          97 -412 164.75 412 203.5 -412 164 hlineto
          hintmask 10100111
          412 vlineto
          hintmask 11001111
          110.5 119 -110 42.5 hlineto
          73.5 22.5 20.5 53.5 vhcurveto
          0 79.75 -0.75 33.75 vhcurveto
          -477.75 vlineto
          -141 44.75 -48 94.75 vhcurveto
          125.5 98 hlineto
          -7 -52 21 0 hvcurveto
          -27.25 12 -14.75 14.5 0 73.5 rrcurveto
          0 564.25 -308.75 2.25 rlineto
          -120 -88.75 -46.25 -165.75 hvcurveto
          -42.5 -204 vlineto
          0.5 49.25 rlineto
          hintmask 11010111
          1 48 1 29.5 49.75 -1 rrcurveto
          0 77 -1 1 vhcurveto
          96.25 vlineto
          -40.75 17.25 -50.25 6.75 -49 0 rrcurveto
          -120 -33 -88.5 -67.5 hvcurveto
          0 -89 rlineto
          hintmask 10100111
          -99 -17 rlineto
          endchar
        </CharString>
        <CharString name="fi">
          128 21 -21 21 -21 412 119 -119 109 146.5 118.5 hstemhm
          91.75 164 178 164.25 hintmask 10011110
          13.25 412 rmoveto
          78.5 -412 164 hlineto
          hintmask 10101110
          412 178 -412 164.25 vlineto
          hintmask 00011110
          0 521 rlineto
          hintmask 00101110
          -342.25 10 0 27.5 rlineto
          0 96 68.5 14 53.5 -1 rrcurveto
          0 186.75 -3.5 1 vhcurveto
          95.5 vlineto
          -41.5 18.75 -158.5 8.5 -49 -0.75 -139.5 -3 -85.25 -96.75 0 -120.25 rrcurveto
          0 -35 -78.5 -17 rlineto
          endchar
        </CharString>
        <CharString name="five">
          87 -4 154 -130 130 177 141.5 114.5 149 hstemhm
          392 164 hintmask 01111000
          51.25 20 rmoveto
          hintmask 10111000
          -90 callsubr
          hintmask 01111000
          -274 hlineto
          endchar
        </CharString>
        <CharString name="five.denominator">
          -89 -3.25 116.25 -99.25 99.25 91.25 107.75 58.25 113.75 hstemhm
          266.75 125 hintmask 01111000
          37 13.75 rmoveto
          hintmask 10111000
          93 -16.5 41 -0.5 86.25 0 rrcurveto
          67.5 67 34.25 89.5 hvcurveto
          63.25 vlineto
          0 71 -35.75 52.75 -83 4.5 -35 3 -50.5 3.25 -29.25 -22.25 rrcurveto
          4.25 74.25 208.5 0 0 113.75 -318.25 0 -15 -304 107.5 0 rlineto
          17 11.5 7.25 22 vhcurveto
          51.25 hlineto
          32.75 4 -16.75 -17.5 hvcurveto
          -24.5 vlineto
          -15 0.5 -17.5 -43.25 vhcurveto
          hintmask 01111000
          -187 hlineto
          endchar
        </CharString>
        <CharString name="five.numerator">
          -89 251.75 116.25 -99.25 99.25 95 107.75 54.5 113.75 hstemhm
          266.75 125 hintmask 01111000
          37 268.75 rmoveto
          hintmask 10111000
          93 -16.5 41 -0.5 86.25 0 rrcurveto
          67.5 67 35 90.25 hvcurveto
          64 vlineto
          0 71.75 -35.75 52.75 -83 5.25 -35.75 3 -49 2.5 -30 -21.5 rrcurveto
          4.25 70.5 208.5 0 0 113.75 -318.25 0 -15 -313 107.5 0 rlineto
          26 11.5 11 22 vhcurveto
          51.25 hlineto
          32.75 4 -17.5 -18.25 hvcurveto
          -25.25 vlineto
          -15.75 0.5 -18.25 -43.25 vhcurveto
          hintmask 01111000
          -187 hlineto
          endchar
        </CharString>
        <CharString name="five.oldstyle">
          99 -104 154 -130 130 177 141.5 114.5 149 hstemhm
          392 164 hintmask 01111000
          51.25 50 rmoveto
          -130 vlineto
          hintmask 10111000
          -90 callsubr
          endchar
        </CharString>
        <CharString name="five.smcp">
          20 -1 146.5 -122.5 122.5 93.5 125.5 56.5 149 hstemhm
          324.25 164 hintmask 01111000
          51.25 23 rmoveto
          hintmask 10111000
          83 -23 89.5 -2 99 1 85 1 80.5 32.25 0 119.75 rrcurveto
          48 vlineto
          108.25 -47.5 56.25 -118 vhcurveto
          -49.5 hlineto
          -23.75 0 -28 -6 -19.75 -20.5 rrcurveto
          6.5 83 254 0 0 149 -393 0 -17 -368.5 137.5 0 rlineto
          31.5 25.5 6 19.5 vhcurveto
          50.5 hlineto
          36.5 2.5 -10 -27.25 hvcurveto
          -20 vlineto
          -28.25 -11.25 -8 -31.5 vhcurveto
          hintmask 01111000
          -230.25 hlineto
          endchar
        </CharString>
        <CharString name="five.tnum">
          104 -4 154 -130 130 177 141.25 114.75 149 hstemhm
          392 164 hintmask 01111000
          51.25 20 rmoveto
          hintmask 10111000
          134 -23 53.5 -1 124 0 rrcurveto
          89 104.25 48 137 hvcurveto
          99 vlineto
          0 103.75 -50.5 77.25 -116.5 7.5 -17.5 0.75 -44.5 2.25 -33 -3.25 -17.75 -1.75 -26 -4.25 -23 -16.25 rrcurveto
          6 137 294 0 0 149 -452.75 0 -22 -457.5 156 0 rlineto
          36.75 19.75 15.75 33.75 vhcurveto
          71.5 hlineto
          50.75 7.75 -30.25 -33 hvcurveto
          -50.75 vlineto
          -26 -3 -37 -63.75 vhcurveto
          hintmask 01111000
          -274 hlineto
          endchar
        </CharString>
        <CharString name="five.tosf">
          104 -104 154 -130 130 177 141.5 114.5 149 hstemhm
          392 164 hintmask 01111000
          51.25 50 rmoveto
          -130 vlineto
          hintmask 10111000
          -90 callsubr
          endchar
        </CharString>
        <CharString name="fiveinferior">
          -89 -203.25 116.25 -99.25 99.25 95 107.75 54.5 113.75 hstemhm
          266.75 125 hintmask 10111000
          37.75 -12.5 rmoveto
          107.5 hlineto
          14.75 11.5 5.75 22 vhcurveto
          51.25 hlineto
          32.75 4 -17.5 -18.25 hvcurveto
          -25.25 vlineto
          -15.75 0.5 -18.25 -43.25 vhcurveto
          hintmask 01111000
          -187 -99.25 hlineto
          hintmask 10111000
          93 -16.5 41 -0.5 86.25 0 rrcurveto
          67.5 67 35 90.25 hvcurveto
          64 vlineto
          0 71.75 -35.75 52.75 -83 5.25 -35.75 3 -49 2.5 -30 -21.5 rrcurveto
          4.25 70.5 208.5 0 0 113.75 -318.25 0 rlineto
          endchar
        </CharString>
        <CharString name="fivesuperior">
          -92 364.25 116.25 -99.25 99.25 95 107.75 54.5 113.75 hstemhm
          263.75 125 hintmask 01111000
          37 381.25 rmoveto
          hintmask 10111000
          92.25 -16.5 41 -0.5 85.5 0 rrcurveto
          66.75 66.25 35 90.25 hvcurveto
          64 vlineto
          0 71.75 -35.75 52.75 -82.25 5.25 -35 3 -48.25 2.5 -30 -21.5 rrcurveto
          3.5 70.5 207 0 0 113.75 -315.25 0 -15 -305.5 106 0 rlineto
          20.75 10.75 8.75 22 vhcurveto
          50.5 hlineto
          32.75 4 -17.5 -18.25 hvcurveto
          -25.25 vlineto
          -15.75 1.25 -18.25 -43.25 vhcurveto
          hintmask 01111000
          -184.75 hlineto
          endchar
        </CharString>
        <CharString name="fl">
          216 0 98 314 119 136.5 118.5 hstem
          91.5 164 190 164 vstem
          13.25 412 rmoveto
          78.25 -412 164 412 110.5 119 -110 42.5 hlineto
          73.5 22.5 20.5 53.5 vhcurveto
          0 79.75 -0.75 33.75 vhcurveto
          -477.75 vlineto
          -141 44.75 -48 94.75 vhcurveto
          125.5 98 hlineto
          -7 -52 21 0 hvcurveto
          -27.25 12 -14.75 14.5 0 73.5 rrcurveto
          0 564.75 -308.75 2.25 rlineto
          -120 -88.75 -46.75 -165.75 hvcurveto
          0 -42.5 -78.75 -17 rlineto
          endchar
        </CharString>
        <CharString name="florin">
          86 -204 126.5 444.5 119 187.5 126.5 -126.5 101.5 hstemhm
          hintmask 11100000
          13.25 -179 rmoveto
          15.75 -11.5 46.75 -13.5 64.5 0 123 0 55 112.75 28 179.25 rrcurveto
          43.5 279 106.5 0 19 119 -106.5 0 3.5 20 rlineto
          14.75 90 18.25 77.5 69.25 0 rrcurveto
          50.5 0 rlineto
          hintmask 11010000
          15.25 101.5 rlineto
          hintmask 11100000
          -14.25 5.75 -29.5 19.25 -81.25 0 -117 0 -64.25 -128.25 -26.5 -165.75 rrcurveto
          -3.5 -19.75 -81 0 -19 -119.25 81 0 -43.5 -279 rlineto
          -12 -77.25 -17.75 -88.25 -70 0 rrcurveto
          -52.5 hlineto
          endchar
        </CharString>
        <CharString name="four">
          120 149.5 153 229.5 -20 220 -20 hstem
          382.25 164 vstem
          13.25 224 rmoveto
          -91 callsubr
          endchar
        </CharString>
        <CharString name="four.denominator">
          -67 90.25 116.75 hstem
          260.75 125 vstem
          10.75 145.75 rmoveto
          22.75 -55.5 227.25 0 0 -88.5 125 0 0 88.5 44.75 19.75 0 97 -44.75 0 0 145.75 -102.25 0 -22.75 -50.25 0 -95.5 -86.75 0 124 277 -129.5 0 rlineto
          endchar
        </CharString>
        <CharString name="four.numerator">
          -67 345.25 116.75 -103.25 103.25 hstemhm
          260.75 125 hintmask 10100000
          10.75 400 rmoveto
          40 callsubr
          hintmask 01100000
          0 102 44.75 6.25 0 97 -44.75 0 0 146.5 -102.25 0 -22.75 -50.25 rlineto
          hintmask 10100000
          -96.25 -86.75 vlineto
          124 277 -129.5 0 rlineto
          endchar
        </CharString>
        <CharString name="four.oldstyle">
          120 49.5 153 hstem
          382.25 164 vstem
          13.25 124 rmoveto
          -91 callsubr
          endchar
        </CharString>
        <CharString name="four.smcp">
          54 115.5 145.5 hstem
          324.5 164 vstem
          13.25 197.5 rmoveto
          43.75 -82 267.5 0 0 -113.5 164 0 0 113.5 60 19 0 126.5 -60 0 0 195 -127 0 -37 -90 0 -105 -104 0 141 309 -172.75 0 rlineto
          endchar
        </CharString>
        <CharString name="four.tnum">
          104 149.5 153 229.5 -20 220 -20 hstem
          388.25 164 vstem
          19 224 rmoveto
          57 callsubr
          endchar
        </CharString>
        <CharString name="four.tosf">
          104 49.5 153 hstem
          388.25 164 vstem
          19 124 rmoveto
          57 callsubr
          endchar
        </CharString>
</ttFont>
